<svg id="Layer_1" height="512" viewBox="0 0 256 256" width="512" xmlns="http://www.w3.org/2000/svg"><g><path d="m47.411 26.015s3.408 12.659 13.222 13.246c0 0-13.1 4.525-13.321 14.202 0 0-2.579-13.572-12.925-14.059 0 0 12.05-1.826 13.024-13.389z" fill="#d7e057"/><path d="m47.311 54.963c-.713 0-1.335-.506-1.472-1.217-.024-.125-2.495-12.419-11.522-12.844-.771-.036-1.388-.65-1.428-1.421-.04-.77.511-1.444 1.273-1.561.441-.068 10.894-1.817 11.754-12.032.061-.726.634-1.301 1.359-1.367.722-.063 1.393.398 1.583 1.101.032.116 3.259 11.626 11.863 12.141.714.042 1.298.583 1.396 1.292.098.708-.319 1.388-.994 1.622-.121.042-12.118 4.311-12.313 12.82-.018.767-.61 1.396-1.374 1.46-.041.004-.084.006-.125.006zm-7.741-15.73c3.878 1.969 6.23 5.745 7.587 8.876 2.026-4.022 5.941-6.787 8.949-8.427-4.134-1.843-6.783-5.651-8.334-8.723-1.794 4.361-5.272 6.869-8.202 8.274z" fill="#3a312a"/><path d="m25.712 42.995s2.411 8.954 9.352 9.369c0 0-9.266 3.201-9.422 10.045 0 0-1.824-9.6-9.142-9.944 0 .001 8.524-1.291 9.212-9.47z" fill="#d7e057"/><path d="m25.641 63.91c-.713 0-1.337-.508-1.472-1.22-.016-.082-1.704-8.442-7.739-8.726-.77-.036-1.387-.65-1.427-1.421-.04-.77.511-1.444 1.273-1.561.295-.047 7.364-1.243 7.942-8.113.061-.725.635-1.303 1.36-1.368.723-.058 1.392.398 1.582 1.102.021.079 2.227 7.92 7.994 8.265.715.042 1.299.584 1.396 1.293.098.709-.319 1.388-.996 1.622-.081.028-8.282 2.953-8.413 8.662-.018.768-.611 1.397-1.376 1.461-.041.002-.083.004-.124.004zm-4.519-11.527c2.107 1.332 3.523 3.394 4.447 5.279 1.376-2.232 3.515-3.872 5.365-4.973-2.287-1.269-3.884-3.35-4.941-5.224-1.174 2.287-3.016 3.876-4.871 4.918z" fill="#3a312a"/><path d="m25.712 16.338s2.411 8.954 9.352 9.37c0 0-9.266 3.201-9.422 10.046 0 0-1.824-9.6-9.142-9.944 0-.002 8.524-1.293 9.212-9.472z" fill="#d7e057"/><path d="m25.641 37.253c-.713 0-1.337-.508-1.472-1.22-.016-.082-1.704-8.442-7.739-8.727-.77-.036-1.388-.65-1.428-1.421-.04-.77.511-1.444 1.273-1.561.295-.047 7.364-1.243 7.942-8.113.061-.726.635-1.303 1.36-1.368.731-.07 1.392.4 1.582 1.102.021.079 2.227 7.92 7.994 8.265.715.042 1.299.584 1.396 1.293.098.709-.319 1.388-.996 1.622-.081.028-8.282 2.953-8.413 8.662-.018.768-.611 1.397-1.376 1.461-.04.003-.082.005-.123.005zm-4.519-11.528c2.107 1.333 3.523 3.395 4.447 5.28 1.376-2.232 3.515-3.872 5.365-4.973-2.287-1.268-3.884-3.35-4.941-5.224-1.174 2.287-3.015 3.876-4.871 4.917z" fill="#3a312a"/><path d="m16.5 178.018v49.206c0 6.869 5.569 12.438 12.438 12.438h180.992c6.869 0 12.438-5.569 12.438-12.438v-132.986c0-6.869-5.569-12.438-12.438-12.438h-180.992c-6.869 0-12.438 5.569-12.438 12.438v66.3z" fill="#f4e0c4"/><path d="m209.93 241.162h-180.992c-7.686 0-13.938-6.252-13.938-13.938v-49.206c0-.828.671-1.5 1.5-1.5s1.5.672 1.5 1.5v49.206c0 6.031 4.907 10.938 10.938 10.938h180.992c6.031 0 10.938-4.906 10.938-10.938v-132.987c0-6.031-4.907-10.938-10.938-10.938h-180.992c-6.031.001-10.938 4.907-10.938 10.938v66.301c0 .828-.671 1.5-1.5 1.5s-1.5-.672-1.5-1.5v-66.301c0-7.685 6.252-13.937 13.938-13.937h180.992c7.686 0 13.938 6.252 13.938 13.938v132.987c0 7.685-6.253 13.937-13.938 13.937z" fill="#3a312a"/><path d="m104.089 109.495h118.278v-15.257c0-6.869-5.569-12.438-12.438-12.438h-180.991c-6.869 0-12.438 5.569-12.438 12.438v15.257h70.646z" fill="#87796f"/><path d="m222.368 110.995h-118.279c-.829 0-1.5-.672-1.5-1.5s.671-1.5 1.5-1.5h116.778v-13.758c0-6.031-4.907-10.938-10.938-10.938h-180.991c-6.031.001-10.938 4.907-10.938 10.938v13.758h69.146c.829 0 1.5.672 1.5 1.5s-.671 1.5-1.5 1.5h-70.646c-.829 0-1.5-.672-1.5-1.5v-15.258c0-7.685 6.252-13.937 13.938-13.937h180.992c7.686 0 13.938 6.252 13.938 13.938v15.258c0 .827-.672 1.499-1.5 1.499z" fill="#3a312a"/><path d="m152.29 147.689h-17.556c-1.654 0-2.994-1.34-2.994-2.994v-17.556c0-1.654 1.34-2.994 2.994-2.994h17.556c1.654 0 2.994 1.34 2.994 2.994v17.556c.001 1.653-1.34 2.994-2.994 2.994z" fill="#8ac5dc"/><path d="m152.29 149.189h-17.556c-2.478 0-4.494-2.016-4.494-4.494v-17.556c0-2.479 2.016-4.494 4.494-4.494h17.556c2.478 0 4.494 2.016 4.494 4.494v17.556c.001 2.478-2.015 4.494-4.494 4.494zm-17.555-23.544c-.824 0-1.494.67-1.494 1.494v17.556c0 .824.67 1.494 1.494 1.494h17.556c.824 0 1.494-.67 1.494-1.494v-17.556c0-.824-.67-1.494-1.494-1.494z" fill="#3a312a"/><path d="m55.975 147.689h-17.556c-1.654 0-2.994-1.34-2.994-2.994v-17.556c0-1.654 1.34-2.994 2.994-2.994h17.556c1.654 0 2.994 1.34 2.994 2.994v17.556c0 1.653-1.341 2.994-2.994 2.994z" fill="#8ac5dc"/><path d="m55.975 149.189h-17.556c-2.478 0-4.494-2.016-4.494-4.494v-17.556c0-2.479 2.016-4.494 4.494-4.494h17.556c2.478 0 4.494 2.016 4.494 4.494v17.556c0 2.478-2.016 4.494-4.494 4.494zm-17.556-23.544c-.824 0-1.494.67-1.494 1.494v17.556c0 .824.67 1.494 1.494 1.494h17.556c.824 0 1.494-.67 1.494-1.494v-17.556c0-.824-.67-1.494-1.494-1.494z" fill="#3a312a"/><path d="m104.133 147.689h-17.556c-1.654 0-2.994-1.34-2.994-2.994v-17.556c0-1.654 1.34-2.994 2.994-2.994h17.555c1.654 0 2.994 1.341 2.994 2.994v17.556c.001 1.653-1.34 2.994-2.993 2.994z" fill="#ed6e7a"/><path d="m104.133 149.189h-17.556c-2.478 0-4.494-2.016-4.494-4.494v-17.556c0-2.479 2.016-4.494 4.494-4.494h17.555c2.478 0 4.494 2.016 4.494 4.494v17.556c0 2.478-2.015 4.494-4.493 4.494zm-17.556-23.544c-.824 0-1.494.67-1.494 1.494v17.556c0 .824.67 1.494 1.494 1.494h17.556c.824 0 1.494-.67 1.494-1.494v-17.556c0-.824-.67-1.494-1.494-1.494z" fill="#3a312a"/><path d="m200.448 147.689h-17.556c-1.654 0-2.994-1.34-2.994-2.994v-17.556c0-1.654 1.34-2.994 2.994-2.994h17.555c1.654 0 2.994 1.341 2.994 2.994v17.556c.001 1.653-1.339 2.994-2.993 2.994z" fill="#8ac5dc"/><path d="m200.448 149.189h-17.556c-2.478 0-4.494-2.016-4.494-4.494v-17.556c0-2.479 2.016-4.494 4.494-4.494h17.556c2.478 0 4.494 2.016 4.494 4.494v17.556c0 2.478-2.016 4.494-4.494 4.494zm-17.555-23.544c-.824 0-1.494.67-1.494 1.494v17.556c0 .824.67 1.494 1.494 1.494h17.556c.824 0 1.494-.67 1.494-1.494v-17.556c0-.824-.67-1.494-1.494-1.494z" fill="#3a312a"/><path d="m55.975 186.462h-17.556c-1.654 0-2.994-1.34-2.994-2.994v-17.555c0-1.654 1.34-2.994 2.994-2.994h17.556c1.654 0 2.994 1.34 2.994 2.994v17.555c0 1.653-1.341 2.994-2.994 2.994z" fill="#8ac5dc"/><path d="m55.975 187.962h-17.556c-2.478 0-4.494-2.016-4.494-4.494v-17.556c0-2.479 2.016-4.494 4.494-4.494h17.556c2.478 0 4.494 2.016 4.494 4.494v17.556c0 2.478-2.016 4.494-4.494 4.494zm-17.556-23.544c-.824 0-1.494.67-1.494 1.494v17.556c0 .824.67 1.494 1.494 1.494h17.556c.824 0 1.494-.67 1.494-1.494v-17.556c0-.824-.67-1.494-1.494-1.494z" fill="#3a312a"/><path d="m104.133 186.462h-17.556c-1.654 0-2.994-1.34-2.994-2.994v-17.555c0-1.654 1.34-2.994 2.994-2.994h17.555c1.654 0 2.994 1.34 2.994 2.994v17.555c.001 1.653-1.34 2.994-2.993 2.994z" fill="#8ac5dc"/><path d="m104.133 187.962h-17.556c-2.478 0-4.494-2.016-4.494-4.494v-17.556c0-2.479 2.016-4.494 4.494-4.494h17.555c2.478 0 4.494 2.016 4.494 4.494v17.556c0 2.478-2.015 4.494-4.493 4.494zm-17.556-23.544c-.824 0-1.494.67-1.494 1.494v17.556c0 .824.67 1.494 1.494 1.494h17.556c.824 0 1.494-.67 1.494-1.494v-17.556c0-.824-.67-1.494-1.494-1.494z" fill="#3a312a"/><path d="m152.29 186.462h-17.556c-1.654 0-2.994-1.34-2.994-2.994v-17.555c0-1.654 1.34-2.994 2.994-2.994h17.556c1.654 0 2.994 1.34 2.994 2.994v17.555c.001 1.653-1.34 2.994-2.994 2.994z" fill="#8ac5dc"/><path d="m152.29 187.962h-17.556c-2.478 0-4.494-2.016-4.494-4.494v-17.556c0-2.479 2.016-4.494 4.494-4.494h17.556c2.478 0 4.494 2.016 4.494 4.494v17.556c.001 2.478-2.015 4.494-4.494 4.494zm-17.555-23.544c-.824 0-1.494.67-1.494 1.494v17.556c0 .824.67 1.494 1.494 1.494h17.556c.824 0 1.494-.67 1.494-1.494v-17.556c0-.824-.67-1.494-1.494-1.494z" fill="#3a312a"/><path d="m200.448 186.462h-17.556c-1.654 0-2.994-1.34-2.994-2.994v-17.555c0-1.654 1.34-2.994 2.994-2.994h17.555c1.654 0 2.994 1.34 2.994 2.994v17.555c.001 1.653-1.339 2.994-2.993 2.994z" fill="#8ac5dc"/><path d="m200.448 187.962h-17.555c-2.478 0-4.494-2.016-4.494-4.494v-17.556c0-2.479 2.016-4.494 4.494-4.494h17.556c2.478 0 4.494 2.016 4.494 4.494v17.556c-.001 2.478-2.017 4.494-4.495 4.494zm-17.555-23.544c-.824 0-1.494.67-1.494 1.494v17.556c0 .824.67 1.494 1.494 1.494h17.555c.824 0 1.494-.67 1.494-1.494v-17.556c0-.824-.67-1.494-1.494-1.494z" fill="#3a312a"/><path d="m55.975 225.235h-17.556c-1.654 0-2.994-1.341-2.994-2.994v-17.556c0-1.654 1.34-2.994 2.994-2.994h17.556c1.654 0 2.994 1.341 2.994 2.994v17.556c0 1.654-1.341 2.994-2.994 2.994z" fill="#8ac5dc"/><path d="m55.975 226.735h-17.556c-2.478 0-4.494-2.016-4.494-4.494v-17.556c0-2.479 2.016-4.494 4.494-4.494h17.556c2.479 0 4.495 2.016 4.495 4.494v17.556c-.001 2.479-2.017 4.494-4.495 4.494zm-17.556-23.544c-.824 0-1.494.67-1.494 1.494v17.556c0 .824.67 1.494 1.494 1.494h17.556c.824 0 1.494-.67 1.494-1.494v-17.556c0-.824-.67-1.494-1.495-1.494z" fill="#3a312a"/><path d="m104.133 225.235h-17.556c-1.654 0-2.994-1.341-2.994-2.994v-17.556c0-1.654 1.34-2.994 2.994-2.994h17.555c1.654 0 2.994 1.341 2.994 2.994v17.556c.001 1.654-1.34 2.994-2.993 2.994z" fill="#8ac5dc"/><path d="m104.133 226.735h-17.556c-2.478 0-4.494-2.016-4.494-4.494v-17.556c0-2.479 2.016-4.494 4.494-4.494h17.555c2.478 0 4.494 2.016 4.494 4.494v17.556c0 2.479-2.015 4.494-4.493 4.494zm-17.556-23.544c-.824 0-1.494.67-1.494 1.494v17.556c0 .824.67 1.494 1.494 1.494h17.556c.824 0 1.494-.67 1.494-1.494v-17.556c0-.824-.67-1.494-1.494-1.494z" fill="#3a312a"/><path d="m152.29 225.235h-17.556c-1.654 0-2.994-1.341-2.994-2.994v-17.556c0-1.654 1.34-2.994 2.994-2.994h17.556c1.654 0 2.994 1.341 2.994 2.994v17.556c.001 1.654-1.34 2.994-2.994 2.994z" fill="#8ac5dc"/><path d="m152.29 226.735h-17.556c-2.478 0-4.494-2.016-4.494-4.494v-17.556c0-2.479 2.016-4.494 4.494-4.494h17.556c2.478 0 4.494 2.016 4.494 4.494v17.556c.001 2.479-2.015 4.494-4.494 4.494zm-17.555-23.544c-.824 0-1.494.67-1.494 1.494v17.556c0 .824.67 1.494 1.494 1.494h17.556c.824 0 1.494-.67 1.494-1.494v-17.556c0-.824-.67-1.494-1.494-1.494z" fill="#3a312a"/><path d="m200.448 225.235h-17.556c-1.654 0-2.994-1.341-2.994-2.994v-17.556c0-1.654 1.34-2.994 2.994-2.994h17.555c1.654 0 2.994 1.341 2.994 2.994v17.556c.001 1.654-1.339 2.994-2.993 2.994z" fill="#8ac5dc"/><path d="m200.448 226.735h-17.556c-2.478 0-4.494-2.016-4.494-4.494v-17.556c0-2.479 2.016-4.494 4.494-4.494h17.556c2.478 0 4.494 2.016 4.494 4.494v17.556c0 2.479-2.016 4.494-4.494 4.494zm-17.555-23.544c-.824 0-1.494.67-1.494 1.494v17.556c0 .824.67 1.494 1.494 1.494h17.556c.824 0 1.494-.67 1.494-1.494v-17.556c0-.824-.67-1.494-1.494-1.494z" fill="#3a312a"/><path d="m165.434 96.601c-4.687 0-8.487-3.8-8.487-8.487v-14.801c0-4.687 3.799-8.487 8.487-8.487 4.687 0 8.487 3.8 8.487 8.487v14.801c-.001 4.687-3.8 8.487-8.487 8.487z" fill="#ed6e7a"/><path d="m165.434 98.101c-5.506 0-9.986-4.479-9.986-9.986v-14.802c0-5.507 4.48-9.987 9.986-9.987 5.507 0 9.987 4.48 9.987 9.987v14.801c-.001 5.507-4.481 9.987-9.987 9.987zm0-31.775c-3.852 0-6.986 3.135-6.986 6.987v14.801c0 3.852 3.134 6.986 6.986 6.986s6.987-3.134 6.987-6.986v-14.801c-.001-3.852-3.135-6.987-6.987-6.987z" fill="#3a312a"/><path d="m119.434 96.601c-4.687 0-8.487-3.8-8.487-8.487v-14.801c0-4.687 3.799-8.487 8.487-8.487 4.687 0 8.487 3.8 8.487 8.487v14.801c-.001 4.687-3.8 8.487-8.487 8.487z" fill="#ed6e7a"/><path d="m119.434 98.101c-5.506 0-9.986-4.479-9.986-9.986v-14.802c0-5.507 4.48-9.987 9.986-9.987 5.507 0 9.987 4.48 9.987 9.987v14.801c-.001 5.507-4.481 9.987-9.987 9.987zm0-31.775c-3.852 0-6.986 3.135-6.986 6.987v14.801c0 3.852 3.134 6.986 6.986 6.986 3.853 0 6.987-3.134 6.987-6.986v-14.801c-.001-3.852-3.135-6.987-6.987-6.987z" fill="#3a312a"/><path d="m73.434 96.601c-4.687 0-8.487-3.8-8.487-8.487v-14.801c0-4.687 3.799-8.487 8.487-8.487 4.687 0 8.487 3.8 8.487 8.487v14.801c-.001 4.687-3.8 8.487-8.487 8.487z" fill="#ed6e7a"/><path d="m73.434 98.101c-5.506 0-9.986-4.479-9.986-9.986v-14.802c0-5.507 4.48-9.987 9.986-9.987 5.507 0 9.987 4.48 9.987 9.987v14.801c-.001 5.507-4.481 9.987-9.987 9.987zm0-31.775c-3.852 0-6.986 3.135-6.986 6.987v14.801c0 3.852 3.134 6.986 6.986 6.986 3.853 0 6.987-3.134 6.987-6.986v-14.801c-.001-3.852-3.135-6.987-6.987-6.987z" fill="#3a312a"/><path d="m239.5 70.244c0 29.772-24.134 53.907-53.907 53.907-29.769 0-53.905-24.134-53.905-53.907 0-29.771 24.136-53.906 53.905-53.906 29.773 0 53.907 24.135 53.907 53.906z" fill="#d6df58"/><path d="m185.593 125.65c-30.551 0-55.405-24.855-55.405-55.406s24.855-55.406 55.405-55.406c30.552 0 55.407 24.856 55.407 55.406 0 30.551-24.856 55.406-55.407 55.406zm0-107.812c-28.896 0-52.405 23.51-52.405 52.406s23.509 52.406 52.405 52.406c28.897 0 52.407-23.51 52.407-52.406s-23.51-52.406-52.407-52.406z" fill="#3a312a"/><path d="m228.484 70.244c0 23.688-19.202 42.891-42.892 42.891-23.686 0-42.89-19.202-42.89-42.891 0-23.687 19.204-42.89 42.89-42.89 23.69-.001 42.892 19.202 42.892 42.89z" fill="#8ac5dc"/><path d="m185.593 114.635c-24.477 0-44.39-19.913-44.39-44.391s19.913-44.391 44.39-44.391 44.392 19.913 44.392 44.391c-.001 24.478-19.915 44.391-44.392 44.391zm0-85.781c-22.822 0-41.39 18.567-41.39 41.391 0 22.823 18.567 41.391 41.39 41.391s41.392-18.567 41.392-41.391c-.001-22.824-18.569-41.391-41.392-41.391z" fill="#3a312a"/><g fill="#3a322b"><path d="m185.557 71.744c-.315 0-.63-.099-.896-.297l-12.015-8.947c-.665-.495-.802-1.435-.307-2.099.496-.665 1.435-.802 2.099-.308l11.117 8.279 25.435-19.015c.661-.498 1.603-.361 2.099.303s.36 1.604-.303 2.1l-26.331 19.685c-.266.2-.582.299-.898.299z"/><path d="m185.546 31.521c-.462 0-.837.375-.837.838v1.701c0 .463.375.837.837.837.463 0 .837-.375.837-.837v-1.701c0-.463-.375-.838-.837-.838z"/><path d="m185.546 105.59c-.462 0-.837.375-.837.838v1.701c0 .463.375.838.837.838.463 0 .837-.375.837-.838v-1.701c0-.463-.375-.838-.837-.838z"/><path d="m224.268 70.244c0-.462-.375-.837-.837-.837h-1.701c-.462 0-.837.375-.837.837 0 .463.375.838.837.838h1.701c.462-.001.837-.376.837-.838z"/><path d="m150.2 70.244c0-.462-.375-.837-.837-.837h-1.701c-.463 0-.837.375-.837.837 0 .463.375.838.837.838h1.701c.462-.001.837-.376.837-.838z"/><path d="m212.927 42.863c-.327-.327-.857-.327-1.184 0l-1.203 1.203c-.327.327-.327.857 0 1.184s.857.327 1.184 0l1.203-1.203c.327-.327.327-.857 0-1.184z"/><path d="m160.553 95.237c-.327-.327-.857-.327-1.185 0l-1.203 1.203c-.327.327-.327.857 0 1.185.327.327.857.327 1.184 0l1.203-1.203c.327-.327.327-.858.001-1.185z"/><path d="m212.927 97.625c.327-.327.327-.857 0-1.185l-1.203-1.203c-.327-.327-.857-.327-1.184 0s-.327.857 0 1.184l1.203 1.203c.326.328.857.328 1.184.001z"/><path d="m160.553 45.25c.327-.327.327-.857 0-1.184l-1.203-1.203c-.327-.327-.857-.327-1.184 0s-.327.857 0 1.185l1.203 1.203c.326.327.856.327 1.184-.001z"/></g><path d="m188.87 70.244c0 1.81-1.467 3.277-3.277 3.277-1.809 0-3.277-1.467-3.277-3.277s1.467-3.277 3.277-3.277 3.277 1.467 3.277 3.277z" fill="#867a70"/><path d="m185.593 75.021c-2.634 0-4.776-2.143-4.776-4.776 0-2.634 2.143-4.777 4.776-4.777 2.634 0 4.777 2.144 4.777 4.777.001 2.633-2.143 4.776-4.777 4.776zm0-6.554c-.98 0-1.776.797-1.776 1.777 0 .979.797 1.776 1.776 1.776.98 0 1.777-.797 1.777-1.776.001-.98-.797-1.777-1.777-1.777z" fill="#3a322b"/><path d="m205.867 121.798v105.43c0 6.03-4.91 10.93-10.94 10.93h15c6.03 0 10.94-4.9 10.94-10.93v-114.29c-4.47 3.69-9.53 6.7-15 8.86z" fill="#decaad"/></g></svg>