<svg xmlns="http://www.w3.org/2000/svg" width="51" height="51" viewBox="0 0 51 51">
  <g id="man" transform="translate(0)">
    <g id="Grupo_67" data-name="Grupo 67" transform="translate(0)">
      <g id="Grupo_66" data-name="Grupo 66">
        <path id="Trazado_120" data-name="Trazado 120" d="M51,25.5a25.383,25.383,0,0,1-4.912,15.047c-4.639,6.337-12.133,3.937-20.588,3.937s-15.949,2.4-20.588-3.937A25.5,25.5,0,1,1,51,25.5Z" transform="translate(0)" fill="#ef9b14"/>
      </g>
    </g>
    <path id="Trazado_121" data-name="Trazado 121" d="M69.9,110.464c8.455,0,15.949,2.4,20.588-3.937A25.383,25.383,0,0,0,95.4,91.481c0-.149,0-.3-.006-.447L77.639,73.28,60.036,87.9l3.6,3.628c.427,1.573,2.156,5.845,2.156,5.845L49.31,106.528h0C53.949,112.865,61.443,110.464,69.9,110.464Z" transform="translate(-44.398 -65.981)" fill="#db8200"/>
    <g id="Grupo_68" data-name="Grupo 68" transform="translate(4.912 2.938)">
      <path id="Trazado_122" data-name="Trazado 122" d="M172.246,300.33h16.685v4.35H172.246Z" transform="translate(-160 -273.353)" fill="#584b66"/>
      <path id="Trazado_123" data-name="Trazado 123" d="M256,300.33h8.342v4.35H256Z" transform="translate(-235.412 -273.353)" fill="#4a3e56"/>
      <path id="Trazado_124" data-name="Trazado 124" d="M199.97,260.488h11.162v11.838H199.97Z" transform="translate(-184.963 -237.479)" fill="#ffbb7d"/>
      <path id="Trazado_125" data-name="Trazado 125" d="M256,260.491h5.581v11.838H256Z" transform="translate(-235.412 -237.482)" fill="#efa36a"/>
      <path id="Trazado_126" data-name="Trazado 126" d="M134.563,332.292h24.193v11.385H134.563Z" transform="translate(-126.071 -302.131)" fill="#ffd4a6"/>
      <path id="Trazado_127" data-name="Trazado 127" d="M256,332.292h12.1v11.384H256Z" transform="translate(-235.412 -302.131)" fill="#ffbb7d"/>
      <path id="Trazado_128" data-name="Trazado 128" d="M90.487,339.738a25.5,25.5,0,0,1-41.177,0A7.69,7.69,0,0,1,57,332.29h7.321l5.581,5.35,5.581-5.35H82.8A7.687,7.687,0,0,1,90.487,339.738Z" transform="translate(-49.31 -302.129)" fill="#7b7284"/>
      <path id="Trazado_129" data-name="Trazado 129" d="M276.588,339.738A25.464,25.464,0,0,1,256,350.191V337.64l4.364-4.184,1.217-1.166H268.9A7.687,7.687,0,0,1,276.588,339.738Z" transform="translate(-235.412 -302.129)" fill="#635a6d"/>
      <path id="Trazado_130" data-name="Trazado 130" d="M165.624,77.107c-.394-5.981-5.232-8.191-9.325-8.191s-8.931,2.21-9.325,8.191a2.575,2.575,0,0,0-1.692,2.716l.181,2.555a2.113,2.113,0,0,0,2.3,1.911l.2-.021c2.339,6.282,6.008,6.937,8.337,7.3,2.329-.368,6-1.023,8.337-7.3l.2.021a2.113,2.113,0,0,0,2.3-1.911l.181-2.555A2.575,2.575,0,0,0,165.624,77.107Z" transform="translate(-135.71 -64.99)" fill="#ffd4a6"/>
      <path id="Trazado_131" data-name="Trazado 131" d="M267.019,79.823l-.181,2.555a2.113,2.113,0,0,1-2.3,1.911l-.2-.021a13.374,13.374,0,0,1-2.756,4.679A8.951,8.951,0,0,1,256,91.572V68.916c4.094,0,8.931,2.21,9.325,8.191A2.575,2.575,0,0,1,267.019,79.823Z" transform="translate(-235.413 -64.99)" fill="#ffbb7d"/>
      <path id="Trazado_132" data-name="Trazado 132" d="M182.617,197.96a3.049,3.049,0,0,0-3.95,0,7.459,7.459,0,0,1-4.53,1.77l-1.832.074.123.738a8.327,8.327,0,0,0,8.214,6.961,8.906,8.906,0,0,0,8.292-7.431l.045-.268-1.832-.074A7.459,7.459,0,0,1,182.617,197.96Z" transform="translate(-160.054 -180.526)" fill="#efebdc"/>
      <path id="Trazado_133" data-name="Trazado 133" d="M264.336,199.8l-.044.268A8.9,8.9,0,0,1,256,207.5V197.23a3.041,3.041,0,0,1,1.975.726,7.45,7.45,0,0,0,4.529,1.77Z" transform="translate(-235.412 -180.523)" fill="#d6cfbd"/>
      <path id="Trazado_134" data-name="Trazado 134" d="M145.463,300.33l8.343,8.534-4.171,4.482-7.134-9.832Z" transform="translate(-133.217 -273.353)" fill="#9d97a5"/>
      <path id="Trazado_135" data-name="Trazado 135" d="M264.343,300.33,256,308.864l4.171,4.482,7.134-9.832Z" transform="translate(-235.412 -273.353)" fill="#7f7887"/>
      <path id="Trazado_136" data-name="Trazado 136" d="M159.217,29.5s-5.394,5.257-4.277,10.445l.779,5.168h2.142l1.024-3.811A2.535,2.535,0,0,1,162,39.5q.2.055.388.123l.374.133a6.047,6.047,0,0,0,4.222-.09,5.957,5.957,0,0,1,.832-.256,2.544,2.544,0,0,1,3.022,1.823l1.042,3.878h2.142l.776-5.381C174.963,35.12,171.255,29.5,159.217,29.5Z" transform="translate(-144.281 -29.5)" fill="#494949"/>
      <path id="Trazado_137" data-name="Trazado 137" d="M265.927,44.208l-.776,5.381H263.01l-1.042-3.878a2.544,2.544,0,0,0-3.022-1.823,5.842,5.842,0,0,0-.832.256,6.215,6.215,0,0,1-2.114.425V34.47C263.581,35.94,266.064,40.415,265.927,44.208Z" transform="translate(-235.412 -33.975)" fill="#333"/>
    </g>
  </g>
</svg>
