<?xml version="1.0" encoding="UTF-8"?>
<!DOCTYPE svg PUBLIC "-//W3C//DTD SVG 1.1//EN" "http://www.w3.org/Graphics/SVG/1.1/DTD/svg11.dtd">
<!-- Creator: CorelDRAW Standard 2021 (64-Bit Versión de evaluación) -->
<svg xmlns="http://www.w3.org/2000/svg" xml:space="preserve" width="21.7256mm" height="21.7256mm" version="1.1" style="shape-rendering:geometricPrecision; text-rendering:geometricPrecision; image-rendering:optimizeQuality; fill-rule:evenodd; clip-rule:evenodd"
viewBox="0 0 2244.08 2244.08"
 xmlns:xlink="http://www.w3.org/1999/xlink"
 xmlns:xodm="http://www.corel.com/coreldraw/odm/2003">
 <defs>
  <style type="text/css">
   <![CDATA[
    .str0 {stroke:#E08C39;stroke-width:103.29;stroke-miterlimit:22.9256}
    .fil0 {fill:#071B2B}
    .fil1 {fill:white}
   ]]>
  </style>
 </defs>
 <g id="Capa_x0020_1">
  <metadata id="CorelCorpID_0Corel-Layer"/>
  <circle class="fil0 str0" cx="1122.04" cy="1122.04" r="1070.39"/>
  <path class="fil1" d="M714.29 1069.3l-53.61 2.52c-70.09,127.27 -72.33,372.78 -70.03,526.3l191.75 -0.8c-2.09,-132.35 18.84,-285.45 50.7,-413.07 32.9,-131.8 -10.59,-46.58 -12.47,-117.38 27.82,-11.91 181.7,-9.96 208.77,0 -1.02,32.23 -0.34,19.54 -30.83,43.3 41.3,160.76 70.95,314.04 69.13,488.02l72.26 0.37c21.41,36.5 20.82,60.27 50.14,84.97 89.09,75.05 239.56,13.25 265.32,-109.82 14.33,-68.46 -3.94,-206.82 4.72,-290.57 12,-116.19 102.36,-86.54 204.27,-91.1l7.09 -94.9c-396.1,-2.77 -280.8,164.05 -304.6,403.28 -5.79,58.32 -31.45,141.05 -107.54,113.48 -9.23,-60.65 17.09,-172.35 -21.17,-376.9 -52.79,-282.14 -80.98,-99.34 -111.21,-199.79 -8.38,-27.81 -14.34,-58.8 -24.3,-79.01l-356.09 0.01 -32.29 111.09z"/>
  <path class="fil1" d="M764.16 932.19c53.1,0.28 106.22,0.05 159.32,0.05 25.98,0 51.96,-0.05 77.93,0.2 12.42,0.11 32.05,0.97 43.7,0.17 17.12,-1.2 -0.8,0.99 16.93,-1.77l23.77 -6.02c2.18,-16.53 -37.36,-182.03 -45.44,-208.63 -7.23,-23.81 -13.07,-24.31 -18.63,-42.39 -8.01,-25.97 -3.78,-37.7 -7.71,-62.88 -5.53,-35.45 -24.81,-57.14 -59.62,-58.95 -4.18,80.64 -5.63,41.33 25.63,86.39 34.49,49.69 -3.79,59.04 -26.38,75.58l-0.66 67.13c19.31,16.5 53.64,29.82 33.18,70.57 -34.55,68.75 -164.91,23.31 -119.16,-39.75 18.69,-25.75 18.13,-4.48 27.63,-32.99 5.53,-16.59 1.79,-51 1.88,-70.24 -27.78,-10.7 -51.04,-26.47 -33.09,-65.15 23.68,-51.04 41.15,2.1 31.88,-93.63 -73.53,23.62 -56.34,73.41 -63.82,114.74 -2.19,12.06 -31.45,73.64 -44.52,151.37 -8.24,49.05 -26,68.02 -22.81,116.2z"/>
 </g>
</svg>
