<svg xmlns="http://www.w3.org/2000/svg" width="8.046" height="14.22" viewBox="0 0 8.046 14.22">
  <path id="Icon_metro-money" data-name="Icon metro-money" d="M15.021,12.668c-1.793-.466-2.37-.944-2.37-1.695,0-.861.794-1.465,2.133-1.465,1.406,0,1.928.672,1.975,1.659H18.5a3.145,3.145,0,0,0-2.536-3.01V6.427H13.6V8.133c-1.533.336-2.765,1.323-2.765,2.852,0,1.825,1.513,2.733,3.713,3.263,1.979.474,2.37,1.165,2.37,1.908,0,.541-.383,1.41-2.133,1.41-1.627,0-2.271-.731-2.354-1.659H10.688A3.317,3.317,0,0,0,13.6,18.932v1.714h2.37v-1.7c1.537-.3,2.765-1.185,2.765-2.808,0-2.236-1.92-3-3.713-3.472Z" transform="translate(-10.688 -6.427)" fill="#04487e"/>
</svg>
