<svg id="Flat" height="512" viewBox="0 0 512 512" width="512" xmlns="http://www.w3.org/2000/svg"><path d="m72 448.828-24 23.172-24-23.172v-424.828h336v424.828l-24 23.172-24-23.172-24 23.172-24-23.172-24 23.172-24-23.172-24 23.172-24-23.172-24 23.172-24-23.172-24 23.172z" fill="#e9eef2"/><circle cx="72" cy="136" fill="#bd620e" r="16"/><circle cx="192" cy="136" fill="#ffb632" r="72"/><path d="m192 128a8 8 0 1 1 8-8 8 8 0 0 0 16 0 24.039 24.039 0 0 0 -16-22.624v-1.376a8 8 0 0 0 -16 0v1.376a24 24 0 0 0 8 46.624 8 8 0 1 1 -8 8 8 8 0 0 0 -16 0 24.039 24.039 0 0 0 16 22.624v1.376a8 8 0 0 0 16 0v-1.376a24 24 0 0 0 -8-46.624z" fill="#bd620e"/><g fill="#9aa3a8"><path d="m232 248h-160a8 8 0 0 1 0-16h160a8 8 0 0 1 0 16z"/><path d="m232 280h-160a8 8 0 0 1 0-16h160a8 8 0 0 1 0 16z"/><path d="m232 312h-160a8 8 0 0 1 0-16h160a8 8 0 0 1 0 16z"/><path d="m232 344h-160a8 8 0 0 1 0-16h160a8 8 0 0 1 0 16z"/><path d="m312 344h-32a8 8 0 0 1 0-16h32a8 8 0 0 1 0 16z"/><path d="m232 376h-160a8 8 0 0 1 0-16h160a8 8 0 0 1 0 16z"/><path d="m312 376h-32a8 8 0 0 1 0-16h32a8 8 0 0 1 0 16z"/><path d="m232 408h-160a8 8 0 0 1 0-16h160a8 8 0 0 1 0 16z"/><path d="m312 408h-32a8 8 0 0 1 0-16h32a8 8 0 0 1 0 16z"/></g><path d="m422.317 376a8 8 0 0 1 -7.2-4.5l-22.817-46.819a8 8 0 1 1 14.383-7.01l22.817 46.829a8 8 0 0 1 -7.183 11.5z" fill="#2d85cc"/><path d="m479.079 485.815a16 16 0 0 1 -21.392-7.374l-51.549-107.107 28.762-14.018 51.55 107.107a16 16 0 0 1 -7.371 21.392z" fill="#1261a0"/><path d="m448.78 386.15-28.76 14.02-13.88-28.84 28.76-14.01z" fill="#a3d4f7"/><circle cx="312" cy="136" fill="#bd620e" r="16"/><circle cx="368" cy="240" fill="#e9eef2" r="88"/><path d="m368.037 136a104 104 0 1 0 104 104 104 104 0 0 0 -104-104zm-.024 176.024a72 72 0 1 1 72-72 72 72 0 0 1 -72 72z" fill="#1261a0"/></svg>