<?xml version="1.0" encoding="UTF-8"?>
<!DOCTYPE svg PUBLIC "-//W3C//DTD SVG 1.1//EN" "http://www.w3.org/Graphics/SVG/1.1/DTD/svg11.dtd">
<!-- Creator: CorelDRAW Standard 2021 (64-Bit Versión de evaluación) -->
<svg xmlns="http://www.w3.org/2000/svg" xml:space="preserve" width="21.7256mm" height="21.7256mm" version="1.1" style="shape-rendering:geometricPrecision; text-rendering:geometricPrecision; image-rendering:optimizeQuality; fill-rule:evenodd; clip-rule:evenodd"
viewBox="0 0 372.9 372.9"
 xmlns:xlink="http://www.w3.org/1999/xlink"
 xmlns:xodm="http://www.corel.com/coreldraw/odm/2003">
 <defs>
  <style type="text/css">
   <![CDATA[
    .str0 {stroke:#E08C39;stroke-width:17.16;stroke-miterlimit:22.9256}
    .fil0 {fill:#071B2B}
    .fil1 {fill:white}
   ]]>
  </style>
 </defs>
 <g id="Capa_x0020_1">
  <metadata id="CorelCorpID_0Corel-Layer"/>
  <circle class="fil0 str0" cx="186.45" cy="186.45" r="177.87"/>
  <path class="fil1" d="M114.77 119.51c2.23,3.87 3.62,3.51 6.09,7.55l-10.67 10.19c-4.41,-3.88 -4.4,-5.83 -9.91,-5.49l-1.97 3.23c1.94,4.99 2.55,4.3 7.09,7.83 12.78,9.94 9.37,15.78 28.85,17.33 12.26,0.97 12.77,4.76 19.02,11.01 4.71,4.71 11.01,10.24 14.77,14.76 -9.48,7.91 -21.02,20.41 -30.02,29.73 -10.75,11.14 -11.77,3.67 -20.43,9.81 -3.79,2.69 -10.01,11.34 -14.3,15.15l4.92 5.62c8.13,-5.01 4.08,-8.3 13.58,-10.51 2.02,3.03 2.46,2.9 4.46,6.33 -2.88,5.89 -5.09,5.93 -10.54,11.51 2.6,4.79 10.62,13.86 15.61,16.56 4.57,-2.51 12.49,-10.86 15.53,-15.49 6,-9.13 -2.11,-9.45 9.53,-20.63 6.86,-6.59 24.48,-26.25 31.06,-29.41 9.97,9.67 18.94,18.76 29.05,28.53 10.58,10.24 3.21,10.84 9.67,19.15 3.88,4.98 10.52,11.93 15.96,14.77l26.92 -26.44 -16.32 -18.83c-15.81,-0.01 -10.5,3.23 -27.31,-14.82 -6.91,-7.41 -13.31,-13.85 -20.04,-20.87 3.54,-5.38 8.59,-8.82 13.31,-13.53 30.08,-30.08 13.88,-1.53 35.57,-21.98 5.16,-4.86 9.71,-9.33 15.14,-13.46 -3.63,-5.55 -11.75,-12.98 -16.45,-18.12 -5.58,-6.1 -11.55,-15.51 -19.09,-18.41 -11.61,13.75 -22.99,20.85 -22.91,33.46 0.09,13.89 -2.14,12.13 -9.68,19.62 -5.03,5 -8.98,11.25 -15.91,13.7 -6.01,-7.32 -24.56,-22.86 -27.06,-31.45 -3.93,-13.45 -0.77,-10.66 -9.23,-19.53 -4.8,-5.02 -10.52,-10.44 -14.25,-15.81 -6.53,3.3 -15.07,13.96 -20.03,18.93z"/>
 </g>
</svg>
