<?xml version="1.0" encoding="UTF-8"?>
<!DOCTYPE svg PUBLIC "-//W3C//DTD SVG 1.1//EN" "http://www.w3.org/Graphics/SVG/1.1/DTD/svg11.dtd">
<!-- Creator: CorelDRAW Standard 2021 (64-Bit Versión de evaluación) -->
<svg xmlns="http://www.w3.org/2000/svg" xml:space="preserve" width="21.7256mm" height="21.7256mm" version="1.1" style="shape-rendering:geometricPrecision; text-rendering:geometricPrecision; image-rendering:optimizeQuality; fill-rule:evenodd; clip-rule:evenodd"
viewBox="0 0 1628.83 1628.83"
 xmlns:xlink="http://www.w3.org/1999/xlink"
 xmlns:xodm="http://www.corel.com/coreldraw/odm/2003">
 <defs>
  <style type="text/css">
   <![CDATA[
    .str0 {stroke:#E08C39;stroke-width:74.97;stroke-miterlimit:22.9256}
    .fil0 {fill:#071B2B}
    .fil1 {fill:white}
   ]]>
  </style>
 </defs>
 <g id="Capa_x0020_1">
  <metadata id="CorelCorpID_0Corel-Layer"/>
  <circle class="fil0 str0" cx="814.41" cy="814.41" r="776.93"/>
  <path class="fil1" d="M652.97 951.66c-29.31,-69.14 -20.12,-63.13 51.28,-103.79 47.06,-26.8 53.79,-38.81 74.42,-26.38 -1.45,20.28 -100.25,120.16 -125.7,130.18zm-16.57 25.2l-29.28 29.17c-31.98,-15.29 -51.07,-45.19 -79.52,-64.86 11.42,-30.58 23.4,-30.8 41.38,-52.37 14.58,-17.49 22.9,-33.36 38.72,-49.78 38.36,-39.8 55.45,-53.82 84.55,-95.79 19.96,8.33 43.74,29.66 52.07,50 -35.79,25.67 -81.14,42.25 -112.1,64.44 -58.46,41.92 -9.89,85.99 4.19,119.18zm57.48 -363.57c-61.92,-12.62 -46.19,2.1 -125.95,98.28l-107.48 131.27c-10.04,11.97 -28.07,31.33 -37.53,44.62 -19.63,27.56 -9.92,28.89 4.27,50.35 -7.11,18.85 -8.73,11.64 -16.52,31.44l19.94 24.28c-40.85,50.22 -58.9,106.1 -48.75,193.36l111.65 2.11c0.72,-48.87 5.35,-89.91 28.8,-120.88 16.78,8.6 12.34,14.14 39.41,22.66 16.32,-11.4 7.59,-13.56 22.62,-19.15 17.54,-6.52 4.09,9.77 34.05,-6.96 15.32,-8.55 34.15,-31.83 47.44,-47.7 43.42,-51.87 166.85,-139.6 179.23,-199.18 14.49,-69.72 -25.35,-112.99 -60.12,-134.49 10.95,-39.81 39.84,-54.75 73.97,-76.79 39.11,-25.27 68.39,-26.62 119.61,-19.29 12.78,-33.77 84.51,-103.91 82.65,-129.46 -109.87,-16.39 -235.44,-1.52 -311.84,76.68 -20.27,20.74 -45.67,43.69 -55.44,78.85z"/>
  <path class="fil1" d="M979.59 739.79c15.2,17.45 18.5,31.72 29.31,52.54 36.33,70.01 117,20.96 128.05,5.09 -11.15,26.94 -49,72.53 -97.7,52.46 -37.43,-15.42 -57.92,-57.89 -59.66,-110.09zm86.76 -213.78l-108.73 185.74c-39.6,87.57 24.64,170.38 106.86,171.98 83.42,1.61 152.05,-82.46 111.59,-170.68 -12.99,-28.3 -93.39,-168.94 -109.72,-187.04z"/>
 </g>
</svg>
