<?xml version="1.0" encoding="UTF-8"?>
<!DOCTYPE svg PUBLIC "-//W3C//DTD SVG 1.1//EN" "http://www.w3.org/Graphics/SVG/1.1/DTD/svg11.dtd">
<!-- Creator: CorelDRAW Standard 2021 (64-Bit Versión de evaluación) -->
<svg xmlns="http://www.w3.org/2000/svg" xml:space="preserve" width="21.7256mm" height="21.7256mm" version="1.1" style="shape-rendering:geometricPrecision; text-rendering:geometricPrecision; image-rendering:optimizeQuality; fill-rule:evenodd; clip-rule:evenodd"
viewBox="0 0 396.91 396.91"
 xmlns:xlink="http://www.w3.org/1999/xlink"
 xmlns:xodm="http://www.corel.com/coreldraw/odm/2003">
 <defs>
  <style type="text/css">
   <![CDATA[
    .str0 {stroke:#E08C39;stroke-width:18.27;stroke-miterlimit:22.9256}
    .fil0 {fill:#071B2B}
    .fil1 {fill:white}
   ]]>
  </style>
 </defs>
 <g id="Capa_x0020_1">
  <metadata id="CorelCorpID_0Corel-Layer"/>
  <circle class="fil0 str0" cx="198.45" cy="198.45" r="189.32"/>
  <path class="fil1" d="M99.44 204.88l8.3 -0.86 0.62 15.64 -9.03 -0.37 0.12 -14.4zm58.17 -15.36c-0.45,-7.3 5.68,-10.4 9.23,-15.39 4.51,-6.34 4.04,-9.43 14.69,-9.43l24.54 0.48c3.35,5.42 1.9,18.1 0.95,24.46l-49.4 -0.12zm-62.91 32.31c28.89,4.32 28.31,-8.18 43.23,-0.34 7.79,4.09 10.9,10.12 13.47,19.68l87.64 0.16c5.97,-30.06 44.63,-29.45 48.92,0.06 20.89,-0.23 19.77,3.43 19.98,-23.42 -3.5,-3.01 -10.08,-6.75 -14.57,-9.49 -9.39,-5.71 -8.6,-5.2 -21.56,-5.09 -16.61,0.14 -34.96,0.66 -51.41,-0.12 -1.56,-10.93 0.03,-26.53 -0.3,-37.77 -0.33,-11.18 3.81,-8.26 -41.73,-8.26 -7.62,0 -8.35,0.5 -12.63,5 -44.93,47.2 -28.61,18.99 -59.7,33.71 -10.02,4.74 -14.64,5.91 -11.34,25.87z"/>
  <path class="fil1" d="M223.23 197.58l40.47 0.18c1.54,-12.03 -1.47,-3.7 -3.7,-11.93l26.39 -36.33 -1.98 24.37c-1.35,3.5 -5.35,4.56 -4.69,13.02 1.23,15.76 20.55,18.36 23.42,-1.87 -13.73,1.24 -2.32,6.62 -14.74,6.6 -6.87,-10.6 0.53,-7.14 4.21,-19.16 2.23,-7.29 -0.71,7.2 0.66,-2.54 0.84,-5.98 -2.49,-4.93 -1.94,-21.13 0.4,-11.57 4.08,-7.51 2.89,-20.34 -14.29,-5.12 -18.18,2.6 -23.98,9.65 -2.73,3.32 -4.64,6.13 -7.82,9.1 -4.82,4.5 -5.37,4.62 -9.15,9.15 -12.91,15.45 -30.52,28.48 -30.03,41.23z"/>
  <path class="fil1" d="M270.71 251.74c-18.78,5.73 -22.18,-10.73 -15.41,-16.7 7.85,-6.92 24.51,-0.71 15.41,16.7zm-13.92 -28.24c-26.98,8.7 -13.49,49.32 13.78,39.04 25.08,-9.46 11.88,-47.31 -13.78,-39.04z"/>
  <path class="fil1" d="M123.72 232.95c15.98,-6.64 20.25,16.34 9.2,20.67 -7.38,2.89 -13.68,-0.48 -15.4,-5.77 -2.89,-8.87 0.96,-12.71 6.2,-14.89zm-1.76 -9.45c-25.81,8.84 -13.01,47.95 12.54,39.4 24.16,-8.07 12.77,-48.07 -12.54,-39.4z"/>
  <path class="fil1" d="M108.34 226.59l-21.12 -0.03c0.15,8.79 2.22,15.76 10.52,16.69 7.24,0.8 9.16,-10.26 10.6,-16.66z"/>
  <path class="fil1" d="M188.13 145.8l-0.24 6.13c5.62,3.45 11.08,2.11 19.06,2.11l-0.06 -8.24 -13.28 -1.55c-4.97,0.61 2.24,-0.69 -2.87,0.54l-2.61 1.02z"/>
 </g>
</svg>
