<?xml version="1.0" encoding="UTF-8"?>
<!DOCTYPE svg PUBLIC "-//W3C//DTD SVG 1.1//EN" "http://www.w3.org/Graphics/SVG/1.1/DTD/svg11.dtd">
<!-- Creator: CorelDRAW Standard 2021 (64-Bit Versión de evaluación) -->
<svg xmlns="http://www.w3.org/2000/svg" xml:space="preserve" width="21.7256mm" height="21.7256mm" version="1.1" style="shape-rendering:geometricPrecision; text-rendering:geometricPrecision; image-rendering:optimizeQuality; fill-rule:evenodd; clip-rule:evenodd"
viewBox="0 0 609.85 609.85"
 xmlns:xlink="http://www.w3.org/1999/xlink"
 xmlns:xodm="http://www.corel.com/coreldraw/odm/2003">
 <defs>
  <style type="text/css">
   <![CDATA[
    .str0 {stroke:#E08C39;stroke-width:28.07;stroke-miterlimit:22.9256}
    .fil0 {fill:#071B2B}
    .fil1 {fill:white}
   ]]>
  </style>
 </defs>
 <g id="Capa_x0020_1">
  <metadata id="CorelCorpID_0Corel-Layer"/>
  <circle class="fil0 str0" cx="304.92" cy="304.92" r="290.89"/>
  <path class="fil1" d="M264.96 270.42c-6.24,-6.91 -3.99,-10.61 11.77,-22 5.31,5.55 8.51,6.9 15.75,13.96l48.07 39.52 -13.86 18.17c-5.36,-2.69 -2.61,-0.14 -6.69,-4.72l7.99 -11.3c-5.15,-5.76 -43.76,-40.99 -51.99,-44.44 -3.03,3.05 -2.33,3.18 -4.8,5.88 -4.48,4.9 -0.68,2.52 -6.25,4.93zm53.57 -89.53c32.13,-14.26 89.98,28.18 78.19,66.71 -24.04,5.68 -15.41,-20.91 -35.95,-37.03 -19.07,-14.97 -46.28,-4.36 -42.25,-29.68zm-61.9 101.97c-4.7,6.09 -2.36,3.56 -8.41,6.42l4.64 14.53c-2.2,1.97 -5.52,4.7 -7.11,7.14 -5.23,8 -13.69,20.52 -14.63,29.8l-13.36 0.72c-1.41,12.08 -0.34,9.25 -7.08,13.58 -4.24,2.72 0.91,-2.3 -4.46,2.89 -0.51,0.49 -2.74,3.61 -3.04,4.28 -2.71,6.1 -0.59,0.04 -1.31,5.54 -0.45,3.46 -0.15,10.12 -0.28,14.05 -29.31,8.51 -25.29,18.61 -29.65,50 0.58,-0.4 1.36,-1.8 1.63,-1.34 0.26,0.45 1.22,-1 1.58,-1.34l22.35 -25.47c4.77,-6.28 7.1,-8.12 11.51,-14.41l49.29 -58.9c6.87,-8.27 4.27,-11.21 14.41,-14.08 -0.64,10.78 -11.63,20.29 -21.79,32.55l-71.15 92.08 38.7 -14.61 5.54 -24.22c8.45,-3.66 15.09,-2.57 20.2,-7.96 0.62,-0.66 1.92,-2.79 2.61,-4.32 5.25,-11.64 -1.48,-9.81 12.56,-12.22l-1.87 -13.22c5.9,-3.31 8.75,-3.84 13.77,-9.72 0.34,-0.4 0.7,-1 1.02,-1.4 9.93,-12.23 10.43,-4.15 16.06,-18.96l13.83 1.79 6.66 -10.9c49.68,27 69.25,-9.19 100.44,-48.62 43.5,-54.98 24.98,-69.4 -18.87,-105.03 -13.12,-10.66 -51.49,-49.41 -84.09,-19.19l-57.9 69.28c-13.48,22.32 -4.74,48.42 8.22,61.24z"/>
 </g>
</svg>
