<svg xmlns="http://www.w3.org/2000/svg" width="403.214" height="385.869" viewBox="0 0 403.214 385.869">
  <g id="Grupo_174" data-name="Grupo 174" transform="translate(-100.945 -235.176)">
    <rect id="Rectángulo_54" data-name="Rectángulo 54" width="403.214" height="385.869" rx="88.779" transform="translate(100.945 235.176)" fill="#102135"/>
    <g id="Grupo_166" data-name="Grupo 166">
      <path id="Trazado_283" data-name="Trazado 283" d="M156.408,548.677c-16.136-4.619-26.4-16.761-29.79-29.533-1.646-5.942-2.783-6.552-3.718-16.845a44.381,44.381,0,0,0-8.318-22.985,5.731,5.731,0,0,1-1.468-4.519,1.561,1.561,0,0,1,1.619-1.387,14.861,14.861,0,0,1,5.992,1.22,29.3,29.3,0,0,1,7.844,4.638,20.854,20.854,0,0,1,5.66,7.773c2.624,5.9,5.165,11.837,7.972,17.655,2.41,4.994,4.824,10.482,9.026,14.338,2.022,1.856,5.057,4.6,7.685,5.581,5.933,2.21,13.707,2.831,19.309.555,8.222-3.34,14.827-13.928,13.864-22.51a26.685,26.685,0,0,0-4.47-12.7c-4.78-7.069-15.637-14.4-21.57-20.565-1.187-1.233-1.076-1.842.4-2.8,4.162-2.7,5.958-6.479,5.275-11.276a11.315,11.315,0,0,0-8.565-9.032,10.64,10.64,0,0,0-6.925.486c-1.627.689-2.449.152-2.432-1.533a14.345,14.345,0,0,1,.078-2.034,5.728,5.728,0,0,0-1.833-5.271,7.829,7.829,0,0,1-.765-.835,23.721,23.721,0,0,1-5.01-18.413c2.406-17.313,23.03-26.727,38.527-17.573,15.1,8.919,16.818,28.9,3.431,39.964-2.653,2.192-6.153,17.327-2.123,20.147,5.483,3.837,10.871,7.769,15.456,12.623,1.151,1.217,2.474,2.291,3.56,3.555,1.562,1.817,2.941,3.777,4.467,5.624a33.69,33.69,0,0,1,4.867,8.2,38.026,38.026,0,0,1,2.372,21.7,43.281,43.281,0,0,1-15.793,27.4c-10.183,8.269-16.779,10.329-30.87,10.447A66.445,66.445,0,0,1,156.408,548.677Z" fill="#fff"/>
      <path id="Trazado_284" data-name="Trazado 284" d="M166.325,451.9c4.04,4.662,1.865,12.078-3.912,13.362a1.5,1.5,0,0,0-.906.792c-1.5,3.506-2.945,7.039-4.428,10.555-1.114,2.644-2.28,5.264-3.388,7.911-.766,1.83-1.436,3.7-2.231,5.52a1.737,1.737,0,0,1-1.087.983c-.306.043-.853-.513-1.08-.917-1.357-2.418-2.64-4.876-3.975-7.307a2.937,2.937,0,0,1-.138-2.712c2.5-5.975,5-11.949,7.456-17.943a2.2,2.2,0,0,0-.025-1.524,8.121,8.121,0,0,1,12.54-9.781C165.57,451.156,165.935,451.546,166.325,451.9Zm-10.1,9.037a5.435,5.435,0,1,0,.249-7.817A5.576,5.576,0,0,0,156.221,460.939Z" fill="#fff"/>
    </g>
    <g id="Grupo_167" data-name="Grupo 167">
      <path id="Trazado_285" data-name="Trazado 285" d="M263.925,364.343a31.6,31.6,0,0,1,16.026-4.026v23.676H273.99q-10.629,0-16.024,4.992t-5.4,17.4v44.451H230.022V361.606H252.57v13.85A31.74,31.74,0,0,1,263.925,364.343Z" fill="#fff"/>
      <path id="Trazado_286" data-name="Trazado 286" d="M297.995,348.5a13.224,13.224,0,0,1,0-18.844,14.857,14.857,0,0,1,19.811,0,13.224,13.224,0,0,1,0,18.844,14.854,14.854,0,0,1-19.811,0Zm21.018,14.415v89.225H296.465V362.919Z" fill="#fff"/>
      <path id="Trazado_287" data-name="Trazado 287" d="M374.407,364.263a36.355,36.355,0,0,1,17.475-4.106,39.037,39.037,0,0,1,20.7,5.636,39.7,39.7,0,0,1,14.656,16.025q5.394,10.388,5.4,24.078a52.5,52.5,0,0,1-5.4,24.239,40.6,40.6,0,0,1-14.656,16.347,38.206,38.206,0,0,1-20.7,5.8,36.027,36.027,0,0,1-17.314-4.026,37.116,37.116,0,0,1-12.16-10.146V493.35H339.86V361.606h22.548V374.49A34.262,34.262,0,0,1,374.407,364.263Zm31.89,27.7a22.892,22.892,0,0,0-8.7-8.939,23.3,23.3,0,0,0-11.677-3.06,22.524,22.524,0,0,0-11.516,3.14,23.293,23.293,0,0,0-8.7,9.1,31.372,31.372,0,0,0,0,28.024,23.266,23.266,0,0,0,8.7,9.1,22.729,22.729,0,0,0,23.193-.08,23.922,23.922,0,0,0,8.7-9.181,28.837,28.837,0,0,0,3.3-14.173A28.036,28.036,0,0,0,406.3,391.965Z" fill="#fff"/>
    </g>
    <ellipse id="Elipse_34" data-name="Elipse 34" cx="40.129" cy="42.443" rx="40.129" ry="42.443" transform="translate(123.291 366.97) rotate(-7.314)" fill="#fff"/>
    <ellipse id="Elipse_35" data-name="Elipse 35" cx="23.595" cy="23.602" rx="23.595" ry="23.602" transform="translate(141.879 382.31) rotate(-7.314)" fill="#102135"/>
    <path id="Trazado_288" data-name="Trazado 288" d="M206.771,392.27l-12.566-.788-8.521-30.265,24.849-.011Z" fill="#fff"/>
    <g id="Grupo_168" data-name="Grupo 168">
      <path id="Trazado_289" data-name="Trazado 289" d="M454.433,407.714a27.677,27.677,0,0,0,13.025,3.785c7.014,0,10.354-3.451,10.354-8.016,0-4.676-2.783-7.125-9.908-9.8-9.8-3.563-14.362-8.8-14.362-15.253,0-8.683,7.125-15.809,18.592-15.809,5.456,0,10.243,1.448,13.137,3.34l-2.337,7.126a20.877,20.877,0,0,0-11.022-3.229c-5.789,0-8.907,3.34-8.907,7.348,0,4.453,3.118,6.457,10.131,9.24,9.241,3.452,14.139,8.127,14.139,16.143,0,9.575-7.459,16.255-20.039,16.255a30.713,30.713,0,0,1-15.141-3.786Z" fill="#fff" stroke="#fff" stroke-miterlimit="10" stroke-width="2.651"/>
    </g>
    <g id="Grupo_169" data-name="Grupo 169">
      <path id="Trazado_290" data-name="Trazado 290" d="M453.38,360.359,441.4,374.4h-6.088l8.641-14.041Z" fill="#fff"/>
    </g>
  </g>
</svg>
