<svg xmlns="http://www.w3.org/2000/svg" width="58.825" height="58.825" viewBox="0 0 58.825 58.825">
  <g id="Grupo_136" data-name="Grupo 136" transform="translate(-237.125 -232)">
    <circle id="Elipse_30" data-name="Elipse 30" cx="24.5" cy="24.5" r="24.5" transform="translate(241.125 238.125)" fill="#fff"/>
    <path id="Icon_awesome-check-circle" data-name="Icon awesome-check-circle" d="M59.387,29.975A29.412,29.412,0,1,1,29.975.563,29.412,29.412,0,0,1,59.387,29.975ZM26.573,45.548,48.395,23.726a1.9,1.9,0,0,0,0-2.684l-2.684-2.684a1.9,1.9,0,0,0-2.684,0l-17.8,17.8-8.309-8.309a1.9,1.9,0,0,0-2.684,0l-2.684,2.684a1.9,1.9,0,0,0,0,2.684L23.889,45.548A1.9,1.9,0,0,0,26.573,45.548Z" transform="translate(236.563 231.438)" fill="#09882f"/>
  </g>
</svg>
