<svg xmlns="http://www.w3.org/2000/svg" width="14.303" height="14.328" viewBox="0 0 14.303 14.328">
  <path id="Icon_feather-phone-call" data-name="Icon feather-phone-call" d="M8.211,4.037A3.172,3.172,0,0,0,5.705,6.543M8.211,1.5A5.709,5.709,0,0,0,3.168,6.536M3.8,11.6v1.9A1.269,1.269,0,0,0,5.185,14.77a12.553,12.553,0,0,0,5.474-1.947,12.369,12.369,0,0,0,3.806-3.806,12.553,12.553,0,0,0,1.947-5.5A1.269,1.269,0,0,0,15.15,2.134h-1.9a1.269,1.269,0,0,0-1.269,1.091,8.144,8.144,0,0,1-.444,1.782,1.269,1.269,0,0,0,.285,1.338l.806.806a10.149,10.149,0,0,1-3.806,3.806l-.806-.806a1.269,1.269,0,0,0-1.338-.285,8.144,8.144,0,0,1-1.782.444A1.269,1.269,0,0,0,3.8,11.6Z" transform="translate(-2.615 -0.948)" fill="none" stroke="#fff" stroke-linecap="round" stroke-linejoin="round" stroke-width="1"/>
</svg>
