<svg xmlns="http://www.w3.org/2000/svg" width="10" height="54.778" viewBox="0 0 10 54.778">
  <path id="Icon_material-location-on" data-name="Icon material-location-on" d="M12.5,3a5,5,0,0,0-5,5c0,3.75,5,9.286,5,9.286s5-5.536,5-9.286A5,5,0,0,0,12.5,3Zm0,6.786A1.786,1.786,0,1,1,14.286,8,1.786,1.786,0,0,1,12.5,9.786Z" transform="translate(-7.5 -3)" fill="#04487e"/>
  <path id="Icon_awesome-map-pin" data-name="Icon awesome-map-pin" d="M3.889,11v5.441l.765,1.147a.417.417,0,0,0,.693,0l.764-1.147V11a5.863,5.863,0,0,1-2.222,0ZM5,0a5,5,0,1,0,5,5A5,5,0,0,0,5,0ZM5,2.639A2.364,2.364,0,0,0,2.639,5a.417.417,0,0,1-.833,0A3.2,3.2,0,0,1,5,1.806a.417.417,0,0,1,0,.833Z" transform="translate(10 54.778) rotate(180)" fill="#f49101"/>
  <line id="Line_24" data-name="Line 24" y2="17" transform="translate(5 16.5)" fill="none" stroke="#f49101" stroke-linecap="round" stroke-width="1" stroke-dasharray="2 3"/>
</svg>
