<?xml version="1.0" encoding="UTF-8"?>
<!DOCTYPE svg PUBLIC "-//W3C//DTD SVG 1.1//EN" "http://www.w3.org/Graphics/SVG/1.1/DTD/svg11.dtd">
<!-- Creator: CorelDRAW Standard 2021 (64-Bit Versión de evaluación) -->
<svg xmlns="http://www.w3.org/2000/svg" xml:space="preserve" width="21.7256mm" height="21.7256mm" version="1.1" style="shape-rendering:geometricPrecision; text-rendering:geometricPrecision; image-rendering:optimizeQuality; fill-rule:evenodd; clip-rule:evenodd"
viewBox="0 0 677.02 677.02"
 xmlns:xlink="http://www.w3.org/1999/xlink"
 xmlns:xodm="http://www.corel.com/coreldraw/odm/2003">
 <defs>
  <style type="text/css">
   <![CDATA[
    .str0 {stroke:#E08C39;stroke-width:31.16;stroke-miterlimit:22.9256}
    .fil0 {fill:#071B2B}
    .fil1 {fill:white}
   ]]>
  </style>
 </defs>
 <g id="Capa_x0020_1">
  <metadata id="CorelCorpID_0Corel-Layer"/>
  <circle class="fil0 str0" cx="338.51" cy="338.51" r="322.93"/>
  <path class="fil1" d="M154.15 349.98c-2.06,-7.06 -3.39,-20.41 3.23,-21.89 9.92,-2.23 6.57,14.15 6.23,22.19l-9.46 -0.31zm83.88 -41.89c0.56,-2.17 17.41,-35.22 36.29,-35.22 39.48,0 39.84,-6.42 35.45,35.04l-71.74 0.17zm104.1 31.6c1.79,-0.22 10.73,0.04 13.15,0.08l120.2 0.5c7.87,0 15.71,0.01 23.57,0.1 3.27,0.03 9.97,0.19 12.95,-0.21l8.66 -2.61c-0.73,-12.92 -0.16,-10.19 -16.17,-9.98l-174.97 -0.09 -0.78 -66.21c-13.13,-1.71 -58.54,-3.46 -68.77,1.39 -3.35,1.59 -30,28.96 -34.8,33.5 -21.65,20.5 -20.25,4.34 -53,17.5 -26.27,10.56 -25.47,10.89 -24.68,41.18 45.34,10.64 62.23,-28.58 85.97,28.86l202.55 0.09c6.44,-15.43 14.53,-34.87 41.15,-31.83 34.09,3.88 18.64,31.42 43.4,31.74l-1.12 -40.28 -188.71 0.36 11.39 -4.09z"/>
  <path class="fil1" d="M385.7 253.47l29.72 0.72 5.53 21.21 -41.61 -2.93 6.35 -19.01zm-50.84 19.01c5.1,14.79 10.67,36.16 20.45,47.81l165.2 -0.21 11.98 -34.86 -100.86 -7.21 -6.67 -15.42c-1.36,-4.79 -2.89,-9.91 -4.33,-13.84l-38.71 0.61c-3.86,7.09 -7.68,16.18 -11.38,25.11l-35.66 -2z"/>
  <path class="fil1" d="M461.75 398.34c-7.87,-22.94 10.15,-31.87 21.07,-21.11 10.84,10.7 3.03,29.6 -21.07,21.11zm-20 -3.31c7.56,37.18 71.35,28.57 62.28,-15.2 -3.15,-15.19 -20.14,-27.02 -38.28,-23.46 -15.34,3.02 -27.94,19.26 -24,38.66z"/>
  <path class="fil1" d="M207.36 398.6c-22.25,6.94 -34.31,-8.69 -21.49,-21.47 12.98,-12.94 28.02,-0.37 21.49,21.47zm-42.33 -3.57c7.69,36.67 71.96,28.72 62.14,-15.24 -8.15,-36.47 -71.32,-28.5 -62.14,15.24z"/>
  <path class="fil1" d="M168 362.85l-31.34 1.3c0.41,16.22 6.86,20.2 22.41,19.84l8.92 -21.15z"/>
  <polygon class="fil1" points="282.85,256.6 311.02,256.44 310.53,240.81 282.88,241.73 "/>
 </g>
</svg>
