<svg xmlns="http://www.w3.org/2000/svg" width="14.29" height="14.29" viewBox="0 0 14.29 14.29">
  <path id="Icon_awesome-route" data-name="Icon awesome-route" d="M11.611,8.931H8.931a.893.893,0,0,1,0-1.786h2.679S14.29,4.159,14.29,2.679a2.679,2.679,0,0,0-5.359,0A5.888,5.888,0,0,0,10.2,5.359H8.931a2.679,2.679,0,0,0,0,5.359h2.679a.893.893,0,1,1,0,1.786H5.177a19.269,19.269,0,0,1-1.32,1.786h7.753a2.679,2.679,0,1,0,0-5.359Zm0-7.145a.893.893,0,1,1-.893.893A.892.892,0,0,1,11.611,1.786ZM2.679,7.145A2.68,2.68,0,0,0,0,9.824C0,11.3,2.679,14.29,2.679,14.29S5.359,11.3,5.359,9.824A2.68,2.68,0,0,0,2.679,7.145Zm0,3.572a.893.893,0,1,1,.893-.893A.892.892,0,0,1,2.679,10.717Z" fill="#04487e"/>
</svg>
