<svg xmlns="http://www.w3.org/2000/svg" width="200.607" height="199.85" viewBox="0 0 200.607 199.85">
  <g id="Grupo_91" data-name="Grupo 91" transform="translate(-1943.698 -1052.11)">
    <g id="Grupo_78" data-name="Grupo 78" transform="translate(1944.057 1091.42)">
      <g id="Grupo_77" data-name="Grupo 77">
        <path id="Trazado_147" data-name="Trazado 147" d="M95.271,142.752v-2.917H90.809a3.982,3.982,0,1,1,0-7.964h3.847a10.438,10.438,0,0,0-9.82-6.9H70.723L58.989,104.017a5.326,5.326,0,0,0-4.642-2.722H16.4a5.353,5.353,0,0,0-5.2,4.177L5.65,130.087v12.478A6.151,6.151,0,0,0,7.071,154.7h3.374a14.613,14.613,0,0,1,29.225,0H62.828a14.613,14.613,0,0,1,29.225,0h1.166a6.15,6.15,0,0,0,2.052-11.949ZM29.972,125h-17l3.912-17.782H29.972ZM47.66,135.753H41.309a2.613,2.613,0,0,1,0-5.227h6.352a2.613,2.613,0,1,1,0,5.227ZM36.284,125V107.223H53.991L63.929,125Z" transform="translate(-0.917 -101.295)" fill="#f49101"/>
      </g>
    </g>
    <g id="Grupo_80" data-name="Grupo 80" transform="translate(2061.649 1097.674)">
      <g id="Grupo_79" data-name="Grupo 79">
        <path id="Trazado_148" data-name="Trazado 148" d="M339.2,121.642a8.586,8.586,0,0,0-7.483-4.385h-25.9a4.778,4.778,0,0,0-4.778,4.778c0,41.68.013,43.457.013,43.6a9.153,9.153,0,0,1,9.553,4.08l4.668-.758,8.856-10.5a23.128,23.128,0,0,1,3.1-3.032H310.6V126.813h20.546l7.3,13.03a16.855,16.855,0,0,1,5.039-10.557Z" transform="translate(-301.044 -117.257)" fill="#071b2b"/>
      </g>
    </g>
    <path id="Trazado_149" data-name="Trazado 149" d="M120.787,124.728a12.163,12.163,0,0,1-10.179-20.96,9.207,9.207,0,0,1,2.7-6.38V42.181a4.776,4.776,0,0,0-1.415-3.393L75.137,2.356a4.8,4.8,0,0,0-8.154,3.393v17.64A2.614,2.614,0,0,0,69.6,26a3.219,3.219,0,1,1-3.218,3.219,2.613,2.613,0,1,0-5.227,0A8.445,8.445,0,1,0,72.21,21.19V12.907l31.547,31.265v58.789H78.225a9.386,9.386,0,1,0-2.685,0h-49.7a9.386,9.386,0,1,0-2.685,0H4.434A4.434,4.434,0,0,0,0,107.4v14.7a4.434,4.434,0,0,0,4.434,4.434H21.3a23.841,23.841,0,0,1,46.1,0h68.4a23.676,23.676,0,0,1,1.708-4.518ZM20.7,93.682a3.8,3.8,0,1,1,3.8,3.8A3.8,3.8,0,0,1,20.7,93.682Zm52.383,0a3.8,3.8,0,1,1,3.8,3.8A3.8,3.8,0,0,1,73.081,93.682Z" transform="translate(1943.698 1051.144)" fill="#071b2b"/>
    <g id="Grupo_84" data-name="Grupo 84" transform="translate(1972.92 1168.635)">
      <g id="Grupo_83" data-name="Grupo 83">
        <path id="Trazado_150" data-name="Trazado 150" d="M89.713,298.369a15.13,15.13,0,1,0,15.13,15.13A15.13,15.13,0,0,0,89.713,298.369Zm0,21.259a6.129,6.129,0,1,1,6.129-6.129A6.129,6.129,0,0,1,89.713,319.628Z" transform="translate(-74.583 -298.369)" fill="#071b2b"/>
      </g>
    </g>
    <g id="Grupo_86" data-name="Grupo 86" transform="translate(2087.416 1171.042)">
      <g id="Grupo_85" data-name="Grupo 85">
        <path id="Trazado_151" data-name="Trazado 151" d="M366.808,317.235a15.114,15.114,0,0,0,6.946,12.723V304.512A15.116,15.116,0,0,0,366.808,317.235Z" transform="translate(-366.808 -304.512)" fill="#071b2b"/>
      </g>
    </g>
    <g id="Grupo_88" data-name="Grupo 88" transform="translate(2056.906 1137.193)">
      <g id="Grupo_87" data-name="Grupo 87">
        <path id="Trazado_152" data-name="Trazado 152" d="M376.337,231.382a13.316,13.316,0,0,0-13.28-13.263H334.431a16.533,16.533,0,0,0-12.665,5.887L311.35,236.358l-11.611,1.885-1.922-3.54a2.634,2.634,0,0,0-4.63,2.514l1.043,1.92-.561.091a5.633,5.633,0,1,0,1.805,11.12l19.739-3.2a5.631,5.631,0,0,0,3.4-1.929s9.691-11.138,13.155-14.6a.677.677,0,0,1,1.155.479l0,95.031a6.76,6.76,0,0,0,13.519,0V272.1h2.919v54.028a6.76,6.76,0,0,0,13.519,0l-.12-94.674a1.178,1.178,0,0,1,1.15-1.179,1.148,1.148,0,0,1,1.172,1.123v41.382a5.577,5.577,0,0,0,5.552,5.647h.014a5.676,5.676,0,0,0,5.682-5.619V231.382Z" transform="translate(-288.938 -218.119)" fill="#04487e"/>
      </g>
    </g>
    <g id="Grupo_90" data-name="Grupo 90" transform="translate(2104.201 1110.122)">
      <g id="Grupo_89" data-name="Grupo 89">
        <circle id="Elipse_18" data-name="Elipse 18" cx="11.674" cy="11.674" r="11.674" fill="#04487e"/>
      </g>
    </g>
  </g>
</svg>
