<svg height="472pt" viewBox="0 0 472.36881 472" width="472pt" xmlns="http://www.w3.org/2000/svg"><path d="m232.367188 288.519531h240v112h-240zm0 0" fill="#00ccb3"/><path d="m376.367188 344.519531c0 13.253907-10.742188 24-24 24-13.253907 0-24-10.746093-24-24 0-13.257812 10.746093-24 24-24 13.257812 0 24 10.742188 24 24zm0 0" fill="#ffd422"/><path d="m472.367188 328.519531v-40h-40c0 22.089844 17.910156 40 40 40zm0 0" fill="#00b8a1"/><path d="m432.367188 400.519531h40v-40c-22.089844 0-40 17.90625-40 40zm0 0" fill="#00b8a1"/><path d="m272.367188 288.519531h-40v40c22.09375 0 40-17.910156 40-40zm0 0" fill="#00b8a1"/><path d="m232.367188 360.519531v40h40c0-22.09375-17.90625-40-40-40zm0 0" fill="#00b8a1"/><path d="m472.367188 400.519531h-240v24h240zm0 0" fill="#00a691"/><path d="m232.367188 424.519531h240v24h-240zm0 0" fill="#009583"/><path d="m232.367188 448.519531h240v24h-240zm0 0" fill="#007769"/><path d="m209.808594 40.519531c-31.390625-29.394531-76.121094-39.730469-117.222656-27.078125-41.101563 12.648438-72.285157 46.339844-81.71875 88.296875-9.433594 41.960938 4.328124 85.753907 36.0625 114.78125 31.390624 29.394531 76.121093 39.726563 117.222656 27.078125 41.101562-12.648437 72.285156-46.34375 81.71875-88.300781 9.429687-41.957031-4.328125-85.753906-36.0625-114.777344zm0 0" fill="#00ccb3"/><g fill="#ff6243"><path d="m304.367188 120.519531h16v16h-16zm0 0"/><path d="m272.367188 120.519531h16v16h-16zm0 0"/><path d="m336.367188 120.519531h16v16h-16zm0 0"/><path d="m368.367188 120.519531h16v16h-16zm0 0"/><path d="m368.367188 152.519531h16v16h-16zm0 0"/><path d="m368.367188 184.519531h16v16h-16zm0 0"/><path d="m368.367188 216.519531h16v16h-16zm0 0"/><path d="m368.367188 248.519531h16v16h-16zm0 0"/><path d="m192.367188 368.519531h16v16h-16zm0 0"/><path d="m160.367188 368.519531h16v16h-16zm0 0"/><path d="m128.367188 368.519531h16v16h-16zm0 0"/><path d="m128.367188 336.519531h16v16h-16zm0 0"/><path d="m128.367188 304.519531h16v16h-16zm0 0"/><path d="m128.367188 272.519531h16v16h-16zm0 0"/></g><path d="m215.257812 34.671875c-33.484374-31.316406-81.171874-42.316406-124.988281-28.828125-43.816406 13.488281-77.0625 49.398438-87.140625 94.121094-10.078125 44.726562 4.554688 91.425781 38.351563 122.402344 33.484375 31.316406 81.167969 42.3125 124.988281 28.824218 43.816406-13.488281 77.0625-49.394531 87.140625-94.121094 10.078125-44.726562-4.554687-91.421874-38.351563-122.398437zm-198.472656 85.847656c1.875-25.894531 12.710938-50.328125 30.648438-69.097656 5.792968 4.761719 11.996094 9.003906 18.535156 12.671875-5.714844 18.285156-8.867188 37.273438-9.375 56.425781zm119.582032 72.375c11.792968.824219 23.375 3.527344 34.3125 8-8.679688 20.160157-20.800782 34.238281-34.3125 38.320313zm0-16v-40.375h47.792968c-.539062 16.699219-3.226562 33.257813-8 49.269531-12.699218-5.082031-26.136718-8.085937-39.792968-8.894531zm0-56.375v-40.378906c13.652343-.808594 27.082031-3.8125 39.777343-8.894531 4.773438 16.011718 7.460938 32.574218 8 49.273437zm-16-56.378906c-11.789063-.824219-23.371094-3.523437-34.308594-8 8.679687-20.160156 20.796875-34.238281 34.308594-38.320313zm16 0v-46.285156c13.523437 4.078125 25.601562 18.160156 34.3125 38.320312-10.941407 4.460938-22.523438 7.148438-34.3125 7.964844zm34.785156-39.0625c9.4375 3.910156 18.285156 9.105469 26.296875 15.441406-3.921875 3.09375-8.054688 5.914063-12.359375 8.445313-3.667969-8.492188-8.347656-16.515625-13.9375-23.886719zm-99.503906 23.886719c-4.308594-2.53125-8.441407-5.355469-12.367188-8.445313 8.015625-6.335937 16.867188-11.535156 26.304688-15.449219-5.589844 7.378907-10.265626 15.402344-13.9375 23.894532zm8.945312 22.28125c12.695312 5.082031 26.125 8.085937 39.773438 8.894531v40.378906h-47.789063c.542969-16.703125 3.238281-33.261719 8.015625-49.273437zm39.773438 65.273437v40.375c-13.648438.808594-27.078126 3.8125-39.773438 8.894531-4.773438-16.011718-7.460938-32.570312-8-49.269531zm0 56.375v46.289063c-13.519532-4.082032-25.597657-18.160156-34.308594-38.320313 10.941406-4.464843 22.523437-7.152343 34.308594-7.96875zm-34.78125 39.0625c-9.4375-3.90625-18.285157-9.105469-26.296876-15.4375 3.921876-3.09375 8.050782-5.917969 12.359376-8.449219 3.667968 8.496094 8.347656 16.515626 13.9375 23.886719zm99.503906-23.886719c4.308594 2.535157 8.441406 5.355469 12.367187 8.449219-8.015625 6.335938-16.867187 11.535157-26.304687 15.445313 5.589844-7.375 10.269531-15.398438 13.9375-23.894532zm5.71875-15.128906c5.699218-18.285156 8.84375-37.273437 9.335937-56.421875h39.808594c-1.875 25.894531-12.710937 50.324219-30.648437 69.09375-5.78125-4.761719-11.96875-9-18.496094-12.671875zm49.144531-72.421875h-39.808594c-.492187-19.148437-3.636719-38.136719-9.335937-56.425781 6.527344-3.671875 12.714844-7.910156 18.496094-12.671875 17.941406 18.765625 28.777343 43.199219 30.648437 69.097656zm-223.199219 16h39.839844c.507812 19.148438 3.660156 38.136719 9.375 56.421875-6.527344 3.671875-12.714844 7.910156-18.496094 12.671875-17.957031-18.761719-28.808594-43.195312-30.6875-69.09375zm0 0" fill="#009583"/></svg>