<svg xmlns="http://www.w3.org/2000/svg" width="38" height="38" viewBox="0 0 38 38">
  <g id="Grupo_162" data-name="Grupo 162" transform="translate(-1367 -6016)">
    <circle id="Elipse_33" data-name="Elipse 33" cx="19" cy="19" r="19" transform="translate(1367 6016)" fill="#fff"/>
    <path id="Icon_awesome-chevron-circle-right" data-name="Icon awesome-chevron-circle-right" d="M16.563.563a16,16,0,1,1-16,16A16,16,0,0,1,16.563.563Zm7.348,14.9L15.169,6.724a1.542,1.542,0,0,0-2.187,0l-1.1,1.1a1.542,1.542,0,0,0,0,2.187l6.555,6.555-6.555,6.555a1.542,1.542,0,0,0,0,2.187l1.1,1.1a1.542,1.542,0,0,0,2.187,0l8.742-8.742A1.55,1.55,0,0,0,23.911,15.466Z" transform="translate(1369.438 6018.438)" fill="#1661ac"/>
  </g>
</svg>
