<svg xmlns="http://www.w3.org/2000/svg" xmlns:xlink="http://www.w3.org/1999/xlink" width="59.458" height="65.626" viewBox="0 0 59.458 65.626">
  <defs>
    <filter id="Trazado_257" x="0" y="0" width="59.458" height="65.626" filterUnits="userSpaceOnUse">
      <feOffset dy="4" input="SourceAlpha"/>
      <feGaussianBlur stdDeviation="3" result="blur"/>
      <feFlood flood-opacity="0.51"/>
      <feComposite operator="in" in2="blur"/>
      <feComposite in="SourceGraphic"/>
    </filter>
  </defs>
  <g id="Componente_21_1" data-name="Componente 21 – 1" transform="translate(9 5)">
    <ellipse id="Elipse_25" data-name="Elipse 25" cx="8.201" cy="3.519" rx="8.201" ry="3.519" transform="translate(12.447 48.962)" fill="#22e0e6"/>
    <g transform="matrix(1, 0, 0, 1, -9, -5)" filter="url(#Trazado_257)">
      <g id="Trazado_257-2" data-name="Trazado 257" transform="translate(9 5)" fill="#224f72">
        <path d="M 20.70732688903809 46.62642288208008 C 20.4527645111084 46.62153244018555 19.25032424926758 46.19786834716797 16.7512035369873 44.31621170043945 C 14.51849365234375 42.63515090942383 12.09040355682373 40.41999053955078 9.914203643798828 38.07880401611328 C 7.334293842315674 35.30327224731445 5.174513816833496 32.41884231567383 3.66835355758667 29.73734283447266 C 1.897763609886169 26.58506202697754 1.000003576278687 23.70747184753418 1.000003576278687 21.18450164794922 C 1.000003576278687 18.45650291442871 1.522503614425659 15.81082248687744 2.552993535995483 13.32095241546631 C 3.547963619232178 10.91690254211426 4.972203731536865 8.757992744445801 6.786173820495605 6.904182434082031 C 8.598663330078125 5.051882266998291 10.70853328704834 3.597922325134277 13.05719375610352 2.582702398300171 C 15.48678398132324 1.532502412796021 18.0679931640625 1.000002384185791 20.72913360595703 1.000002384185791 C 23.39027404785156 1.000002384185791 25.97149276733398 1.532502412796021 28.40107345581055 2.582702398300171 C 30.74973297119141 3.597922325134277 32.85961532592773 5.051882266998291 34.67209243774414 6.904182434082031 C 36.48606491088867 8.757992744445801 37.91030502319336 10.91690254211426 38.9052734375 13.32095241546631 C 39.93576431274414 15.81082248687744 40.4582633972168 18.45650291442871 40.4582633972168 21.18450164794922 C 40.4582633972168 23.71116256713867 39.55707550048828 26.58843231201172 37.77972412109375 29.73638153076172 C 36.27066421508789 32.40915298461914 34.1039924621582 35.28752136230469 31.5139331817627 38.0603141784668 C 29.34067344665527 40.38689422607422 26.90835380554199 42.59944152832031 24.66504287719727 44.29037094116211 C 22.16352272033691 46.17593002319336 20.96163940429688 46.61561584472656 20.70732688903809 46.62642288208008 Z" stroke="none"/>
        <path d="M 20.72913360595703 2.000003814697266 C 15.73462295532227 2.000003814697266 11.03675270080566 3.99005126953125 7.500923156738281 7.603561401367188 C 5.776714324951172 9.365642547607422 4.422874450683594 11.41791152954102 3.476982116699219 13.70336151123047 C 2.496932983398438 16.07137298583984 2.000003814697266 18.58839225769043 2.000003814697266 21.18450164794922 C 2.000003814697266 23.47727203369141 2.815261840820312 26.11929321289062 4.423145294189453 29.03717231750488 C 5.829563140869141 31.58946228027344 7.863193511962891 34.35202026367188 10.30418395996094 37.02619171142578 C 12.37228393554688 39.29185104370117 14.71649360656738 41.47551345825195 16.90499305725098 43.17492294311523 C 19.02485847473145 44.8210334777832 20.25414085388184 45.44024658203125 20.69960784912109 45.59703826904297 C 21.14573669433594 45.43488311767578 22.37388801574707 44.80713653564453 24.49477386474609 43.16164398193359 C 26.69444274902344 41.45502090454102 29.04520416259766 39.27401351928711 31.11403274536133 37.02038192749023 C 33.56773376464844 34.34750366210938 35.61073303222656 31.58874320983887 37.02217483520508 29.04233169555664 C 38.63864517211914 26.12599182128906 39.4582633972168 23.48224258422852 39.4582633972168 21.18450164794922 C 39.4582633972168 18.58839225769043 38.96133422851562 16.07137298583984 37.98128509521484 13.70336151123047 C 37.03539276123047 11.41791152954102 35.68155288696289 9.365642547607422 33.95735168457031 7.603561401367188 C 30.42151260375977 3.99005126953125 25.7236442565918 2.000003814697266 20.72913360595703 2.000003814697266 M 20.72913360595703 3.814697265625e-06 C 32.17752456665039 3.814697265625e-06 41.4582633972168 9.484622955322266 41.4582633972168 21.18450164794922 C 41.4582633972168 32.88438415527344 23.73798370361328 47.55792236328125 20.72913360595703 47.62620162963867 C 17.72046089172363 47.69448089599609 3.814697265625e-06 32.88438415527344 3.814697265625e-06 21.18450164794922 C 3.814697265625e-06 9.484622955322266 9.280754089355469 3.814697265625e-06 20.72913360595703 3.814697265625e-06 Z" stroke="none" fill="#22e0e6"/>
      </g>
    </g>
    <g id="Grupo_107" data-name="Grupo 107" transform="translate(5.576 11.285)">
      <path id="Trazado_18" data-name="Trazado 18" d="M76.883,133.43l1.175-.108.087,1.955-1.28-.046.016-1.8Zm8.237-1.92c-.065-.913.8-1.3,1.306-1.924.638-.793.574-1.179,2.08-1.179l3.475.06c.474.679.268,2.263.134,3.059l-7-.015Zm-8.908,4.039c4.09.54,4.008-1.022,6.122-.042a3.411,3.411,0,0,1,1.907,2.46l12.411.02c.846-3.757,6.319-3.682,6.927.008,2.957-.029,2.8.429,2.83-2.928a18.58,18.58,0,0,0-2.063-1.185c-1.329-.714-1.217-.65-3.053-.637-2.352.017-4.95.083-7.279-.015a43.018,43.018,0,0,1-.044-4.723c-.047-1.4.539-1.033-5.909-1.033-1.079,0-1.182.063-1.789.625-6.362,5.9-4.05,2.374-8.453,4.215-1.417.593-2.073.739-1.606,3.234Z" transform="translate(-76.064 -123.855)" fill="#fff" fill-rule="evenodd"/>
      <path id="Trazado_19" data-name="Trazado 19" d="M181.31,111.83l5.06.022c.192-1.5-.183-.463-.463-1.492l3.3-4.542-.248,3.048c-.169.437-.67.57-.586,1.629.154,1.97,2.569,2.3,2.928-.234-1.716.155-.289.828-1.843.825-.859-1.325.066-.893.526-2.4.279-.911-.089.9.082-.317.1-.748-.312-.616-.242-2.641.049-1.447.509-.939.36-2.543-1.786-.64-2.272.325-3,1.207a10.556,10.556,0,0,1-.977,1.138,9.211,9.211,0,0,0-1.144,1.144c-1.615,1.932-3.816,3.56-3.754,5.155Z" transform="translate(-162.187 -102.981)" fill="#fff" fill-rule="evenodd"/>
      <path id="Trazado_20" data-name="Trazado 20" d="M200.206,184.247c-2.347.716-2.772-1.341-1.927-2.087C199.26,181.294,201.344,182.07,200.206,184.247Zm-1.741-3.531a2.59,2.59,0,1,0,1.722,4.881A2.59,2.59,0,0,0,198.465,180.716Z" transform="translate(-175.07 -169.021)" fill="#fff" fill-rule="evenodd"/>
      <path id="Trazado_21" data-name="Trazado 21" d="M89.579,181.862c2-.83,2.532,2.043,1.15,2.583a1.386,1.386,0,0,1-1.926-.722A1.3,1.3,0,0,1,89.579,181.862Zm-.22-1.182c-3.226,1.105-1.627,5.994,1.567,4.926C93.946,184.6,92.522,179.6,89.359,180.68Z" transform="translate(-85.123 -168.985)" fill="#fff" fill-rule="evenodd"/>
      <path id="Trazado_22" data-name="Trazado 22" d="M73.49,184.013l-2.64,0c.018,1.1.277,1.97,1.315,2.086C73.07,186.2,73.31,184.813,73.49,184.013Z" transform="translate(-70.729 -171.881)" fill="#fff" fill-rule="evenodd"/>
      <path id="Trazado_23" data-name="Trazado 23" d="M152.639,117.345l-.029.767c.7.431,1.385.263,2.383.263l-.008-1.03-1.661-.194c-.622.077.28-.086-.359.066Z" transform="translate(-139.05 -114.94)" fill="#fff" fill-rule="evenodd"/>
    </g>
  </g>
</svg>
