<svg xmlns="http://www.w3.org/2000/svg" xmlns:xlink="http://www.w3.org/1999/xlink" width="59.303" height="66.981" viewBox="0 0 59.303 66.981">
  <defs>
    <filter id="Trazado_257" x="0" y="1.533" width="59.303" height="65.448" filterUnits="userSpaceOnUse">
      <feOffset dy="4" input="SourceAlpha"/>
      <feGaussianBlur stdDeviation="3" result="blur"/>
      <feFlood flood-opacity="0.51"/>
      <feComposite operator="in" in2="blur"/>
      <feComposite in="SourceGraphic"/>
    </filter>
  </defs>
  <g id="Componente_21_1" data-name="Componente 21 – 1" transform="translate(9)">
    <ellipse id="Elipse_25" data-name="Elipse 25" cx="8.17" cy="3.506" rx="8.17" ry="3.506" transform="translate(12.4 55.312)" fill="#09882f"/>
    <g transform="matrix(1, 0, 0, 1, -9, 0)" filter="url(#Trazado_257)">
      <g id="Trazado_257-2" data-name="Trazado 257" transform="translate(9 6.53)" fill="#224f72">
        <path d="M 20.62971878051758 46.44810104370117 C 20.37559700012207 46.44276809692383 19.1772289276123 46.01974487304688 16.68841934204102 44.14555358886719 C 14.46422004699707 42.47062301635742 12.04557991027832 40.26385498046875 9.878039360046387 37.93175506591797 C 7.308429718017578 35.16705322265625 5.157310009002686 32.2939453125 3.657249689102173 29.62305450439453 C 1.89402973651886 26.48357391357422 0.9999997615814209 23.61775398254395 0.9999997615814209 21.10518455505371 C 0.9999997615814209 18.38789367675781 1.520449757575989 15.75259399414062 2.546889781951904 13.2725133895874 C 3.537949800491333 10.87791347503662 4.956599712371826 8.727483749389648 6.763439655303955 6.880953788757324 C 8.56879997253418 5.035933494567871 10.67037010192871 3.587693691253662 13.00978946685791 2.576473712921143 C 15.4298095703125 1.530403614044189 18.0008602142334 1.000003695487976 20.65151977539062 1.000003695487976 C 23.30217933654785 1.000003695487976 25.87322998046875 1.530403614044189 28.29324913024902 2.576473712921143 C 30.63266944885254 3.587693691253662 32.7342414855957 5.035933494567871 34.53960037231445 6.880953788757324 C 36.34643936157227 8.727483749389648 37.76509094238281 10.87791347503662 38.75614929199219 13.2725133895874 C 39.78258895874023 15.75259399414062 40.30303955078125 18.38789367675781 40.30303955078125 21.10518455505371 C 40.30303955078125 23.6214427947998 39.40559005737305 26.48696327209473 37.6356086730957 29.62214279174805 C 36.13264846801758 32.28435516357422 33.97465133666992 35.15143203735352 31.3949089050293 37.91341400146484 C 29.23027038574219 40.23097229003906 26.80741882324219 42.43513488769531 24.5726490020752 44.1198844909668 C 22.08114433288574 45.99817657470703 20.88338088989258 46.43699645996094 20.62971878051758 46.44810104370117 Z" stroke="none"/>
        <path d="M 20.65151977539062 2.000003814697266 C 15.6777400970459 2.000003814697266 10.99935913085938 3.981803894042969 7.478179931640625 7.580333709716797 C 5.7611083984375 9.335124969482422 4.412860870361328 11.37891387939453 3.470878601074219 13.65492248535156 C 2.494880676269531 16.01315307617188 2 18.51977348327637 2 21.10518455505371 C 2 23.38776397705078 2.811668395996094 26.01826286315918 4.412460327148438 28.92361450195312 C 5.81298828125 31.46548271179199 7.838199615478516 34.21687316894531 10.26914978027344 36.88033294677734 C 12.32883071899414 39.13700485229492 14.66370010375977 41.31222534179688 16.84364891052246 43.00528335571289 C 18.95269775390625 44.64327621459961 20.17701148986816 45.26105117797852 20.62207221984863 45.41833877563477 C 21.06786918640137 45.25566482543945 22.29110908508301 44.6293830871582 24.40102958679199 42.99212265014648 C 26.59210968017578 41.29188537597656 28.93352890014648 39.11930465698242 30.99394989013672 36.87460327148438 C 33.43758010864258 34.21242523193359 35.47212982177734 31.46480369567871 36.87765884399414 28.92877388000488 C 38.48701858520508 26.02495384216309 39.30303955078125 23.39271354675293 39.30303955078125 21.10518455505371 C 39.30303955078125 18.51977348327637 38.80815887451172 16.01315307617188 37.83216094970703 13.65492248535156 C 36.89017868041992 11.37891387939453 35.54193115234375 9.335124969482422 33.82485961914062 7.580333709716797 C 30.30368041992188 3.981803894042969 25.62529945373535 2.000003814697266 20.65151977539062 2.000003814697266 M 20.65151977539062 3.814697265625e-06 C 32.05704116821289 3.814697265625e-06 41.30303955078125 9.449111938476562 41.30303955078125 21.10518455505371 C 41.30303955078125 32.76125335693359 23.64909934997559 47.37985229492188 20.65151977539062 47.44787216186523 C 17.65409088134766 47.51590728759766 0 32.76125335693359 0 21.10518455505371 C 0 9.449111938476562 9.245998382568359 3.814697265625e-06 20.65151977539062 3.814697265625e-06 Z" stroke="none" fill="#0fb741"/>
      </g>
    </g>
    <g id="Grupo_107" data-name="Grupo 107" transform="translate(5.556 17.776)">
      <path id="Trazado_18" data-name="Trazado 18" d="M76.88,133.407l1.171-.107.087,1.948-1.275-.046.016-1.794Zm8.206-1.912c-.064-.909.8-1.294,1.3-1.917.636-.79.571-1.175,2.072-1.175l3.462.06c.472.676.267,2.254.134,3.047l-6.971-.015Zm-8.874,4.024c4.075.538,3.993-1.018,6.1-.041a3.4,3.4,0,0,1,1.9,2.451l12.364.02c.842-3.743,6.295-3.668,6.9.008,2.946-.029,2.788.428,2.819-2.917a18.507,18.507,0,0,0-2.055-1.181c-1.324-.712-1.212-.647-3.042-.635-2.343.017-4.931.083-7.252-.015a42.854,42.854,0,0,1-.043-4.7c-.047-1.392.537-1.029-5.887-1.029-1.075,0-1.178.063-1.782.623-6.338,5.878-4.035,2.365-8.421,4.2-1.412.59-2.065.736-1.6,3.222Z" transform="translate(-76.064 -123.868)" fill="#fff" fill-rule="evenodd"/>
      <path id="Trazado_19" data-name="Trazado 19" d="M181.31,111.8l5.041.021c.192-1.5-.182-.462-.462-1.486l3.288-4.525-.247,3.036c-.169.436-.667.567-.584,1.622.153,1.963,2.559,2.286,2.917-.233-1.71.155-.288.825-1.836.822-.856-1.32.066-.889.524-2.386.278-.908-.089.9.081-.316.1-.745-.311-.613-.241-2.632.049-1.442.508-.935.359-2.533-1.779-.638-2.264.324-2.986,1.2a10.516,10.516,0,0,1-.974,1.133,9.178,9.178,0,0,0-1.139,1.139c-1.609,1.925-3.8,3.547-3.74,5.136Z" transform="translate(-162.259 -102.981)" fill="#fff" fill-rule="evenodd"/>
      <path id="Trazado_20" data-name="Trazado 20" d="M200.193,184.233c-2.339.713-2.762-1.336-1.92-2.079C199.25,181.292,201.326,182.065,200.193,184.233Zm-1.734-3.518a2.58,2.58,0,1,0,1.716,4.863A2.58,2.58,0,0,0,198.459,180.715Z" transform="translate(-175.151 -169.064)" fill="#fff" fill-rule="evenodd"/>
      <path id="Trazado_21" data-name="Trazado 21" d="M89.571,181.857c1.991-.827,2.523,2.035,1.146,2.573a1.381,1.381,0,0,1-1.918-.719A1.292,1.292,0,0,1,89.571,181.857Zm-.219-1.178c-3.214,1.1-1.621,5.972,1.561,4.907C93.922,184.581,92.5,179.6,89.352,180.679Z" transform="translate(-85.133 -169.028)" fill="#fff" fill-rule="evenodd"/>
      <path id="Trazado_22" data-name="Trazado 22" d="M73.48,184.013l-2.63,0c.018,1.095.276,1.963,1.31,2.078C73.061,186.188,73.3,184.81,73.48,184.013Z" transform="translate(-70.729 -171.926)" fill="#fff" fill-rule="evenodd"/>
      <path id="Trazado_23" data-name="Trazado 23" d="M152.639,117.344l-.029.764c.7.429,1.38.262,2.374.262l-.008-1.026-1.655-.193c-.62.077.279-.086-.357.066Z" transform="translate(-139.101 -114.948)" fill="#fff" fill-rule="evenodd"/>
    </g>
    <path id="Icon_material-check-circle" data-name="Icon material-check-circle" d="M9.324,3a6.324,6.324,0,1,0,6.324,6.324A6.326,6.326,0,0,0,9.324,3ZM8.059,12.486,4.9,9.324l.892-.892L8.059,10.7l4.8-4.8.892.9Z" transform="translate(26.013 -3)" fill="#09882f"/>
  </g>
</svg>
