<svg xmlns="http://www.w3.org/2000/svg" width="91.793" height="91.925" viewBox="0 0 91.793 91.925">
  <g id="Grupo_97" data-name="Grupo 97" transform="translate(-2112 -1625.001)">
    <path id="Trazado_164" data-name="Trazado 164" d="M39.677,26.015s1.384,5.142,5.37,5.38c0,0-5.321,1.838-5.411,5.768,0,0-1.047-5.512-5.25-5.71,0,0,4.894-.742,5.29-5.438Z" transform="translate(2085.487 1603.526)" fill="#fff"/>
    <path id="Trazado_166" data-name="Trazado 166" d="M20.242,42.995s.979,3.637,3.8,3.805c0,0-3.764,1.3-3.827,4.08,0,0-.741-3.9-3.713-4.039,0,0,3.462-.524,3.742-3.846Z" transform="translate(2096.109 1593.442)" fill="#fff"/>
    <path id="Trazado_168" data-name="Trazado 168" d="M20.242,16.338s.979,3.637,3.8,3.806c0,0-3.764,1.3-3.827,4.08,0,0-.741-3.9-3.713-4.039,0,0,3.462-.525,3.742-3.847Z" transform="translate(2096.109 1609.272)" fill="#fff"/>
    <path id="Trazado_170" data-name="Trazado 170" d="M16.5,120.88v19.986a5.052,5.052,0,0,0,5.052,5.052H95.064a5.052,5.052,0,0,0,5.052-5.052V86.852A5.052,5.052,0,0,0,95.064,81.8H21.552A5.052,5.052,0,0,0,16.5,86.852V120.88Z" transform="translate(2096.109 1570.398)" fill="#fff"/>
    <path id="Trazado_171" data-name="Trazado 171" d="M94.174,145.636H20.661A5.667,5.667,0,0,1,15,139.975V119.99a.609.609,0,1,1,1.218,0v19.986a4.448,4.448,0,0,0,4.443,4.443H94.174a4.448,4.448,0,0,0,4.443-4.443V85.961a4.448,4.448,0,0,0-4.443-4.443H20.661a4.448,4.448,0,0,0-4.443,4.443V112.89a.609.609,0,1,1-1.218,0V85.961A5.667,5.667,0,0,1,20.661,80.3H94.174a5.667,5.667,0,0,1,5.661,5.661v54.015A5.667,5.667,0,0,1,94.174,145.636Z" transform="translate(2097 1571.289)" fill="#04487e"/>
    <path id="Trazado_172" data-name="Trazado 172" d="M52.075,93.049h48.04v-6.2A5.052,5.052,0,0,0,95.064,81.8H21.552A5.052,5.052,0,0,0,16.5,86.852v6.2H52.075Z" transform="translate(2096.109 1570.398)" fill="#fff"/>
    <path id="Trazado_173" data-name="Trazado 173" d="M99.225,92.767H51.185a.609.609,0,0,1,0-1.218H98.616V85.961a4.448,4.448,0,0,0-4.443-4.443H20.661a4.448,4.448,0,0,0-4.443,4.443v5.588H44.3a.609.609,0,1,1,0,1.218H15.609A.609.609,0,0,1,15,92.158v-6.2A5.667,5.667,0,0,1,20.661,80.3H94.174a5.667,5.667,0,0,1,5.661,5.661v6.2a.609.609,0,0,1-.609.609Z" transform="translate(2097 1571.289)" fill="#04487e"/>
    <path id="Trazado_174" data-name="Trazado 174" d="M140.087,133.708h-7.131a1.216,1.216,0,0,1-1.216-1.216v-7.131a1.216,1.216,0,0,1,1.216-1.216h7.131a1.216,1.216,0,0,1,1.216,1.216v7.131A1.216,1.216,0,0,1,140.087,133.708Z" transform="translate(2027.676 1545.252)" fill="#04487e"/>
    <path id="Trazado_176" data-name="Trazado 176" d="M43.772,133.708H36.641a1.216,1.216,0,0,1-1.216-1.216v-7.131a1.216,1.216,0,0,1,1.216-1.216h7.131a1.216,1.216,0,0,1,1.216,1.216v7.131A1.216,1.216,0,0,1,43.772,133.708Z" transform="translate(2084.871 1545.252)" fill="#04487e"/>
    <path id="Trazado_178" data-name="Trazado 178" d="M91.93,133.708H84.8a1.216,1.216,0,0,1-1.216-1.216v-7.131a1.216,1.216,0,0,1,1.216-1.216h7.13a1.216,1.216,0,0,1,1.216,1.216v7.131a1.216,1.216,0,0,1-1.216,1.216Z" transform="translate(2056.273 1545.252)" fill="#04487e"/>
    <path id="Trazado_180" data-name="Trazado 180" d="M188.245,133.708h-7.131a1.216,1.216,0,0,1-1.216-1.216v-7.131a1.216,1.216,0,0,1,1.216-1.216h7.13a1.216,1.216,0,0,1,1.216,1.216v7.131A1.215,1.215,0,0,1,188.245,133.708Z" transform="translate(1999.078 1545.252)" fill="#04487e"/>
    <path id="Trazado_182" data-name="Trazado 182" d="M43.772,172.481H36.641a1.216,1.216,0,0,1-1.216-1.216v-7.13a1.216,1.216,0,0,1,1.216-1.216h7.131a1.216,1.216,0,0,1,1.216,1.216v7.13A1.216,1.216,0,0,1,43.772,172.481Z" transform="translate(2084.871 1522.227)" fill="#04487e"/>
    <path id="Trazado_184" data-name="Trazado 184" d="M91.93,172.481H84.8a1.216,1.216,0,0,1-1.216-1.216v-7.13a1.216,1.216,0,0,1,1.216-1.216h7.13a1.216,1.216,0,0,1,1.216,1.216v7.13a1.216,1.216,0,0,1-1.216,1.216Z" transform="translate(2056.273 1522.227)" fill="#04487e"/>
    <path id="Trazado_186" data-name="Trazado 186" d="M140.087,172.481h-7.131a1.216,1.216,0,0,1-1.216-1.216v-7.13a1.216,1.216,0,0,1,1.216-1.216h7.131a1.216,1.216,0,0,1,1.216,1.216v7.13A1.216,1.216,0,0,1,140.087,172.481Z" transform="translate(2027.676 1522.227)" fill="#04487e"/>
    <path id="Trazado_188" data-name="Trazado 188" d="M188.245,172.481h-7.131a1.216,1.216,0,0,1-1.216-1.216v-7.13a1.216,1.216,0,0,1,1.216-1.216h7.13a1.216,1.216,0,0,1,1.216,1.216v7.13A1.216,1.216,0,0,1,188.245,172.481Z" transform="translate(1999.078 1522.227)" fill="#04487e"/>
    <path id="Trazado_190" data-name="Trazado 190" d="M43.772,211.254H36.641a1.216,1.216,0,0,1-1.216-1.216v-7.131a1.216,1.216,0,0,1,1.216-1.216h7.131a1.216,1.216,0,0,1,1.216,1.216v7.131A1.216,1.216,0,0,1,43.772,211.254Z" transform="translate(2084.871 1499.203)" fill="#04487e"/>
    <path id="Trazado_192" data-name="Trazado 192" d="M91.93,211.254H84.8a1.216,1.216,0,0,1-1.216-1.216v-7.131a1.216,1.216,0,0,1,1.216-1.216h7.13a1.216,1.216,0,0,1,1.216,1.216v7.131a1.215,1.215,0,0,1-1.216,1.216Z" transform="translate(2056.273 1499.203)" fill="#04487e"/>
    <path id="Trazado_194" data-name="Trazado 194" d="M140.087,211.254h-7.131a1.216,1.216,0,0,1-1.216-1.216v-7.131a1.216,1.216,0,0,1,1.216-1.216h7.131a1.216,1.216,0,0,1,1.216,1.216v7.131A1.216,1.216,0,0,1,140.087,211.254Z" transform="translate(2027.676 1499.203)" fill="#04487e"/>
    <path id="Trazado_196" data-name="Trazado 196" d="M188.245,211.254h-7.131a1.216,1.216,0,0,1-1.216-1.216v-7.131a1.216,1.216,0,0,1,1.216-1.216h7.13a1.216,1.216,0,0,1,1.216,1.216v7.131A1.215,1.215,0,0,1,188.245,211.254Z" transform="translate(1999.078 1499.203)" fill="#04487e"/>
    <path id="Trazado_198" data-name="Trazado 198" d="M160.394,77.732a3.447,3.447,0,0,1-3.447-3.447V68.273a3.447,3.447,0,1,1,6.894,0v6.012A3.448,3.448,0,0,1,160.394,77.732Z" transform="translate(2012.707 1580.478)" fill="#ed6e7a"/>
    <path id="Trazado_199" data-name="Trazado 199" d="M159.5,77.45a4.06,4.06,0,0,1-4.056-4.056V67.382a4.056,4.056,0,1,1,8.112,0v6.012A4.061,4.061,0,0,1,159.5,77.45Zm0-12.906a2.841,2.841,0,0,0-2.837,2.838v6.012a2.838,2.838,0,0,0,5.675,0V67.382a2.842,2.842,0,0,0-2.838-2.838Z" transform="translate(2013.597 1581.369)" fill="#3a312a"/>
    <path id="Trazado_200" data-name="Trazado 200" d="M114.394,77.732a3.447,3.447,0,0,1-3.447-3.447V68.273a3.447,3.447,0,1,1,6.894,0v6.012A3.447,3.447,0,0,1,114.394,77.732Z" transform="translate(2040.023 1580.478)" fill="#fff"/>
    <path id="Trazado_201" data-name="Trazado 201" d="M113.5,77.45a4.06,4.06,0,0,1-4.056-4.056V67.382a4.056,4.056,0,1,1,8.112,0v6.012A4.061,4.061,0,0,1,113.5,77.45Zm0-12.906a2.841,2.841,0,0,0-2.837,2.838v6.012a2.838,2.838,0,0,0,5.675,0V67.382A2.842,2.842,0,0,0,113.5,64.545Z" transform="translate(2040.913 1581.369)" fill="#04487e"/>
    <path id="Trazado_202" data-name="Trazado 202" d="M68.394,77.732a3.447,3.447,0,0,1-3.447-3.447V68.273a3.447,3.447,0,1,1,6.894,0v6.012A3.447,3.447,0,0,1,68.394,77.732Z" transform="translate(2067.34 1580.478)" fill="#fff"/>
    <path id="Trazado_203" data-name="Trazado 203" d="M67.5,77.45a4.06,4.06,0,0,1-4.056-4.056V67.382a4.056,4.056,0,1,1,8.112,0v6.012A4.061,4.061,0,0,1,67.5,77.45Zm0-12.906a2.841,2.841,0,0,0-2.837,2.838v6.012a2.838,2.838,0,0,0,5.675,0V67.382A2.842,2.842,0,0,0,67.5,64.545Z" transform="translate(2068.23 1581.369)" fill="#04487e"/>
    <path id="Trazado_204" data-name="Trazado 204" d="M175.477,38.233a21.895,21.895,0,1,1-21.9-21.895A21.895,21.895,0,0,1,175.477,38.233Z" transform="translate(2027.706 1609.272)" fill="#04487e"/>
    <path id="Trazado_205" data-name="Trazado 205" d="M152.692,59.846a22.5,22.5,0,1,1,22.5-22.5A22.529,22.529,0,0,1,152.692,59.846Zm0-43.789a21.285,21.285,0,1,0,21.286,21.285A21.31,21.31,0,0,0,152.692,16.056Z" transform="translate(2028.597 1610.163)" fill="#fff"/>
    <path id="Trazado_206" data-name="Trazado 206" d="M177.544,44.774a17.421,17.421,0,1,1-17.421-17.42A17.421,17.421,0,0,1,177.544,44.774Z" transform="translate(2021.166 1602.73)" fill="#04487e"/>
    <path id="Trazado_207" data-name="Trazado 207" d="M159.233,61.913a18.03,18.03,0,1,1,18.03-18.03A18.05,18.05,0,0,1,159.233,61.913Zm0-34.841a16.812,16.812,0,1,0,16.812,16.812A16.83,16.83,0,0,0,159.233,27.072Z" transform="translate(2022.056 1603.622)" fill="#fff"/>
    <g id="Grupo_96" data-name="Grupo 96" transform="translate(2165.542 1631.777)">
      <path id="Trazado_208" data-name="Trazado 208" d="M177.531,58.272a.609.609,0,0,1-.364-.121l-4.88-3.634a.609.609,0,0,1,.728-.978L177.53,56.9l10.331-7.723a.609.609,0,0,1,.729.976l-10.695,8a.606.606,0,0,1-.365.121Z" transform="translate(-161.8 -41.935)" fill="#fff"/>
      <path id="Trazado_209" data-name="Trazado 209" d="M185.049,31.521a.34.34,0,0,0-.34.34v.691a.34.34,0,0,0,.68,0v-.691A.34.34,0,0,0,185.049,31.521Z" transform="translate(-169.322 -31.521)" fill="#fff"/>
      <path id="Trazado_210" data-name="Trazado 210" d="M185.049,105.59a.34.34,0,0,0-.34.34v.691a.34.34,0,1,0,.68,0v-.691A.34.34,0,0,0,185.049,105.59Z" transform="translate(-169.322 -75.506)" fill="#fff"/>
      <path id="Trazado_211" data-name="Trazado 211" d="M222.264,69.747a.34.34,0,0,0-.34-.34h-.691a.34.34,0,0,0,0,.68h.691A.341.341,0,0,0,222.264,69.747Z" transform="translate(-190.809 -54.019)" fill="#fff"/>
      <path id="Trazado_212" data-name="Trazado 212" d="M148.2,69.747a.34.34,0,0,0-.34-.34h-.691a.34.34,0,0,0,0,.68h.691A.341.341,0,0,0,148.2,69.747Z" transform="translate(-146.825 -54.019)" fill="#fff"/>
      <path id="Trazado_213" data-name="Trazado 213" d="M211.364,42.717a.34.34,0,0,0-.481,0l-.489.489a.34.34,0,0,0,.481.481l.489-.489A.34.34,0,0,0,211.364,42.717Z" transform="translate(-184.516 -38.111)" fill="#fff"/>
      <path id="Trazado_214" data-name="Trazado 214" d="M158.989,95.091a.341.341,0,0,0-.481,0l-.489.489a.34.34,0,0,0,.481.481l.489-.489A.341.341,0,0,0,158.989,95.091Z" transform="translate(-153.413 -69.212)" fill="#fff"/>
      <path id="Trazado_215" data-name="Trazado 215" d="M211.364,96.061a.341.341,0,0,0,0-.481l-.489-.489a.34.34,0,0,0-.481.481l.489.489A.34.34,0,0,0,211.364,96.061Z" transform="translate(-184.516 -69.212)" fill="#fff"/>
      <path id="Trazado_216" data-name="Trazado 216" d="M158.99,43.687a.34.34,0,0,0,0-.481l-.489-.489a.34.34,0,1,0-.481.481l.489.489A.34.34,0,0,0,158.99,43.687Z" transform="translate(-153.414 -38.111)" fill="#fff"/>
    </g>
    <path id="Trazado_217" data-name="Trazado 217" d="M184.978,68.3a1.331,1.331,0,1,1-1.331-1.331A1.331,1.331,0,0,1,184.978,68.3Z" transform="translate(1997.642 1579.207)" fill="#04487e"/>
    <path id="Trazado_218" data-name="Trazado 218" d="M182.757,69.348a1.94,1.94,0,1,1,1.94-1.94A1.942,1.942,0,0,1,182.757,69.348Zm0-2.662a.722.722,0,1,0,.722.722A.722.722,0,0,0,182.757,66.686Z" transform="translate(1998.532 1580.097)" fill="#fff"/>
    <path id="Trazado_219" data-name="Trazado 219" d="M199.37,116.537v42.822a4.446,4.446,0,0,1-4.443,4.439h6.092a4.446,4.446,0,0,0,4.443-4.439v-46.42A22.643,22.643,0,0,1,199.37,116.537Z" transform="translate(1990.153 1551.907)" fill="#fff"/>
  </g>
</svg>
