<svg id="Layer_1" height="512" viewBox="0 0 512 512" width="512" xmlns="http://www.w3.org/2000/svg" data-name="Layer 1"><path d="m371.91 346.25a117.117 117.117 0 0 1 -61.8 86.49 83.439 83.439 0 0 0 120.75-71.27z" fill="#4a5160"/><path d="m310.385 433.379a117.524 117.524 0 0 1 -170.885-92.016v-93.963c43.671-11.971 101.956-35.309 143.054-79.684 10.654 19.73 40.073 66.165 89.946 84.558v94.177a117.708 117.708 0 0 1 -62.115 86.93z" fill="#ffd8b7"/><path d="m293.65 468.33v27.67h-32.28a13.828 13.828 0 0 1 -13.83-13.83v-.02a13.823 13.823 0 0 1 13.82-13.82z" fill="#e87187"/><path d="m169 341.363v-103.354c-10.444 3.717-20.548 6.817-30 9.389v93.965c7 59.09 56.354 105.163 117.072 105.163a116.694 116.694 0 0 0 14.879-.956c-53.775-6.854-95.951-50.062-101.951-104.207z" fill="#dbbaa1"/><path d="m402.98 187.13a138.242 138.242 0 0 0 -138.48-138.16c-76.355 0-138.5 61.89-138.5 138.24v49.91l13.845 10.58c43.45-11.91 101.608-35.13 142.5-79.28 10.596 19.63 39.655 65.83 89.655 84.13l31-14.31z" fill="#6d7486"/><path d="m279.5 49.782a140.124 140.124 0 0 0 -15-.812c-76.355 0-138.5 61.89-138.5 138.24v49.91l13.845 10.58c6.839-1.875 14.045-4.031 21.489-6.5a13.578 13.578 0 0 1 -5.334-10.793v-43.2c0-71.28 54.173-129.951 123.5-137.425z" fill="#5c616d"/><path d="m416.185 241.57a47.422 47.422 0 0 0 -23.825-6.57h-20.36v146h20.37a47.853 47.853 0 0 0 47.63-48.42v-49.33a47.887 47.887 0 0 0 -23.815-41.68z" fill="#5fa8ed"/><path d="m95.815 241.5a47.986 47.986 0 0 0 -23.815 41.74v49.34c0 26.58 21.06 48.42 47.64 48.42h20.36v-146h-20.36a47.013 47.013 0 0 0 -23.825 6.5z" fill="#5fa8ed"/><g fill="#284268"><path d="m116 267.833a6 6 0 0 0 6-6v-4.3a6 6 0 0 0 -12 0v4.3a6 6 0 0 0 6 6z"/><path d="m116 344.833a6 6 0 0 0 6-6v-56a6 6 0 0 0 -12 0v56a6 6 0 0 0 6 6z"/><path d="m336.24 279.68a26.16 26.16 0 0 0 -52.32 0 6 6 0 0 0 12 0 14.16 14.16 0 0 1 28.32 0 6 6 0 1 0 12 0z"/><path d="m222.72 285.68a6 6 0 0 0 6-6 26.161 26.161 0 0 0 -52.321 0 6 6 0 0 0 12 0 14.161 14.161 0 0 1 28.321 0 6 6 0 0 0 6 6z"/><path d="m285.687 350.96a41.531 41.531 0 0 1 -58.733 0 6 6 0 0 0 -8.486 8.485 53.529 53.529 0 0 0 75.7 0 6 6 0 1 0 -8.484-8.485z"/><path d="m154.666 181.565a6 6 0 0 0 1.695-.245c5.575-1.638 11.125-3.469 16.5-5.44a6 6 0 1 0 -4.132-11.265c-5.126 1.881-10.425 3.628-15.748 5.193a6 6 0 0 0 1.689 11.757z"/><path d="m119.639 387h20.448a6.039 6.039 0 0 0 5.642-4.458 122.895 122.895 0 0 0 164.409 56.868 89.553 89.553 0 0 0 75.691-.433 40.422 40.422 0 0 1 -40.336 37.023h-45.493v-7.673a6.59 6.59 0 0 0 -6.346-6.327h-32.3a20 20 0 0 0 .011 40h32.286a6.305 6.305 0 0 0 6.349-6v-8h45.493a52.479 52.479 0 0 0 52.507-52.709v-3.332a90.038 90.038 0 0 0 11.564-9.409 88.906 88.906 0 0 0 27.218-59.75 53.914 53.914 0 0 0 9.218-30.221v-49.332c0-18.73-9-35.265-24-44.986v-61.836c0-91.767-74.233-166.425-166-166.425s-166 74.658-166 166.425v61.834c-15 9.721-24 26.256-24 44.986v49.332c0 29.846 23.792 54.423 53.639 54.423zm168.361 103h-26.632a7.843 7.843 0 0 1 -7.833-7.836 8.169 8.169 0 0 1 2.291-5.7 7.94 7.94 0 0 1 5.534-2.464h26.64zm-147.955-261h-8.045v-41.787c0-72.913 59.57-132.241 132.488-132.241a134.263 134.263 0 0 1 19.841 1.472 5.815 5.815 0 0 0 -1.239 1.965c-16.773 41.101-46.055 72.791-87.09 94.181a6.006 6.006 0 0 0 5.574 10.641c43.624-22.742 74.81-56.484 92.687-100.288a5.979 5.979 0 0 0 -.054-4.655c58.744 13.428 102.731 66.1 102.77 128.843l.023 42.085c-1.531-.141-3.083-.216-4.637-.216h-20.45a6.03 6.03 0 0 0 -5.913 6.119v8.52c-40.163-18.146-65.4-55.3-76.248-74.373a189.285 189.285 0 0 0 34.571-55.6 6 6 0 1 0 -11.142-4.456c-14.274 35.688-40.263 66.063-77.246 90.281-25.53 16.718-55.756 30.253-89.935 40.29v-4.663a6.066 6.066 0 0 0 -5.955-6.118zm116.274 210.824a110.88 110.88 0 0 1 -110.264-99.259l-.055.006v-88.308c36.694-10.459 69.152-24.817 96.509-42.731a241.817 241.817 0 0 0 38.656-31.164c12.91 21.832 40.873 60.525 84.835 78.318v88.691h-.021a110.894 110.894 0 0 1 -109.66 94.45zm129.681-14.467a77.673 77.673 0 0 1 -62.456 6.45 123.053 123.053 0 0 0 43-48.532 5.954 5.954 0 0 0 5.369 3.725h14.087zm15.235-11.446c-1.052 1.015-2.135 1.986-3.235 2.934v-30.48a53.6 53.6 0 0 0 24.559-9.188 77.034 77.034 0 0 1 -21.324 36.734zm32.765-130.664v49.332c0 23.229-18.409 42.421-41.639 42.421h-14.361v-134h14.361c23.23 0 41.639 19.017 41.639 42.247zm-332-106.822c0-85.15 68.85-154.425 154-154.425s154 69.275 154 154.425v55.8c-.323-.13-.667-.247-1-.37l-.023-44.734c-.048-79.486-65-144.153-144.489-144.153-79.535.004-144.488 64.71-144.488 144.245v41.787h-.171a49.8 49.8 0 0 0 -17.829 3.227zm-24 106.82a41.812 41.812 0 0 1 41.636-42.245h14.364v134h-14.361c-23.23 0-41.639-19.194-41.639-42.423z"/></g></svg>