<svg xmlns="http://www.w3.org/2000/svg" width="73.044" height="97.391" viewBox="0 0 73.044 97.391">
  <g id="Grupo_95" data-name="Grupo 95" transform="translate(-2135 -1048.253)">
    <path id="Trazado_153" data-name="Trazado 153" d="M34.435,116.354l-5.217,5.037L24,116.354V24H97.044v92.354l-5.217,5.037-5.217-5.037-5.217,5.037-5.217-5.037-5.217,5.037-5.217-5.037-5.217,5.037L55.3,116.354l-5.217,5.037-5.217-5.037-5.217,5.037Z" transform="translate(2111 1024.253)" fill="#fff"/>
    <circle id="Elipse_19" data-name="Elipse 19" cx="3.5" cy="3.5" r="3.5" transform="translate(2142 1069.253)" fill="#04487e"/>
    <circle id="Elipse_20" data-name="Elipse 20" cx="15.5" cy="15.5" r="15.5" transform="translate(2156 1057.253)" fill="#04487e"/>
    <path id="Trazado_154" data-name="Trazado 154" d="M173.217,96.7a1.739,1.739,0,1,1,1.739-1.739,1.739,1.739,0,0,0,3.478,0,5.226,5.226,0,0,0-3.478-4.918v-.3a1.739,1.739,0,0,0-3.478,0v.3a5.217,5.217,0,0,0,1.739,10.136,1.739,1.739,0,1,1-1.739,1.739,1.739,1.739,0,1,0-3.478,0,5.226,5.226,0,0,0,3.478,4.918v.3a1.739,1.739,0,0,0,3.478,0v-.3A5.217,5.217,0,0,0,173.217,96.7Z" transform="translate(1998.304 974.166)" fill="#fff"/>
    <g id="Grupo_94" data-name="Grupo 94" transform="translate(2143.696 1093.47)">
      <path id="Trazado_155" data-name="Trazado 155" d="M100.522,235.478H65.739a1.739,1.739,0,0,1,0-3.478h34.783a1.739,1.739,0,0,1,0,3.478Z" transform="translate(-64 -232)" fill="#04487e"/>
      <path id="Trazado_156" data-name="Trazado 156" d="M100.522,267.478H65.739a1.739,1.739,0,0,1,0-3.478h34.783a1.739,1.739,0,0,1,0,3.478Z" transform="translate(-64 -257.043)" fill="#04487e"/>
      <path id="Trazado_157" data-name="Trazado 157" d="M100.522,299.478H65.739a1.739,1.739,0,0,1,0-3.478h34.783a1.739,1.739,0,0,1,0,3.478Z" transform="translate(-64 -282.087)" fill="#04487e"/>
      <path id="Trazado_158" data-name="Trazado 158" d="M100.522,331.478H65.739a1.739,1.739,0,0,1,0-3.478h34.783a1.739,1.739,0,0,1,0,3.478Z" transform="translate(-64 -307.13)" fill="#04487e"/>
      <path id="Trazado_159" data-name="Trazado 159" d="M280.7,331.478h-6.957a1.739,1.739,0,0,1,0-3.478H280.7a1.739,1.739,0,0,1,0,3.478Z" transform="translate(-226.783 -307.13)" fill="#04487e"/>
      <path id="Trazado_160" data-name="Trazado 160" d="M100.522,363.478H65.739a1.739,1.739,0,0,1,0-3.478h34.783a1.739,1.739,0,0,1,0,3.478Z" transform="translate(-64 -332.174)" fill="#04487e"/>
      <path id="Trazado_161" data-name="Trazado 161" d="M280.7,363.478h-6.957a1.739,1.739,0,0,1,0-3.478H280.7a1.739,1.739,0,0,1,0,3.478Z" transform="translate(-226.783 -332.174)" fill="#04487e"/>
      <path id="Trazado_162" data-name="Trazado 162" d="M100.522,395.478H65.739a1.739,1.739,0,0,1,0-3.478h34.783a1.739,1.739,0,0,1,0,3.478Z" transform="translate(-64 -357.217)" fill="#04487e"/>
      <path id="Trazado_163" data-name="Trazado 163" d="M280.7,395.478h-6.957a1.739,1.739,0,0,1,0-3.478H280.7a1.739,1.739,0,0,1,0,3.478Z" transform="translate(-226.783 -357.217)" fill="#04487e"/>
    </g>
    <circle id="Elipse_21" data-name="Elipse 21" cx="3.5" cy="3.5" r="3.5" transform="translate(2194 1069.253)" fill="#04487e"/>
  </g>
</svg>
