<svg xmlns="http://www.w3.org/2000/svg" width="18.48" height="18.48" viewBox="0 0 18.48 18.48">
  <path id="Icon_awesome-binoculars" data-name="Icon awesome-binoculars" d="M15.015,2.91a.623.623,0,0,0-.578-.66h-2.31a.623.623,0,0,0-.578.66V4.89h3.465ZM2.307,7.53C2.216,11.4.125,12.242,0,17.595V19.41a1.246,1.246,0,0,0,1.155,1.32H4.62a1.246,1.246,0,0,0,1.155-1.32v-6.6H6.93V6.21H3.459A1.258,1.258,0,0,0,2.307,7.53Zm13.866,0a1.258,1.258,0,0,0-1.152-1.32H11.55v6.6H12.7v6.6a1.246,1.246,0,0,0,1.155,1.32h3.465a1.246,1.246,0,0,0,1.155-1.32V17.595C18.355,12.242,16.264,11.4,16.173,7.53ZM6.352,2.25H4.043a.623.623,0,0,0-.578.66V4.89H6.93V2.91A.623.623,0,0,0,6.352,2.25ZM8.085,12.81h2.31V6.21H8.085Z" transform="translate(0 -2.25)" fill="#717171"/>
</svg>
