<svg xmlns="http://www.w3.org/2000/svg" width="20.79" height="18.48" viewBox="0 0 20.79 18.48">
  <path id="Icon_awesome-map-marked-alt" data-name="Icon awesome-map-marked-alt" d="M10.395,0A4.548,4.548,0,0,0,5.847,4.548c0,2.031,2.972,5.732,4.111,7.075a.569.569,0,0,0,.873,0c1.139-1.343,4.111-5.044,4.111-7.075A4.548,4.548,0,0,0,10.395,0Zm0,6.064a1.516,1.516,0,1,1,1.516-1.516A1.516,1.516,0,0,1,10.395,6.064ZM.726,7.794A1.155,1.155,0,0,0,0,8.867V17.9a.578.578,0,0,0,.792.536L5.775,16.17V7.757a10.931,10.931,0,0,1-.767-1.675Zm9.669,5.187a1.725,1.725,0,0,1-1.318-.612c-.71-.837-1.464-1.791-2.147-2.769V16.17l6.93,2.31V9.6c-.683.978-1.437,1.932-2.147,2.769A1.725,1.725,0,0,1,10.395,12.982ZM20,5.817,15.015,8.085V18.48l5.049-2.019a1.155,1.155,0,0,0,.726-1.072V6.353A.578.578,0,0,0,20,5.817Z" fill="#717171"/>
</svg>
