<svg xmlns="http://www.w3.org/2000/svg" width="18.479" height="18.479" viewBox="0 0 18.479 18.479">
  <path id="Icon_awesome-tools" data-name="Icon awesome-tools" d="M18.083,14.28l-4.226-4.226a2.68,2.68,0,0,0-3.082-.5L6.927,5.706V3.465L2.308,0,0,2.31,3.463,6.929H5.7l3.847,3.847a2.685,2.685,0,0,0,.5,3.082l4.226,4.226a1.342,1.342,0,0,0,1.9,0l1.9-1.9a1.348,1.348,0,0,0,0-1.9ZM11.969,8.12a3.8,3.8,0,0,1,2.7,1.119l.7.7a5.108,5.108,0,0,0,1.581-1.065,5.19,5.19,0,0,0,1.368-4.933.432.432,0,0,0-.725-.2L14.91,6.427,12.46,6.02l-.408-2.45L14.737.884a.436.436,0,0,0-.206-.729A5.2,5.2,0,0,0,9.6,1.523,5.114,5.114,0,0,0,8.115,5.262l2.963,2.963a3.931,3.931,0,0,1,.891-.1Zm-3.75,2.959L6.173,9.033l-5.5,5.5A2.309,2.309,0,0,0,3.939,17.8L8.4,13.342a3.875,3.875,0,0,1-.18-2.263ZM2.308,17.034a.866.866,0,1,1,.866-.866A.869.869,0,0,1,2.308,17.034Z" transform="translate(0.004)" fill="#717171"/>
</svg>
