<svg xmlns="http://www.w3.org/2000/svg" width="30.788" height="18.48" viewBox="0 0 30.788 18.48">
  <path id="Icon_awesome-signature" data-name="Icon awesome-signature" d="M29.991,10.659c-2.493.168-6.049,2.632-7.849,3.441a9.961,9.961,0,0,1-3.662,1.174c-1.088,0-1.251-.78-1.025-2.5.053-.385.563-3.811-2.055-3.662-1.208.072-3.094,1.193-8.157,6.064l2-4.99A4.158,4.158,0,0,0,3,5.241L.357,7.017A.774.774,0,0,0,.121,8.08l.828,1.3a.765.765,0,0,0,1.064.236L4.8,7.743a1.074,1.074,0,0,1,1.574,1.3L1.651,20.866A1.538,1.538,0,0,0,3.08,22.979a1.522,1.522,0,0,0,1.088-.452C6.2,20.5,11.613,15.274,14.332,13.1a5,5,0,0,0,.991,4.033,4.061,4.061,0,0,0,3.152,1.218A12.17,12.17,0,0,0,23.4,16.911c1.588-.712,4.764-3.013,6.66-3.167a.773.773,0,0,0,.731-.76V11.439a.763.763,0,0,0-.8-.78Z" transform="translate(-0.002 -4.499)" fill="#717171"/>
</svg>
