<svg xmlns="http://www.w3.org/2000/svg" width="25.288" height="18.48" viewBox="0 0 25.288 18.48">
  <g id="Icon_ionic-ios-car" data-name="Icon ionic-ios-car" transform="translate(-3.375 -7.313)">
    <g id="Grupo_120" data-name="Grupo 120" transform="translate(3.375 7.313)">
      <path id="Trazado_260" data-name="Trazado 260" d="M25.746,12.81c-.839-1.837-2.979-5.5-6.079-5.5H12.372c-3.1,0-5.155,3.542-6.079,5.5-1.459,1.371-2.918,2.725-2.918,5.057V22.4a.481.481,0,0,0,.377.465c.906.2,3.781.608,12.267.608s11.362-.405,12.267-.608a.481.481,0,0,0,.377-.465V17.867C28.663,15.541,27.308,14.1,25.746,12.81ZM12.007,8.744h8.024c2.462,0,3.769,3.578,3.769,4.174H8.238C8.238,12.321,9.879,8.744,12.007,8.744ZM7.266,20.89a1.909,1.909,0,1,1,1.945-1.908A1.925,1.925,0,0,1,7.266,20.89ZM20.4,19a.966.966,0,0,1-.973.954H12.615A.966.966,0,0,1,11.642,19h0a.966.966,0,0,1,.973-.954h6.808A.966.966,0,0,1,20.4,19Zm4.377,1.908A1.909,1.909,0,1,1,26.718,19,1.925,1.925,0,0,1,24.773,20.908Z" transform="translate(-3.375 -7.312)" fill="#717171"/>
      <path id="Trazado_261" data-name="Trazado 261" d="M11.25,27c-3.368,0-6.75-.352-6.75-.352,0,1.2-.021,2.039.422,2.039H10.9C11.341,28.688,11.25,27.759,11.25,27Z" transform="translate(-3.375 -10.208)" fill="#717171"/>
    </g>
    <path id="Trazado_262" data-name="Trazado 262" d="M24.75,27c3.375,0,6.75-.352,6.75-.352,0,1.125.141,2.039-.352,2.039H25.1C24.63,28.688,24.75,27.738,24.75,27Z" transform="translate(-3.962 -2.895)" fill="#717171"/>
  </g>
</svg>
