<svg xmlns="http://www.w3.org/2000/svg" width="100.379" height="100" viewBox="0 0 100.379 100">
  <g id="Grupo_92" data-name="Grupo 92" transform="translate(-1955 -1069)">
    <g id="Grupo_78" data-name="Grupo 78" transform="translate(1955.18 1088.67)">
      <g id="Grupo_77" data-name="Grupo 77">
        <path id="Trazado_147" data-name="Trazado 147" d="M48.129,122.039v-1.46H45.9a1.992,1.992,0,1,1,0-3.985h1.925a5.223,5.223,0,0,0-4.913-3.454H35.846l-5.871-10.483a2.665,2.665,0,0,0-2.323-1.362H8.664a2.679,2.679,0,0,0-2.6,2.09L3.285,115.7v6.244A3.078,3.078,0,0,0,4,128.018H5.685a7.312,7.312,0,0,1,14.623,0H31.9a7.312,7.312,0,0,1,14.623,0H47.1a3.077,3.077,0,0,0,1.027-5.979Zm-32.674-8.88h-8.5l1.958-8.9h6.547Zm8.851,5.378H21.128a1.308,1.308,0,1,1,0-2.615h3.178a1.308,1.308,0,1,1,0,2.615Zm-5.692-5.378v-8.9h8.86l4.973,8.9Z" transform="translate(-0.917 -101.295)" fill="#fff"/>
      </g>
    </g>
    <g id="Grupo_80" data-name="Grupo 80" transform="translate(2014.02 1091.799)">
      <g id="Grupo_79" data-name="Grupo 79">
        <path id="Trazado_148" data-name="Trazado 148" d="M320.137,119.451a4.3,4.3,0,0,0-3.744-2.194H303.435a2.391,2.391,0,0,0-2.391,2.391c0,20.856.006,21.745.006,21.815a4.58,4.58,0,0,1,4.78,2.041l2.336-.379,4.431-5.255a11.571,11.571,0,0,1,1.549-1.517h-8.322V122.038h10.281l3.651,6.52a8.434,8.434,0,0,1,2.522-5.282Z" transform="translate(-301.044 -117.257)" fill="#fff"/>
      </g>
    </g>
    <path id="Trazado_149" data-name="Trazado 149" d="M60.439,62.893a6.086,6.086,0,0,1-5.093-10.488A4.607,4.607,0,0,1,56.7,49.213V21.589a2.39,2.39,0,0,0-.708-1.7L37.6,1.661a2.4,2.4,0,0,0-4.08,1.7v8.827a1.308,1.308,0,0,0,1.308,1.308,1.611,1.611,0,1,1-1.61,1.611,1.308,1.308,0,1,0-2.615,0,4.226,4.226,0,1,0,5.533-4.019V6.941L51.917,22.585V52H39.142A4.7,4.7,0,1,0,37.8,52H12.931a4.7,4.7,0,1,0-1.343,0H2.219A2.219,2.219,0,0,0,0,54.221v7.357A2.219,2.219,0,0,0,2.219,63.8h8.44a11.929,11.929,0,0,1,23.067,0H67.95a11.847,11.847,0,0,1,.854-2.261ZM10.357,47.359a1.9,1.9,0,1,1,1.9,1.9A1.9,1.9,0,0,1,10.357,47.359Zm26.211,0a1.9,1.9,0,1,1,1.9,1.9A1.9,1.9,0,0,1,36.568,47.359Z" transform="translate(1955 1068.034)" fill="#fff"/>
    <g id="Grupo_84" data-name="Grupo 84" transform="translate(1969.622 1127.306)">
      <g id="Grupo_83" data-name="Grupo 83">
        <path id="Trazado_150" data-name="Trazado 150" d="M82.154,298.369a7.571,7.571,0,1,0,7.571,7.571A7.571,7.571,0,0,0,82.154,298.369Zm0,10.637a3.067,3.067,0,1,1,3.067-3.067A3.067,3.067,0,0,1,82.154,309.006Z" transform="translate(-74.583 -298.369)" fill="#fff"/>
      </g>
    </g>
    <g id="Grupo_86" data-name="Grupo 86" transform="translate(2026.913 1128.511)">
      <g id="Grupo_85" data-name="Grupo 85">
        <path id="Trazado_151" data-name="Trazado 151" d="M366.808,310.878a7.563,7.563,0,0,0,3.476,6.366V304.512A7.564,7.564,0,0,0,366.808,310.878Z" transform="translate(-366.808 -304.512)" fill="#fff"/>
      </g>
    </g>
    <g id="Grupo_88" data-name="Grupo 88" transform="translate(2011.647 1111.573)">
      <g id="Grupo_87" data-name="Grupo 87">
        <path id="Trazado_152" data-name="Trazado 152" d="M332.67,224.756a6.663,6.663,0,0,0-6.645-6.637H311.7a8.273,8.273,0,0,0-6.337,2.946l-5.212,6.181-5.81.943-.962-1.772a1.318,1.318,0,1,0-2.317,1.258l.522.961-.281.046a2.819,2.819,0,1,0,.9,5.564l9.877-1.6a2.818,2.818,0,0,0,1.7-.965s4.849-5.573,6.582-7.3a.339.339,0,0,1,.578.24v47.551a3.382,3.382,0,1,0,6.765,0V245.129h1.46v27.034a3.382,3.382,0,0,0,6.765,0l-.06-47.372a.589.589,0,0,1,.575-.59.574.574,0,0,1,.586.562v20.707a2.79,2.79,0,0,0,2.778,2.826h.007a2.84,2.84,0,0,0,2.843-2.812V224.756Z" transform="translate(-288.938 -218.119)" fill="#fff"/>
      </g>
    </g>
    <g id="Grupo_90" data-name="Grupo 90" transform="translate(2035.312 1098.028)">
      <g id="Grupo_89" data-name="Grupo 89">
        <circle id="Elipse_18" data-name="Elipse 18" cx="5.841" cy="5.841" r="5.841" fill="#fff"/>
      </g>
    </g>
  </g>
</svg>
