<svg xmlns="http://www.w3.org/2000/svg" width="84.131" height="50.556" viewBox="0 0 84.131 50.556"><path d="M23.207,40A4.207,4.207,0,1,1,19,44.207,4.207,4.207,0,0,1,23.207,40Zm0,5.609a1.4,1.4,0,1,0-1.4-1.4A1.4,1.4,0,0,0,23.207,45.609Z" transform="translate(32.881 -3.543)" fill="#04487e"/><path d="M49.207,40A4.207,4.207,0,1,1,45,44.207,4.207,4.207,0,0,1,49.207,40Zm0,5.609a1.4,1.4,0,1,0-1.4-1.4A1.4,1.4,0,0,0,49.207,45.609Z" transform="translate(-29.576 -3.543)" fill="#04487e"/><path d="M7.24,33.68l14.7-4.009,2.58-7.737A12.607,12.607,0,0,1,35.652,14H66.5c3.085,0,5.4,1.7,6.864,4.982l3.818,7.638h7.547a1.4,1.4,0,0,1,1.4,1.4V44.848a1.4,1.4,0,0,1-1.4,1.4H77.718v1.4a1.4,1.4,0,0,1-.411.991L73.1,52.85a1.4,1.4,0,0,1-.991.411H67.79a9.815,9.815,0,1,1-19.406,0H31.334a9.815,9.815,0,1,1-19.406,0H3.4a1.4,1.4,0,0,1-1.4-1.4V40.642A7.451,7.451,0,0,1,7.24,33.68Zm70.478,9.766h5.609V29.424H77.718Zm-64.5-8.49L7.993,36.38a4.619,4.619,0,0,0-2.935,2.859h6.757a1.4,1.4,0,0,0,1.4-1.4Zm61.7,4.284h-1.4a1.4,1.4,0,0,0-1.4,1.4v1.4h2.8ZM69.3,50.457v-2.8H64.943a9.838,9.838,0,0,1,2,2.8ZM58.087,61.674a7.011,7.011,0,1,0-7.011-7.011A7.011,7.011,0,0,0,58.087,61.674ZM49.233,50.457a9.838,9.838,0,0,1,2-2.8H28.486a9.838,9.838,0,0,1,2,2.8Zm-.96-19.631h5.609V22.413H48.272ZM21.631,61.674a7.011,7.011,0,1,0-7.011-7.011A7.011,7.011,0,0,0,21.631,61.674ZM4.8,50.457h7.971a9.838,9.838,0,0,1,2-2.8H4.8Zm0-5.609H45.468V33.631H28.641a1.4,1.4,0,0,1-1.3-1.924l2.793-6.981c1.29-3.442,3.557-5.117,6.923-5.117H67.9a1.4,1.4,0,0,1,1.3.881l2.8,7.011a1.419,1.419,0,0,1,.1.522v4.207a1.4,1.4,0,0,1-1.4,1.4H48.272V44.848H70.707a1.4,1.4,0,0,1,1.4,1.4v3.626l2.8-2.8V44.848H70.707a1.4,1.4,0,0,1-1.4-1.4v-2.8a4.207,4.207,0,0,1,4.207-4.207h1.4V28.353l-4.086-8.175C69.791,17.845,68.457,16.8,66.5,16.8H35.652a9.777,9.777,0,0,0-8.486,6.052l-2.8,8.413a1.4,1.4,0,0,1-.96.91l-7.38,2.012v3.646a4.207,4.207,0,0,1-4.207,4.207H4.8ZM45.468,30.826V22.413H37.055c-2.173,0-3.417.955-4.306,3.326l-2.036,5.087Zm11.217-8.413v8.413H69.3V28.291l-2.351-5.878Z" transform="translate(-2 -14)" fill="#04487e"/><path d="M28.609,30H23v2.8h5.609Z" transform="translate(26.076 -7.565)" fill="#04487e"/><path d="M38.609,30H33v2.8h5.609Z" transform="translate(2.055 -7.565)" fill="#04487e"/><path d="M18.8,30H16v2.8h2.8Z" transform="translate(45.696 -7.565)" fill="#04487e"/><path d="M50.8,30H48v5.609h2.8Z" transform="translate(-31.174 -7.565)" fill="#04487e"/><path d="M46.8,30H44v5.609h2.8Z" transform="translate(-21.565 -7.565)" fill="#04487e"/></svg>