<svg xmlns="http://www.w3.org/2000/svg" width="97.273" height="51.775" viewBox="0 0 97.273 51.775"><g transform="translate(0 0)"><g transform="translate(0 0)"><path d="M6.651,132.458l12.343-1.9a4.712,4.712,0,0,0,3.2-2.041l6.017-9.024A7.827,7.827,0,0,1,34.738,116H84.515a4.727,4.727,0,0,1,4.035,2.284,61.236,61.236,0,0,1,8.723,31.493v5.446a4.713,4.713,0,0,1-4.707,4.707H86.15a9.4,9.4,0,0,1-18.545,0H26.53a9.4,9.4,0,0,1-18.545,0H4.707A4.713,4.713,0,0,1,0,155.223V140.212A7.8,7.8,0,0,1,6.651,132.458Zm79.5,24.334h6.418a1.571,1.571,0,0,0,1.569-1.569v-1.569H85.017A9.324,9.324,0,0,1,86.148,156.792Zm-9.271,7.845a6.276,6.276,0,1,0-6.276-6.276A6.282,6.282,0,0,0,76.877,164.637Zm-50.348-7.845H67.6a9.361,9.361,0,0,1,1.133-3.138H25.4A9.325,9.325,0,0,1,26.529,156.792Zm-9.271,7.845a6.276,6.276,0,1,0-6.276-6.276A6.282,6.282,0,0,0,17.258,164.637Zm-14.12-9.414a1.571,1.571,0,0,0,1.569,1.569H7.986a9.358,9.358,0,0,1,1.131-3.138H3.138Zm0-4.707h8.927a9.379,9.379,0,0,1,10.386,0H50.206V137.965h3.138v12.551H71.684a9.379,9.379,0,0,1,10.386,0H94.135v-.739A58.083,58.083,0,0,0,85.859,119.9a1.578,1.578,0,0,0-1.345-.761H34.738a4.694,4.694,0,0,0-3.916,2.1L24.8,130.258a7.85,7.85,0,0,1-5.333,3.4L8.808,135.3a6.255,6.255,0,0,1-5.67,8.94Zm0-9.414a3.129,3.129,0,0,0,2.488-5.038,4.669,4.669,0,0,0-2.488,4.147Z" transform="translate(0 -116)" fill="#04487e"/></g></g><g transform="translate(25.103 6.276)"><g transform="translate(0 0)"><path d="M231.161,150.214A4.678,4.678,0,0,1,235.152,148h17.089v12.551H228.4l-1.261,2.019V173.1H224V161.67Zm17.942,7.2v-6.276H235.152a1.559,1.559,0,0,0-1.33.739l-3.461,5.537Z" transform="translate(-224 -148)" fill="#04487e"/></g></g><g transform="translate(56.481 6.276)"><g transform="translate(0 0)"><path d="M69.315,148a4.7,4.7,0,0,1,4.465,3.218l3.11,9.334H44.9V148Zm-21.273,9.414h24.5l-1.734-5.2a1.567,1.567,0,0,0-1.489-1.073H48.042Z" transform="translate(-44.904 -148)" fill="#04487e"/></g></g><g transform="translate(40.831 21.752)"><g transform="translate(0 0)"><rect width="6.005" height="3.603" fill="#04487e"/></g></g><g transform="translate(18.014 25.355)"><g transform="translate(0 0)"><rect width="2.402" height="3.603" fill="#04487e"/></g></g><g transform="translate(75.657 40.966)"><g transform="translate(0 0)"><rect width="2.402" height="2.402" fill="#04487e"/></g></g><g transform="translate(15.612 40.966)"><g transform="translate(0 0)"><rect width="3.603" height="2.402" fill="#04487e"/></g></g></svg>