<svg xmlns="http://www.w3.org/2000/svg" width="89.209" height="55.96" viewBox="0 0 89.209 55.96"><path d="M1.976,129.723a1.307,1.307,0,1,1,2.254,1.324,11.765,11.765,0,1,0,20.907,1.182l-3.472,3.3a7.438,7.438,0,1,1-5.459-5.738l3.472-3.3a11.753,11.753,0,0,0-12.927,1.55,1.307,1.307,0,0,1-1.7-1.988A14.369,14.369,0,0,1,21.667,124.6l1.608-1.529a16.265,16.265,0,0,0-8.066-2.13,16.564,16.564,0,0,0-2.6.206,1.306,1.306,0,0,1-1.061-.3l-4.124-3.571A5.257,5.257,0,0,1,5.961,115.2c-1.1-2.831-1.155-8.175.945-10.574,5.761-6.58,14.31-9.819,24.07-9.122a3.243,3.243,0,0,1,2.545,4.9l-.574.965h2.727a1.307,1.307,0,1,1,0,2.614H31.461a9.415,9.415,0,0,0-.841,4.243,14.468,14.468,0,0,1,21.4,2.485h9.4a3.27,3.27,0,0,0,2.041-.718l9.561-7.682a1.307,1.307,0,0,1,.818-.288h7.818a3.934,3.934,0,0,1,2.295,7.129l-2.813,2.02a1.307,1.307,0,0,1-1.525-2.123l2.813-2.02a1.32,1.32,0,0,0-.77-2.393H74.3l-9.2,7.394a5.892,5.892,0,0,1-3.677,1.294H51.53l-8.462,3.235-4.658,1.78a14.028,14.028,0,0,0,8.487,2.878h2.87a8.069,8.069,0,0,1,7.067,4.2l2.16-1.551h0l17.08-12.268a1.307,1.307,0,1,1,1.525,2.123L62.112,124.837l2.817,1.733a14.4,14.4,0,1,1-4.017,6.825l-3.093-1.9v9.8a6.781,6.781,0,0,1-6.773,6.774h-6.3v.7h8.526a1.307,1.307,0,1,1,0,2.614H43.442a1.307,1.307,0,0,1-1.307-1.307v-2H30.145a1.307,1.307,0,0,1-1.1-2.007,16.355,16.355,0,0,0-.021-17.52l-1.9,1.8a14.379,14.379,0,1,1-25.148-.616Zm7.586,7.272a4.818,4.818,0,0,0,9.535.979l-1.989,1.891a3.96,3.96,0,1,1-5.457-5.739l1.988-1.891A4.825,4.825,0,0,0,9.562,136.994Zm-1.123-29.97a11,11,0,0,0,.019,7.371,3.737,3.737,0,0,0-.019-7.371Zm31.768.182a11.768,11.768,0,0,0-8.958,4.092c1.312,3.4,3.876,4.577,4.614,5.214l10.9-4.167,2.486-.95a11.793,11.793,0,0,0-9.043-4.189ZM57.722,127.99c.02.126.04.264.056.408l11.615,7.146.013.008,3.911,2.407a1.346,1.346,0,1,0,1.38-2.312l-4.1-2.522-.011-.007-6.115-3.762-.007,0-4.654-2.863ZM77.4,138.851a3.967,3.967,0,0,1-5.446,1.34l-1.3-.8a4.82,4.82,0,1,0,3.477-7.159l1.927,1.186a3.959,3.959,0,0,1,1.347,5.436Zm-14.339-1.857A11.779,11.779,0,1,0,67.254,128l4.018,2.471a7.431,7.431,0,1,1-3.861,6.922l-4.145-2.55A11.723,11.723,0,0,0,63.065,136.994Zm-30.709,8.455H51.045a4.165,4.165,0,0,0,4.16-4.16V129.268a5.451,5.451,0,0,0-4.552-5.365c-2.33-.389-7.557,1.008-13.382-3.166-4.12-2.953-7.859-4.838-9.017-10.374a12.035,12.035,0,0,1,.4-6.382H27.1a1.307,1.307,0,1,1,0-2.614h2.8l1.369-2.3a.629.629,0,0,0-.485-.952c-8.144-.582-15.337,1.8-20.491,6.746a6.349,6.349,0,0,1,.2,11.615l2.314,2a18.986,18.986,0,0,1,21.379,18.829A18.946,18.946,0,0,1,32.356,145.449Zm-6.874-20.871L22.728,127.2l0,0-9.273,8.818a1.346,1.346,0,0,0,1.856,1.951l9.271-8.817.009-.008,2.846-2.707A16.537,16.537,0,0,0,25.482,124.578Z" transform="translate(0 -95.413)" fill="#04487e"/><path d="M228.266,340.71h3.753a1.307,1.307,0,1,1,0,2.614h-3.753a1.307,1.307,0,1,1,0-2.614Z" transform="translate(-183.661 -297.97)" fill="#04487e"/></svg>