<svg xmlns="http://www.w3.org/2000/svg" width="102.85" height="44.568" viewBox="0 0 102.85 44.568"><g transform="translate(0 -0.5)"><path d="M100.271,29.614V16.045A3.579,3.579,0,0,0,96.7,12.47H69.438v-7.1A4.88,4.88,0,0,0,64.564.5H36.256A4.885,4.885,0,0,0,32.3,2.531L25.157,12.47H23.209A44.786,44.786,0,0,0,7.224,15.408a5.561,5.561,0,0,0-3.565,5.17v9H2.985A2.989,2.989,0,0,0,0,32.567v3.581a2.988,2.988,0,0,0,2.984,2.984H19.5a8.733,8.733,0,0,0,16.547,0H44.4a1.492,1.492,0,1,0,0-2.984H41.988a14.16,14.16,0,0,0-.539-3.581H69.32a14.16,14.16,0,0,0-.538,3.581H51.425a1.492,1.492,0,1,0,0,2.984H74.792a8.737,8.737,0,0,0,16.412,0h8.661a2.988,2.988,0,0,0,2.985-2.984V32.567a2.986,2.986,0,0,0-2.579-2.954Zm-2.985-4.431h-.224a.2.2,0,0,1-.2-.2v-2a.2.2,0,0,1,.2-.2h.224ZM66.454,5.375v7.1H49.343V3.485h15.22a1.892,1.892,0,0,1,1.89,1.89ZM6.643,22.772H7.5a1.988,1.988,0,0,1,1.8,1.159l.581,1.275H6.643Zm-3.659,9.8H14.093a14.159,14.159,0,0,0-.538,3.581H2.984Zm24.787,9.517a5.752,5.752,0,1,1,5.752-5.752A5.759,5.759,0,0,1,27.771,42.084ZM36.5,36.148a8.733,8.733,0,0,0-17.463,0h-2.5a11.236,11.236,0,0,1,22.463,0Zm3.713-6.565a14.215,14.215,0,0,0-24.889,0H6.643V28.19h4.116a2.419,2.419,0,0,0,2.2-3.424l-.946-2.074a4.983,4.983,0,0,0-4.527-2.9H6.772A2.561,2.561,0,0,1,8.285,18.2,41.814,41.814,0,0,1,23.21,15.455h7.53a1.492,1.492,0,0,0,0-2.984H28.831l5.889-8.2a1.9,1.9,0,0,1,1.535-.787h10.1v8.985H37.5a1.492,1.492,0,0,0,0,2.984H69.438v9a1.492,1.492,0,0,0,2.984,0v-9H96.7a.591.591,0,0,1,.59.59v3.743h-.225a3.192,3.192,0,0,0-3.188,3.188v2a3.192,3.192,0,0,0,3.188,3.188h.225v1.416H95.443a14.215,14.215,0,0,0-24.889,0ZM83,41.885a5.752,5.752,0,1,1,5.752-5.752A5.758,5.758,0,0,1,83,41.885ZM83,27.4a8.745,8.745,0,0,0-8.736,8.736v.015h-2.5a11.236,11.236,0,0,1,22.464,0h-2.5v-.015A8.746,8.746,0,0,0,83,27.4Zm16.868,8.751H97.214a14.159,14.159,0,0,0-.538-3.581h3.189v3.581Zm0,0" transform="translate(0 0)" fill="#04487e"/><path d="M197.623,86.094h-3.979a1.492,1.492,0,0,0,0,2.984h3.979a1.492,1.492,0,1,0,0-2.984Zm0,0" transform="translate(-153.553 -68.4)" fill="#04487e"/><path d="M295.678,86.094H291.7a1.492,1.492,0,1,0,0,2.984h3.979a1.492,1.492,0,0,0,0-2.984Zm0,0" transform="translate(-231.91 -68.4)" fill="#04487e"/><path d="M132.205,170.809a2.028,2.028,0,1,1-2.028-2.028A2.028,2.028,0,0,1,132.205,170.809Zm0,0" transform="translate(-102.406 -134.477)" fill="#04487e"/><path d="M407.134,169.818a2.028,2.028,0,1,1-2.028-2.028A2.028,2.028,0,0,1,407.134,169.818Zm0,0" transform="translate(-322.108 -133.684)" fill="#04487e"/></g></svg>