<svg xmlns="http://www.w3.org/2000/svg" width="112.069" height="46.651" viewBox="0 0 112.069 46.651"><g transform="translate(-1424.868 -2171.191)"><path d="M72.8,204.892a2.8,2.8,0,1,1-2.8-2.8A2.8,2.8,0,0,1,72.8,204.892Zm0,0" transform="translate(1370.744 2002.721)" fill="#04487e"/><path d="M108.948,38.857a1.864,1.864,0,0,0-1.493-.759c-10.688-1.132-60.393-1.131-73.834,0V13.816a1.867,1.867,0,0,0-1.867-1.867H11.207a1.866,1.866,0,0,0-1.584.878L.284,27.769A2.281,2.281,0,0,0,0,28.873V47.437A1.868,1.868,0,0,0,1.868,49.3H5.65a10.273,10.273,0,0,0,20.453,0h3.783v1.868a1.867,1.867,0,0,0,1.867,1.867H52.3a1.867,1.867,0,0,0,1.867-1.867V49.3H74.76a10.273,10.273,0,0,0,20.452,0H110.2a1.867,1.867,0,0,0,1.867-1.867V43.7a1.867,1.867,0,0,0-.373-1.11ZM12.242,15.685H17.52L15.279,26.9l-10.086.077ZM7.912,41.942a10.356,10.356,0,0,0-1,1.494c-.028.052-.068.1-.1.149a10.4,10.4,0,0,0-.747,1.868c-.011.037-.032.067-.041.1H3.735V41.834H7.983C7.955,41.867,7.938,41.908,7.912,41.942Zm7.965,12.966a6.537,6.537,0,0,1-6.538-6.537,3.378,3.378,0,0,1,.041-.411l.041-.315a6.491,6.491,0,0,1,12.91,0l.041.315a3.335,3.335,0,0,1,.041.411A6.537,6.537,0,0,1,15.877,54.908Zm14.009-9.339H25.72c0-.037-.03-.067-.041-.1a10.3,10.3,0,0,0-.747-1.868c-.028-.05-.065-.093-.094-.144a10.186,10.186,0,0,0-1-1.509c-.027-.033-.043-.075-.072-.108h6.119v3.733Zm0-7.471H3.735V30.726l12.929-.1h.16a1.867,1.867,0,0,0,1.816-1.494l2.69-13.448h8.555Zm20.545,9.339V49.3H33.621V41.834h16.81Zm26.591-5.495a10.32,10.32,0,0,0-1,1.494c-.028.052-.068.1-.1.149a10.408,10.408,0,0,0-.747,1.868c-.011.037-.032.067-.041.1H54.166V41.834H77.092C77.064,41.867,77.047,41.908,77.022,41.942Zm7.964,12.966a6.537,6.537,0,0,1-6.538-6.537,3.411,3.411,0,0,1,.041-.411l.041-.315a6.491,6.491,0,0,1,12.911,0l.041.315a3.227,3.227,0,0,1,.041.411A6.537,6.537,0,0,1,84.986,54.908Zm23.348-9.339H94.83c-.01-.037-.031-.067-.041-.1a10.251,10.251,0,0,0-.748-1.868c-.027-.05-.065-.093-.093-.144a10.192,10.192,0,0,0-1-1.509c-.026-.033-.043-.075-.071-.108H106.5l1.836,2.48Zm0,0" transform="translate(1424.868 2159.242)" fill="#04487e"/><path d="M428,204.892a2.8,2.8,0,1,1-2.8-2.8A2.8,2.8,0,0,1,428,204.892Zm0,0" transform="translate(1084.654 2002.721)" fill="#04487e"/></g></svg>