<svg xmlns="http://www.w3.org/2000/svg" width="111.908" height="73.439" viewBox="0 0 111.908 73.439"><path d="M13.988,229.774A14,14,0,0,1,26.228,237a13.983,13.983,0,0,1,26.091,4.824,7,7,0,0,0,5.383-6.8v-2.841H52.675a1.749,1.749,0,0,1,0-3.5H57.7v-3.06H50.49a1.749,1.749,0,0,1,0-3.5H57.7V213a1.749,1.749,0,1,1,3.5,0v22.021a10.507,10.507,0,0,1-8.839,10.36,13.983,13.983,0,0,1-26.132,5.145,13.986,13.986,0,1,1-12.24-20.751Zm24.48,24.48a10.491,10.491,0,1,0-10.491-10.491A10.5,10.5,0,0,0,38.468,254.254Zm-24.48,0A10.491,10.491,0,1,0,3.5,243.762,10.5,10.5,0,0,0,13.988,254.254Z" transform="translate(50.708 -184.311)" fill="#04487e"/><path d="M203.5,344a3.5,3.5,0,1,1-3.5,3.5A3.5,3.5,0,0,1,203.5,344Z" transform="translate(-138.801 -288.046)" fill="#04487e"/><path d="M91.5,344a3.5,3.5,0,1,1-3.5,3.5A3.5,3.5,0,0,1,91.5,344Z" transform="translate(-2.321 -288.046)" fill="#04487e"/><path d="M96.541,159.043H68.793a7,7,0,0,1-6.994-6.994V141.994A7,7,0,0,1,68.793,135H95.26a9.056,9.056,0,0,1,8.815,7.137l1.28,6.017a9.013,9.013,0,0,1-8.815,10.888ZM65.3,141.994v10.054a3.5,3.5,0,0,0,3.5,3.5H82.782V138.5H68.793A3.5,3.5,0,0,0,65.3,141.994Zm36.639,6.888-1.28-6.018A5.542,5.542,0,0,0,95.26,138.5H86.279v17.048H96.541A5.515,5.515,0,0,0,101.935,148.882Z" transform="translate(-7.157 -124.727)" fill="#04487e"/><path d="M372,269.809v-3.06a1.749,1.749,0,0,1,3.5,0v3.06a1.749,1.749,0,0,1-3.5,0Z" transform="translate(-344.897 -226.313)" fill="#04487e"/><path d="M1.749,139.8h9.18V98.491A10.5,10.5,0,0,1,21.42,88h80a10.5,10.5,0,0,1,10.491,10.491v4.59a1.749,1.749,0,0,1-3.5,0v-4.59a7,7,0,0,0-6.994-6.994h-80a7,7,0,0,0-6.994,6.994V145.7h5.246V116.414a7,7,0,0,1,6.994-6.994H39.343a7,7,0,0,1,6.994,6.994v24.48a1.749,1.749,0,0,1-3.5,0v-24.48a3.5,3.5,0,0,0-3.5-3.5H26.665a3.5,3.5,0,0,0-3.5,3.5V145.7h21.42a1.749,1.749,0,1,1,0,3.5H1.749A1.749,1.749,0,0,1,0,147.451v-5.9A1.749,1.749,0,0,1,1.749,139.8ZM3.5,145.7h7.431v-2.4H3.5Z" transform="translate(0 -88)" fill="#04487e"/><path d="M2.432,185.347a1.748,1.748,0,1,1,0-3.23A1.749,1.749,0,0,1,2.432,185.347Z" transform="translate(108.396 -161.438)" fill="#04487e"/></svg>