<svg xmlns="http://www.w3.org/2000/svg" width="75.456" height="37.735" viewBox="0 0 75.456 37.735"><path d="M6,126.015c.03-.013.061-.024.092-.035.379-.139.777-.271,1.2-.392,4.952-1.409,15.232-1.425,15.668-1.425h2.17l4.277-7.168c1.951-3.254,3.78-5.017,7.855-5.017h0l16.509,0c3.268,0,6.514,2.2,8.471,5.739l.015.028,1.953,3.738,7.36.887.08.012a4.41,4.41,0,0,1,3.8,4.547v8.964c0,3.651-3.06,5.4-5.4,6.025A8.086,8.086,0,0,1,54,142.971H21.38a8.086,8.086,0,0,1-15.947,0H1.347A1.347,1.347,0,0,1,0,141.624v-7.846C0,131.2,1.083,127.862,6,126.015Zm-2.458,4.9H6.681v-1.32a1.421,1.421,0,0,0-.37-.8A6.453,6.453,0,0,0,3.543,130.913Zm24.727-6.75H55.235a.584.584,0,0,0,.478-.19c.091-.135.019-.384-.03-.514l-1.453-3.016a2.92,2.92,0,0,0-2.979-1.756H31.537Zm44.491,3.957H71.412a1.349,1.349,0,0,0-1.347,1.347v1.376h2.7Zm-10.786,18.9a5.394,5.394,0,1,0-5.392-5.394A5.4,5.4,0,0,0,61.975,147.018Zm-48.57,0a5.394,5.394,0,1,0-5.392-5.394A5.4,5.4,0,0,0,13.406,147.018ZM2.695,140.277H5.433a8.086,8.086,0,0,1,15.948,0H54A8.088,8.088,0,0,1,69.7,139.211c1.257-.395,3.064-1.311,3.064-3.317v-2.358H68.717a1.347,1.347,0,0,1-1.347-1.347v-2.723a4.047,4.047,0,0,1,4.042-4.042h.716a2.168,2.168,0,0,0-.92-.382l-7.931-.955a1.348,1.348,0,0,1-1.121-.722l-2.276-4.356c-1.483-2.674-3.821-4.334-6.105-4.335l-16.509,0h0a4.872,4.872,0,0,0-3.8,1.32H51.251a5.572,5.572,0,0,1,5.4,3.274l1.478,3.068c.013.027.025.053.036.081a3.2,3.2,0,0,1-.221,3.065,3.239,3.239,0,0,1-2.712,1.377H22.962c-.1,0-9.086.013-14,1.091a3.785,3.785,0,0,1,.411,1.645v2.669a1.347,1.347,0,0,1-1.347,1.347h0l-5.329,0c0,.057,0,.113,0,.171v6.5Z" transform="translate(0 -111.977)" fill="#04487e"/><path d="M113.4,224.413h35.108a1.347,1.347,0,1,1,0,2.695H113.4a1.347,1.347,0,0,1,0-2.695Z" transform="translate(-93.273 -205.476)" fill="#04487e"/><path d="M57.69,266.952a1.348,1.348,0,0,1,1.347,1.347A1.3,1.3,0,1,0,60.333,267a1.347,1.347,0,0,1,0-2.695,3.99,3.99,0,1,1-3.99,3.99A1.347,1.347,0,0,1,57.69,266.952Z" transform="translate(1.643 -238.653)" fill="#04487e"/><path d="M346.06,266.952a1.348,1.348,0,0,1,1.347,1.347A1.3,1.3,0,1,0,348.7,267a1.347,1.347,0,0,1,0-2.695,3.99,3.99,0,1,1-3.99,3.99A1.347,1.347,0,0,1,346.06,266.952Z" transform="translate(-335.296 -238.653)" fill="#04487e"/></svg>