<svg xmlns="http://www.w3.org/2000/svg" width="930" height="305.477" viewBox="0 0 930 305.477">
  <g id="Grupo_160" data-name="Grupo 160" transform="translate(-1802.25 -6367.397)">
    <g id="Grupo_148" data-name="Grupo 148" transform="translate(2207.506 6368.204)">
      <path id="Trazado_267" data-name="Trazado 267" d="M304.351,302.082V280.106S303.189,262.9,285.227,262.9H257.3v39.184H228.641V189.118h69.59s36.32-4.4,36.32,33.063a28.8,28.8,0,0,1-16.056,26.374s13.94,6.511,13.94,25.626v27.9H304.351m-47.044-65.751h29.641c8.608,0,15.684-4.782,15.684-10.7s-7.076-10.711-15.684-10.711H257.307v21.413h0" transform="translate(-228.641 -188.959)"/>
    </g>
    <g id="Grupo_149" data-name="Grupo 149" transform="translate(2363.884 6367.397)">
      <path id="Trazado_268" data-name="Trazado 268" d="M558.3,302.517l-45.491-75.5v75.5H456.621l-10.142-23.7H394.106l-9.957,23.7H339.22s-38.6-5.538-38.6-53.327c0-62.707,43.787-60.217,45.3-60.6l35.366.965v25.42l-29.042.374s-18.935,0-21.24,24.67a76.479,76.479,0,0,0-.371,7.852c.1,38.188,33.148,26.332,34.228,25.98l35.553-84.3h40.133l43,102.459V189.553h40.531l44.928,74.363V189.553H597.88V302.517H558.3M406.342,249.956h27.9l-13.751-33.645-14.146,33.645h0" transform="translate(-300.617 -188.588)"/>
    </g>
    <g id="Grupo_150" data-name="Grupo 150" transform="translate(1802.25 6368.362)">
      <path id="Trazado_269" data-name="Trazado 269" d="M298.064,302V224.014L262.137,302h-23.51L202.494,224.39V302H145.91l-9.935-23.7H83.6L73.465,302H42.114L89.708,189.032h40.344l43.579,103.8v-103.8h45.3l31.549,70.152,31.364-70.152h45.3V302H298.064M95.826,249.436h27.908L109.785,215.79,95.826,249.436h0" transform="translate(-42.114 -189.032)"/>
    </g>
    <g id="Grupo_151" data-name="Grupo 151" transform="translate(2103.13 6368.364)">
      <path id="Trazado_270" data-name="Trazado 270" d="M180.6,302V189.033h89.482v26.374H209.474V232.8h59.074v25.618H209.474V277.54h60.608V302H180.6" transform="translate(-180.6 -189.033)"/>
    </g>
    <g id="Grupo_152" data-name="Grupo 152" transform="translate(2325.282 6368.364)">
      <path id="Trazado_271" data-name="Trazado 271" d="M282.85,302.38V189.033H311.7V302.38H282.85" transform="translate(-282.85 -189.033)"/>
    </g>
    <g id="Grupo_159" data-name="Grupo 159" transform="translate(2010.037 6559.396)">
      <g id="Grupo_154" data-name="Grupo 154" transform="translate(308.15 0.344)">
        <path id="Trazado_272" data-name="Trazado 272" d="M355.3,390.25V368.262s-1.16-17.194-19.124-17.194h-27.9V390.25H279.584V277.277h69.59s36.322-4.4,36.322,33.074a28.83,28.83,0,0,1-16.054,26.387s13.775,6.492,13.775,25.594v27.921H355.3M308.271,324.5h29.643c8.586,0,15.661-4.769,15.661-10.7s-7.074-10.7-15.661-10.7H308.271V324.5h0" transform="translate(-279.584 -277.118)"/>
      </g>
      <g id="Grupo_155" data-name="Grupo 155" transform="translate(0 0)">
        <path id="Trazado_273" data-name="Trazado 273" d="M330.45,390.25H305.393L275.026,356.79,244.411,390.25H137.752V277.086H242.13l32.9,35.94,33.065-35.753h21.985v-.187H399.65s36.322-4.022,36.322,33.244c0,33.27-12.054,43.6-49.143,43.6H358.746V390.25h-28.3M294.523,334.64l35.551,39.368V295.434L294.523,334.64h0M166.626,365.8h60.4l28.294-31.158-28.294-30.991h-60.4v17.383h58.868v25.639H166.626V365.8h0m192.118-41.321h29.62c8.608,0,15.682-4.771,15.682-10.7,0-5.912-7.074-10.7-15.682-10.7h-29.62v21.407h0" transform="translate(-137.752 -276.96)"/>
      </g>
      <g id="Grupo_156" data-name="Grupo 156" transform="translate(525.327 0.294)">
        <path id="Trazado_274" data-name="Trazado 274" d="M433.636,389.905H382.588V363.892h44.746s16.056,1.912,16.056-8.958c0-10.166-24.268-9.377-24.268-9.377S379.544,349,379.544,311.914c0-36.9,35.738-34.8,35.738-34.8h55.07v26.376H426.008s-15.308-3.068-15.308,8.05c0,9.334,20.825,8.006,20.825,8.006s43.785-3.235,43.785,30.78c0,36.487-28.21,39.722-38.206,39.722-2.157,0-3.468-.146-3.468-.146" transform="translate(-379.544 -277.095)"/>
      </g>
      <g id="Grupo_157" data-name="Grupo 157" transform="translate(425.928 0.503)">
        <path id="Trazado_275" data-name="Trazado 275" d="M333.794,389.979V277.191h89.443v26.187H362.644v17.383h59.076V346.4H362.644v19.126h60.593v24.453H333.794" transform="translate(-333.794 -277.191)"/>
      </g>
      <g id="Grupo_158" data-name="Grupo 158" transform="translate(626.445 0.294)">
        <path id="Trazado_276" data-name="Trazado 276" d="M480.18,389.905H429.134V363.892h44.554s16.245,1.912,16.245-8.958c0-10.166-24.266-9.377-24.266-9.377S426.086,349,426.086,311.914c0-36.9,35.738-34.8,35.738-34.8h54.885v26.376H472.531s-15.291-3.068-15.291,8.05c0,9.334,20.849,8.006,20.849,8.006s43.766-3.235,43.766,30.78c0,36.487-28.207,39.722-38.2,39.722-2.162,0-3.47-.146-3.47-.146" transform="translate(-426.086 -277.095)"/>
      </g>
    </g>
  </g>
</svg>
