<svg xmlns="http://www.w3.org/2000/svg" width="512" height="282.688" viewBox="0 0 512 282.688">
  <path id="carnet" d="M254.6,88.494c88.143,0,161.536,33.712,175.934,77.959a50.4,50.4,0,0,0,2.809-16.154c0-51.973-80.066-94.464-179.095-94.464-98.678,0-179.095,42.14-179.095,94.464a50.4,50.4,0,0,0,2.809,16.154C93.059,122.206,166.453,88.494,254.6,88.494Zm0-55.835c88.143,0,161.536,33.712,175.934,77.959a50.4,50.4,0,0,0,2.809-16.154C433.69,42.14,353.624,0,254.6,0,155.918,0,75.5,42.14,75.5,94.464a50.4,50.4,0,0,0,2.809,16.154C93.059,66.37,166.453,32.658,254.6,32.658Zm73.394,225.8L291.468,211.4H273.909v69.882h16.856V235.632l36.17,45.652h17.909V211.4H327.989ZM53.026,266.886A21.019,21.019,0,0,1,40.735,270.4c-6.321,0-11.94-1.756-15.8-5.619-4.214-3.863-5.97-10.184-5.97-18.963q0-12.642,6.321-17.909c4.214-3.863,9.481-5.619,16.154-5.619a22.853,22.853,0,0,1,12.291,3.16,15.731,15.731,0,0,1,6.672,8.428l17.909-3.161c-2.107-5.619-4.916-9.833-9.13-12.993-6.672-4.916-15.8-7.374-26.689-7.374-12.642,0-22.475,3.161-30.2,9.481C3.863,226.5,0,235.281,0,247.221c0,10.886,3.863,19.665,11.588,25.986s17.207,9.482,29.147,9.482c9.481,0,17.558-1.756,23.879-5.619s10.535-9.482,13.344-17.207L60.4,255.649C58.645,260.916,56.187,264.428,53.026,266.886ZM441.064,211.4v11.94h26.689v57.942h17.91V223.342H512V211.4Zm-59,39.331h44.949v-11.94H382.069V223.342h48.11V211.4H364.159v69.882h67.775v-11.94H382.069Zm-139.413,5.619a40.039,40.039,0,0,0-9.481-5.97c7.726-1.054,13.7-3.16,17.558-6.321a16.858,16.858,0,0,0,5.97-12.993,17.163,17.163,0,0,0-3.863-10.886,18.348,18.348,0,0,0-10.535-6.672c-4.214-1.4-11.237-1.756-20.719-1.756H183.66v69.882h17.909V252.488h3.512a53.149,53.149,0,0,1,9.13.7A11.05,11.05,0,0,1,219.479,256c1.756,1.4,4.916,4.916,9.481,10.184l12.993,15.1h21.421l-10.886-13.7C248.626,262.321,245.465,258.458,242.656,256.351Zm-27.742-15.1H201.569V223.342h14.047c7.374,0,11.588,0,12.993.351a11.715,11.715,0,0,1,6.672,2.809,6.987,6.987,0,0,1,2.458,5.619,8.626,8.626,0,0,1-1.756,5.268,7.687,7.687,0,0,1-4.916,2.809C228.96,240.9,223.693,241.251,214.914,241.251ZM119.045,211.4,84.28,281.284h19.314l7.374-15.8h35.819l7.726,15.8h19.665L138.359,211.4Zm-2.809,42.14,11.94-25.986,12.291,25.986Z"/>
</svg>
