<?xml version="1.0" encoding="iso-8859-1"?>
<!-- Generator: Adobe Illustrator 19.0.0, SVG Export Plug-In . SVG Version: 6.00 Build 0)  -->
<svg version="1.1" id="Layer_1" xmlns="http://www.w3.org/2000/svg" xmlns:xlink="http://www.w3.org/1999/xlink" x="0px" y="0px"
	 viewBox="0 0 496.2 496.2" style="enable-background:new 0 0 496.2 496.2;" xml:space="preserve">
<path style="fill:#FABC3D;" d="M0,248.1C0,111.1,111.1,0,248.1,0s248.1,111.1,248.1,248.1S385.1,496.2,248.1,496.2S0,385.1,0,248.1z
	"/>
<path style="fill:#1B7A9A;" d="M419.3,339.6c0,11-8.9,19.9-19.9,19.9H96.8c-11,0-19.9-8.9-19.9-19.9V158.1c0-11,8.9-19.9,19.9-19.9
	h302.6c11,0,19.9,8.9,19.9,19.9L419.3,339.6L419.3,339.6z"/>
<g>
	<path style="fill:#2992AD;" d="M246.8,160c0,0-3.3,2.1-5,4.9c-1.7,2.9-1.7,5.3-1.7,5.3s2.1,1.2,4.2,1.2c2.1,0,7.8-2.1,7.8-4.9
		C252.2,163.7,246.8,160,246.8,160z"/>
	<path style="fill:#2992AD;" d="M359,203.6c2.5,0.4,6.2-2,6.2-2c7.1,2,17.5,36.6,17.5,36.6c-10.4-62.2-52-88.8-82.3-100h-17.8
		c0.2,0.4,0.3,0.7,0.2,0.9c-0.8,2-3.7,4.5-6.2,3.3s-10.4-1.6-14.1,0.8c-3.7,2.5-5.4,9.5-5,12.3c0.4,2.9,11.6,2.1,12.9,2.1
		c1.2,0-0.4-4.9-2.5-6.2c-2.1-1.2-0.8-4.1,2.1-4.5s4.2,3.3,5.8,4.5c1.7,1.2,1.2,9.9,1.2,9.9c-1.2,2.9-10-1.6-13.3-0.4
		c-3.3,1.2-8.3,11.9-10.1,12.9c-1.8,0.9-0.4,7.5,0.2,10.6c0.6,3-11.6,0.4-14.1,2.9s0,10.7,1.2,13.2c1.3,2.5,8.7,0.8,11.6,0.8
		s5.8-6.2,6.6-8.2c0.8-2.1,6.2-6.2,10-7.4c3.7-1.2,2.1,4.5,2.5,6.6s7.9,1.2,8.3,3.3s5-1.2,7.5-3.3c2.5-2,4.2-2.9,6.6,0.4
		c2.5,3.3,8.7-0.4,13.3-0.4c4.6,0,10-4.9,12.5-1.2s-5,10.3-5,10.3l2.3,2.1c-8.4,1.4-25.6,3.5-33-0.4c0,0-6.6-8.6-25.3-1.2
		c0,0-32.8,19.7-33.2,39.5c0,0-9.1,39,25.3,44.4c0,0,36.1-11.9,40.7,2.1c0,0,1.2,17.3,4.6,21c0,0,5.4,7.9,5,12.7
		c0,0-3.7,16,1.2,28.4c0,0,1.8,5.7,2.6,10h9.9c10.1-5.1,25.5-15.6,32-34.7c0,0,5.8-20.6,6.2-25.9c0,0,8.3-23.8,10.4-31.2
		c0,0,7.5-22.2-5-19.3c0,0-8.7-8.2-15-14.4c-3.1-3.1-7.8-10.6-12-17.6l18.3,16.8c9.1,7.4,14.1-3.7,15-7.4c0.8-3.7-0.4-9.5-0.8-13.1
		c-0.4-3.7-0.8-4.5-7.9-5.4c-7.1-0.8-13.7-7.8-12.9-9.9C344,195.4,356.5,203.2,359,203.6z"/>
	<path style="fill:#2992AD;" d="M140.6,191.5c-2.6,5.5-6.9,20.5-4,14.7s10.1-10,16.7-15.7c6.7-5.8,26.6-14,31.2-15.6
		c4.6-1.7,4.2-10.3,6.2-13.6c2.1-3.3,5.8-8.2,10.4-11.5c4.6-3.3,15.8-11.1,18.3-10.3s-8.7,8.2-12.9,11.5s2.9,6.2,5,4.5
		s10.4-5.7,15.4-7c3.4-0.8,9.2-6.8,12.5-10.4h-31.3c-5.6,1.2-9.6,2.2-9.6,2.2C158.3,160,140.6,191.5,140.6,191.5z"/>
	<path style="fill:#2992AD;" d="M186.1,347.8c3.3-2.1,0.4-7-0.4-9.9c-0.8-2.9,1.7-10.3,2.9-15.2c1.2-4.9-4.6-9.4-8.7-13.1
		c-4.2-3.7-11.2-6.2-15-7.8c-3.7-1.6-6.2-2-7.9-5.3s0-10.3,0-13.2c0-2.9-7.5-7.4-9.6-11.1s-7.6-10.7-11.6-14.8
		c-4-4.1-5.4-3.7-10-1.6c-4.6,2.1-0.4,24.3-0.4,24.3c5.8,42.3,27.8,66.9,43.8,79.5h13.1c-0.8-2.6-1.5-5-1.6-6.3
		C180.3,349.5,182.8,349.9,186.1,347.8z"/>
	<path style="fill:#2992AD;" d="M124.9,248.3c1.9-13.5,1.8-13.2,6.7-31.2c2.5,0,0.4,14.4-0.4,17.3L124.9,248.3z"/>
</g>
<g>
	<path style="fill:#CDCDCE;" d="M101.2,302.1v19.2h-2.9v-14.7h-2.9v-1c0.4-0.1,0.9-0.3,1.3-0.4s0.9-0.4,1.2-0.6s0.7-0.5,1-0.8
		s0.5-0.7,0.6-1.1c0.1-0.3,0.2-0.5,0.2-0.5h1.5V302.1z"/>
	<path style="fill:#CDCDCE;" d="M122.3,304.7v3.2c0,0.4,0,0.7-0.1,0.9s-0.2,0.5-0.4,0.6s-0.4,0.4-0.6,0.5s-0.5,0.3-0.8,0.5l-6.8,4.2
		c-0.2,0.1-0.3,0.1-0.4,0.2s-0.2,0.2-0.2,0.3s-0.1,0.3-0.1,0.5s0,0.5,0,0.9v3.4h9.5v1.4H110v-5.2c0-0.2,0-0.4,0.1-0.5
		s0.1-0.3,0.2-0.5s0.2-0.3,0.3-0.3s0.2-0.2,0.3-0.2l7.7-4.7c0.3-0.1,0.5-0.3,0.6-0.6s0.2-0.6,0.2-1v-3c0-0.3,0-0.5-0.1-0.8
		s-0.1-0.4-0.2-0.5s-0.3-0.2-0.5-0.3s-0.5-0.1-0.9-0.1h-3.9c-0.1,0-0.3,0-0.4,0.1s-0.2,0.2-0.4,0.3s-0.2,0.3-0.2,0.5
		s-0.1,0.4-0.1,0.6v4.3h-2.9v-4.6c0-0.3,0.1-0.6,0.2-0.9s0.4-0.6,0.6-0.9s0.5-0.5,0.8-0.7s0.5-0.3,0.8-0.3h7.4c0.3,0,0.7,0.1,1,0.2
		s0.6,0.3,0.8,0.5s0.4,0.5,0.6,0.8S122.3,304.3,122.3,304.7z"/>
	<path style="fill:#CDCDCE;" d="M140.2,304.7v4.4c0,0.6-0.1,1-0.3,1.3s-0.5,0.6-0.9,0.7c-0.2,0.1-0.3,0.1-0.3,0.2
		c0.7,0.4,1.1,0.7,1.2,0.9c0.2,0.5,0.4,1.3,0.4,2.2v4.3c0,0.4-0.1,0.7-0.2,1s-0.3,0.6-0.6,0.8s-0.5,0.4-0.8,0.5s-0.6,0.2-1,0.2h-7.4
		c-0.2,0-0.3,0-0.4,0s-0.2-0.1-0.3-0.1s-0.2-0.2-0.3-0.3s-0.3-0.3-0.4-0.4c-0.6-0.6-0.8-1.2-0.8-1.8V314h2.9v4.3
		c0,0.3,0,0.5,0.1,0.7s0.2,0.3,0.3,0.5s0.2,0.2,0.4,0.3s0.3,0.1,0.4,0.1h3.9c0.4,0,0.7,0,0.9-0.1s0.4-0.2,0.5-0.3s0.2-0.3,0.2-0.5
		s0.1-0.5,0.1-0.8v-4.5c0-0.2,0-0.5-0.1-0.7s-0.1-0.4-0.2-0.5s-0.2-0.3-0.3-0.3s-0.2-0.1-0.3-0.1h-4.8v-1.7h4.2c0.3,0,0.6,0,0.8-0.1
		s0.3-0.1,0.4-0.2s0.2-0.2,0.2-0.3s0-0.3,0-0.5v-4.1c0-0.3,0-0.6-0.1-0.8s-0.1-0.4-0.2-0.5s-0.3-0.2-0.5-0.3s-0.5-0.1-0.9-0.1h-3.9
		c-0.1,0-0.3,0-0.4,0.1s-0.2,0.2-0.4,0.3s-0.2,0.3-0.3,0.5s-0.1,0.4-0.1,0.7v3.3H128v-3.5c0-0.3,0.1-0.6,0.2-0.9s0.4-0.6,0.6-0.9
		s0.5-0.5,0.8-0.7s0.5-0.3,0.8-0.3h7.4c0.3,0,0.7,0.1,1,0.2s0.6,0.3,0.8,0.5s0.4,0.5,0.6,0.8S140.2,304.3,140.2,304.7z"/>
	<path style="fill:#CDCDCE;" d="M156.8,302.1v12.7h1.7v1.6h-1.7v4.8h-2.9v-4.8h-8.7v-2.8l7.9-11.5H156.8z M153.9,303.7l-7.4,11.1
		h7.4V303.7z"/>
	<path style="fill:#CDCDCE;" d="M186.4,302.1v1.5h-9.5v4.9l0.1-0.1c0.1-0.1,0.1-0.1,0.2-0.2s0.2-0.2,0.2-0.2s0.1-0.1,0.2-0.1
		c0.6-0.2,1-0.3,1.3-0.3h5.1c0.3,0,0.5,0.1,0.8,0.2s0.5,0.3,0.8,0.6s0.4,0.5,0.6,0.7s0.2,0.5,0.2,0.7v9c0,0.4-0.1,0.7-0.2,1
		s-0.3,0.6-0.6,0.8s-0.5,0.4-0.8,0.5s-0.6,0.2-1,0.2h-7.4c-0.3,0-0.6-0.1-0.9-0.3s-0.5-0.4-0.8-0.6s-0.4-0.6-0.5-0.9
		s-0.2-0.6-0.2-0.9v-3h2.9v2.7c0,0.6,0.1,1,0.3,1.3s0.5,0.4,0.8,0.4h4c0.5,0,0.9-0.1,1.1-0.4s0.4-0.7,0.4-1.4v-7.8
		c0-0.5-0.1-0.8-0.3-1.1s-0.5-0.4-0.8-0.4h-3.5c-0.4,0-0.7,0.2-1.1,0.5s-0.6,0.9-0.8,1.5c-0.1,0.3-1.1,0.5-3,0.5v-9.3H186.4z"/>
	<path style="fill:#CDCDCE;" d="M204.3,304.8v2.2h-2.9v-1.9c0-0.5-0.1-0.9-0.3-1.2s-0.5-0.5-0.9-0.5h-3.9c-0.2,0-0.4,0-0.6,0.1
		s-0.3,0.2-0.5,0.3s-0.2,0.3-0.3,0.5s-0.1,0.5-0.1,0.8c0,0.2,0,0.5,0,0.8s0,0.6,0,0.9s0,0.6,0.1,0.8s0.1,0.3,0.1,0.3h6.9
		c0.3,0,0.5,0.1,0.8,0.2s0.5,0.4,0.8,0.6s0.4,0.6,0.6,0.9s0.2,0.6,0.2,0.9v8.1c0,0.4-0.1,0.7-0.2,1s-0.3,0.6-0.6,0.8
		s-0.5,0.4-0.8,0.5s-0.6,0.2-1,0.2h-7.4c-0.3,0-0.6-0.1-0.9-0.2s-0.5-0.3-0.8-0.5s-0.4-0.5-0.5-0.8s-0.2-0.7-0.2-1.1v-13.9
		c0-0.4,0.1-0.7,0.2-1s0.3-0.6,0.6-0.8s0.5-0.4,0.8-0.5s0.6-0.2,1-0.2h7.4c0.3,0,0.5,0.1,0.8,0.2s0.5,0.4,0.8,0.6s0.4,0.5,0.6,0.9
		S204.3,304.5,204.3,304.8z M201.4,310.9c0-0.5-0.1-0.9-0.3-1.2s-0.5-0.5-0.9-0.5h-3.9c-0.2,0-0.4,0-0.6,0.1s-0.3,0.2-0.5,0.3
		s-0.2,0.3-0.3,0.6s-0.1,0.5-0.1,0.9v7.3c0,0.6,0.1,1,0.3,1.3s0.5,0.4,0.8,0.4h4c0.5,0,0.9-0.1,1.1-0.4s0.4-0.7,0.4-1.4V310.9z"/>
	<path style="fill:#CDCDCE;" d="M222.2,302.9c0,0.2,0,0.4,0,0.6s0,0.3-0.1,0.5l-4.9,17.3h-3.3l6.1-16.9c0-0.2,0.1-0.3,0.1-0.4
		s0-0.2,0-0.3c-0.1-0.1-0.3-0.2-0.8-0.2h-5.6c-0.2,0-0.4,0-0.5,0.1s-0.3,0.2-0.4,0.3s-0.2,0.2-0.2,0.4s-0.1,0.3-0.1,0.4v3.7h-2.9
		V305c0-0.4,0.1-0.8,0.2-1.2s0.4-0.6,0.6-0.9s0.5-0.4,0.8-0.5s0.6-0.2,0.9-0.2h8.8C221.7,302.1,222,302.4,222.2,302.9z"/>
	<path style="fill:#CDCDCE;" d="M238.8,304.1v3.5c0,0.3-0.1,0.5-0.2,0.8s-0.4,0.6-0.8,0.8c0.1,0,0.3,0,0.4,0.1s0.3,0.2,0.5,0.3
		s0.3,0.3,0.5,0.4s0.3,0.3,0.4,0.5c0.3,0.5,0.4,1.2,0.4,2v6.1c0,0.3-0.1,0.7-0.2,1s-0.3,0.6-0.5,0.8s-0.5,0.4-0.8,0.6
		s-0.7,0.2-1.1,0.2H230c-0.3,0-0.6-0.1-0.9-0.2s-0.5-0.3-0.8-0.6s-0.4-0.5-0.5-0.9s-0.2-0.7-0.2-1v-5.8c0-0.4,0-0.7,0.1-1.1
		s0.1-0.6,0.3-0.9s0.3-0.5,0.5-0.7s0.5-0.4,0.9-0.5c0.3-0.1,0.5-0.2,0.5-0.2s0,0-0.1-0.1s-0.1-0.1-0.2-0.2s-0.2-0.1-0.3-0.2
		s-0.2-0.2-0.2-0.3c-0.2-0.6-0.3-0.9-0.3-1v-3.4c0-0.2,0-0.4,0.1-0.7s0.2-0.4,0.3-0.6s0.3-0.3,0.6-0.5s0.5-0.2,0.9-0.2h6.3
		c0.3,0,0.5,0.1,0.8,0.2s0.4,0.2,0.6,0.4s0.3,0.4,0.4,0.6S238.8,303.8,238.8,304.1z M237.1,311.3c0-0.3,0-0.5-0.1-0.7
		s-0.2-0.4-0.3-0.5s-0.3-0.2-0.4-0.3s-0.3-0.1-0.5-0.1h-3.9c-0.5,0-0.8,0.1-1.1,0.3s-0.3,0.6-0.3,1.1v7.2c0,0.2,0,0.4,0.1,0.5
		s0.1,0.3,0.2,0.5s0.2,0.3,0.3,0.4s0.3,0.1,0.5,0.1h3.9c0.4,0,0.7,0,0.9-0.1s0.4-0.1,0.5-0.3s0.2-0.3,0.2-0.4s0-0.4,0-0.6
		L237.1,311.3L237.1,311.3z M235.9,304.9c0-0.3,0-0.6-0.1-0.8s-0.1-0.3-0.2-0.4s-0.2-0.2-0.3-0.2s-0.2,0-0.3,0h-2.2
		c-0.4,0-0.7,0.1-0.9,0.3s-0.3,0.6-0.3,1.1v2c0,0.1,0,0.2,0,0.4s0.1,0.3,0.1,0.5s0.2,0.3,0.3,0.4s0.4,0.2,0.6,0.2h2
		c0.2,0,0.4,0,0.5-0.1s0.3-0.1,0.3-0.2s0.1-0.3,0.2-0.5s0-0.5,0-0.8v-1.9H235.9z"/>
	<path style="fill:#CDCDCE;" d="M268.4,304.7v14c0,0.3-0.1,0.7-0.2,1s-0.3,0.6-0.5,0.8s-0.5,0.4-0.8,0.6s-0.7,0.2-1.1,0.2h-7.4
		c-0.3,0-0.6-0.1-0.9-0.2s-0.5-0.3-0.8-0.6s-0.4-0.5-0.5-0.9s-0.2-0.7-0.2-1v-1.8h2.9v1.6c0,0.2,0,0.4,0.1,0.5s0.1,0.3,0.2,0.5
		s0.2,0.3,0.3,0.4s0.3,0.1,0.5,0.1h3.9c0.4,0,0.7,0,0.9-0.1s0.4-0.1,0.5-0.3s0.2-0.3,0.2-0.4s0-0.4,0-0.6v-3.4
		c-0.1,0.1-0.2,0.2-0.2,0.3s-0.2,0.1-0.2,0.1s-0.2,0-0.3,0H259c-0.4,0-0.8-0.1-1.2-0.2s-0.7-0.3-0.9-0.6s-0.5-0.6-0.6-1.1
		s-0.2-1-0.2-1.6v-7.2c0-0.4,0.1-0.7,0.2-1s0.3-0.6,0.5-0.9s0.5-0.4,0.8-0.6s0.6-0.2,0.9-0.2h7.4c0.4,0,0.8,0.1,1.1,0.2
		s0.6,0.3,0.8,0.6s0.4,0.5,0.5,0.8S268.4,304.3,268.4,304.7z M265.5,305c0-0.2,0-0.4,0-0.6s-0.1-0.3-0.2-0.5s-0.3-0.2-0.5-0.3
		s-0.5-0.1-0.9-0.1H260c-0.1,0-0.3,0-0.4,0.1s-0.2,0.2-0.4,0.4s-0.2,0.3-0.2,0.5s-0.1,0.4-0.1,0.6v7.5c0,0.5,0.1,0.8,0.4,1.1
		s0.6,0.3,1.1,0.3h3.9c0.5,0,0.8-0.1,1-0.4s0.3-0.7,0.3-1.2V305H265.5z"/>
	<path style="fill:#CDCDCE;" d="M286.2,304.7v14c0,0.3-0.1,0.7-0.2,1s-0.3,0.6-0.5,0.8s-0.5,0.4-0.8,0.6s-0.7,0.2-1.1,0.2h-7.4
		c-0.3,0-0.6-0.1-0.9-0.2s-0.5-0.3-0.8-0.6s-0.4-0.5-0.5-0.9s-0.2-0.7-0.2-1v-13.8c0-0.4,0.1-0.7,0.2-1s0.3-0.6,0.5-0.9
		s0.5-0.4,0.8-0.6s0.6-0.2,0.9-0.2h7.4c0.4,0,0.8,0.1,1.1,0.2s0.6,0.3,0.8,0.6s0.4,0.5,0.5,0.8S286.2,304.3,286.2,304.7z M283.4,305
		c0-0.2,0-0.4,0-0.6s-0.1-0.3-0.2-0.5s-0.3-0.2-0.5-0.3s-0.5-0.1-0.9-0.1h-3.9c-0.1,0-0.3,0-0.4,0.1s-0.2,0.2-0.4,0.4
		s-0.2,0.3-0.2,0.5s-0.1,0.4-0.1,0.6v13.3c0,0.2,0,0.4,0.1,0.5s0.1,0.3,0.2,0.5s0.2,0.3,0.3,0.4s0.3,0.1,0.5,0.1h3.9
		c0.4,0,0.7,0,0.9-0.1s0.4-0.1,0.5-0.3s0.2-0.3,0.2-0.4s0-0.4,0-0.6V305z"/>
	<path style="fill:#CDCDCE;" d="M300.8,302.1v19.2h-2.9v-14.7H295v-1c0.4-0.1,0.9-0.3,1.3-0.4s0.9-0.4,1.2-0.6s0.7-0.5,1-0.8
		s0.5-0.7,0.6-1.1c0.1-0.3,0.2-0.5,0.2-0.5h1.5V302.1z"/>
	<path style="fill:#CDCDCE;" d="M321.9,304.7v3.2c0,0.4,0,0.7-0.1,0.9s-0.2,0.5-0.4,0.6s-0.4,0.4-0.6,0.5s-0.5,0.3-0.8,0.5l-6.8,4.2
		c-0.2,0.1-0.3,0.1-0.4,0.2s-0.2,0.2-0.2,0.3s-0.1,0.3-0.1,0.5s0,0.5,0,0.9v3.4h9.5v1.4h-12.4v-5.2c0-0.2,0-0.4,0.1-0.5
		s0.1-0.3,0.2-0.5s0.2-0.3,0.3-0.3s0.2-0.2,0.3-0.2l7.7-4.7c0.3-0.1,0.5-0.3,0.6-0.6s0.2-0.6,0.2-1v-3c0-0.3,0-0.5-0.1-0.8
		s-0.1-0.4-0.2-0.5s-0.3-0.2-0.5-0.3s-0.5-0.1-0.9-0.1h-3.9c-0.1,0-0.3,0-0.4,0.1s-0.2,0.2-0.4,0.3s-0.2,0.3-0.2,0.5
		s-0.1,0.4-0.1,0.6v4.3h-2.9v-4.6c0-0.3,0.1-0.6,0.2-0.9s0.4-0.6,0.6-0.9s0.5-0.5,0.8-0.7s0.5-0.3,0.8-0.3h7.4c0.3,0,0.7,0.1,1,0.2
		s0.6,0.3,0.8,0.5s0.4,0.5,0.6,0.8S321.9,304.3,321.9,304.7z"/>
	<path style="fill:#CDCDCE;" d="M350.3,304.7v4.4c0,0.6-0.1,1-0.3,1.3s-0.5,0.6-0.9,0.7c-0.2,0.1-0.3,0.1-0.3,0.2
		c0.7,0.4,1.1,0.7,1.2,0.9c0.2,0.5,0.4,1.3,0.4,2.2v4.3c0,0.4-0.1,0.7-0.2,1s-0.3,0.6-0.6,0.8s-0.5,0.4-0.8,0.5s-0.6,0.2-1,0.2h-7.4
		c-0.2,0-0.3,0-0.4,0s-0.2-0.1-0.3-0.1s-0.2-0.2-0.3-0.3s-0.3-0.3-0.4-0.4c-0.6-0.6-0.8-1.2-0.8-1.8V314h2.9v4.3
		c0,0.3,0,0.5,0.1,0.7s0.2,0.3,0.3,0.5s0.2,0.2,0.4,0.3s0.3,0.1,0.4,0.1h3.9c0.4,0,0.7,0,0.9-0.1s0.4-0.2,0.5-0.3s0.2-0.3,0.2-0.5
		s0.1-0.5,0.1-0.8v-4.5c0-0.2,0-0.5-0.1-0.7s-0.1-0.4-0.2-0.5s-0.2-0.3-0.3-0.3s-0.2-0.1-0.3-0.1h-4.8v-1.7h4.2c0.3,0,0.6,0,0.8-0.1
		s0.3-0.1,0.4-0.2s0.2-0.2,0.2-0.3s0-0.3,0-0.5v-4.1c0-0.3,0-0.6-0.1-0.8s-0.1-0.4-0.2-0.5s-0.3-0.2-0.5-0.3s-0.5-0.1-0.9-0.1h-3.9
		c-0.1,0-0.3,0-0.4,0.1s-0.2,0.2-0.4,0.3s-0.2,0.3-0.3,0.5s-0.1,0.4-0.1,0.7v3.3h-2.9v-3.5c0-0.3,0.1-0.6,0.2-0.9s0.4-0.6,0.6-0.9
		s0.5-0.5,0.8-0.7s0.5-0.3,0.8-0.3h7.4c0.3,0,0.7,0.1,1,0.2s0.6,0.3,0.8,0.5s0.4,0.5,0.6,0.8S350.3,304.3,350.3,304.7z"/>
	<path style="fill:#CDCDCE;" d="M366.9,302.1v12.7h1.7v1.6h-1.7v4.8H364v-4.8h-8.7v-2.8l7.9-11.6h3.7V302.1z M364,303.7l-7.4,11.1
		h7.4V303.7z"/>
	<path style="fill:#CDCDCE;" d="M386,302.1v1.5h-9.5v4.9l0.1-0.1c0.1-0.1,0.1-0.1,0.2-0.2s0.2-0.2,0.2-0.2s0.1-0.1,0.2-0.1
		c0.6-0.2,1-0.3,1.3-0.3h5.1c0.3,0,0.5,0.1,0.8,0.2s0.5,0.3,0.8,0.6s0.4,0.5,0.6,0.7s0.2,0.5,0.2,0.7v9c0,0.4-0.1,0.7-0.2,1
		s-0.3,0.6-0.6,0.8s-0.5,0.4-0.8,0.5s-0.6,0.2-1,0.2h-7.3c-0.3,0-0.6-0.1-0.9-0.3s-0.5-0.4-0.8-0.6s-0.4-0.6-0.5-0.9
		s-0.2-0.6-0.2-0.9v-3h2.9v2.7c0,0.6,0.1,1,0.3,1.3s0.5,0.4,0.8,0.4h4c0.5,0,0.9-0.1,1.1-0.4s0.4-0.7,0.4-1.4v-7.8
		c0-0.5-0.1-0.8-0.3-1.1s-0.5-0.4-0.8-0.4h-3.5c-0.4,0-0.7,0.2-1.1,0.5s-0.6,0.9-0.8,1.5c-0.1,0.3-1.1,0.5-3,0.5v-9.3H386z"/>
	<path style="fill:#CDCDCE;" d="M403.9,304.8v2.2H401v-1.9c0-0.5-0.1-0.9-0.3-1.2s-0.5-0.5-0.9-0.5h-3.9c-0.2,0-0.4,0-0.6,0.1
		s-0.3,0.2-0.5,0.3s-0.2,0.3-0.3,0.5s-0.1,0.5-0.1,0.8c0,0.2,0,0.5,0,0.8s0,0.6,0,0.9s0,0.6,0.1,0.8s0.1,0.3,0.1,0.3h6.9
		c0.3,0,0.5,0.1,0.8,0.2s0.5,0.4,0.8,0.6s0.4,0.6,0.6,0.9s0.2,0.6,0.2,0.9v8.1c0,0.4-0.1,0.7-0.2,1s-0.3,0.6-0.6,0.8
		s-0.5,0.4-0.8,0.5s-0.6,0.2-1,0.2h-7.4c-0.3,0-0.6-0.1-0.9-0.2s-0.5-0.3-0.8-0.5s-0.4-0.5-0.5-0.8s-0.2-0.7-0.2-1.1v-13.9
		c0-0.4,0.1-0.7,0.2-1s0.3-0.6,0.6-0.8s0.5-0.4,0.8-0.5s0.6-0.2,1-0.2h7.4c0.3,0,0.5,0.1,0.8,0.2s0.5,0.4,0.8,0.6s0.4,0.5,0.6,0.9
		S403.9,304.5,403.9,304.8z M401,310.9c0-0.5-0.1-0.9-0.3-1.2s-0.5-0.5-0.9-0.5h-3.9c-0.2,0-0.4,0-0.6,0.1s-0.3,0.2-0.5,0.3
		s-0.2,0.3-0.3,0.6s-0.1,0.5-0.1,0.9v7.3c0,0.6,0.1,1,0.3,1.3s0.5,0.4,0.8,0.4h4c0.5,0,0.9-0.1,1.1-0.4s0.4-0.7,0.4-1.4V310.9z"/>
</g>
<g>
	<rect x="108.3" y="204.4" style="fill:#BBBCBB;" width="59" height="6.8"/>
	<rect x="108.3" y="192.2" style="fill:#BBBCBB;" width="59" height="5.8"/>
	<path style="fill:#BBBCBB;" d="M131.1,177.8h-14.7c-4.5,0-8.1,3.4-8.1,7.6v0.3h22v-4.8C130.3,179.8,130.6,178.8,131.1,177.8z"/>
	<path style="fill:#BBBCBB;" d="M167.3,185.4c0-4.2-3.6-7.6-8.1-7.6h-15.5c0.5,0.9,0.8,1.9,0.8,3.1v4.8h22.7v-0.3H167.3z"/>
	<path style="fill:#BBBCBB;" d="M108.3,218.5c0,4.2,3.6,7.6,8.1,7.6h42.7c4.5,0,8.1-3.4,8.1-7.6v-0.8h-59v0.8H108.3z"/>
</g>
<path style="fill:#CDCDCE;" d="M167.3,192.2v-6.5h-22.7v-4.8c0-1.1-0.3-2.2-0.8-3.1h-12.7c-0.5,0.9-0.8,1.9-0.8,3.1v4.8h-22v6.5h22
	v5.8h-22v6.5h22v4.8c0,0.7,0.1,1.4,0.3,2h-22.3v6.5h59v-6.5h-23c0.2-0.6,0.3-1.3,0.3-2v-4.8h22.7V198h-22.7v-5.8H167.3z"/>
<g>
</g>
<g>
</g>
<g>
</g>
<g>
</g>
<g>
</g>
<g>
</g>
<g>
</g>
<g>
</g>
<g>
</g>
<g>
</g>
<g>
</g>
<g>
</g>
<g>
</g>
<g>
</g>
<g>
</g>
</svg>
