<svg xmlns="http://www.w3.org/2000/svg" width="512" height="335.36" viewBox="0 0 512 335.36">
  <path id="Icon_payment-credit-card" data-name="Icon payment-credit-card" d="M483.048,16.35a32.062,32.062,0,0,1,24.542,10.631,32.031,32.031,0,0,1,10.631,24.541V316.537a36.361,36.361,0,0,1-35.173,35.173H41.393a32.017,32.017,0,0,1-24.541-10.631A32.008,32.008,0,0,1,6.221,316.537V51.522A32.013,32.013,0,0,1,16.851,26.981,32.053,32.053,0,0,1,41.393,16.35H483.048ZM41.393,44.158q-4.094,0-4.909,2.455a7.071,7.071,0,0,0-2.455,4.909V100.6H490.406V51.522a7.073,7.073,0,0,0-2.455-4.909q-.825-2.454-4.909-2.455H41.393ZM483.048,323.9q4.085,0,4.909-2.455a7.069,7.069,0,0,0,2.455-4.909V184.03H34.029V316.538a7.073,7.073,0,0,0,2.455,4.909q.806,2.454,4.909,2.455H483.048Zm-421.2-27.815V267.46h56.441v28.626Zm84.249,0V267.46h83.43v28.626Z" transform="translate(-6.221 -16.35)"/>
</svg>
