<svg xmlns="http://www.w3.org/2000/svg" width="512" height="165.507" viewBox="0 0 512 165.507">
  <path id="Icon_payment-visa" data-name="Icon payment-visa" d="M88.822,35.332c-2.007-10.26-9.749-13.5-18.75-13.5H3.063l-.492,3.241c45.993,11.755,83.753,36.756,100.757,84.009Zm18.75,96-4.245-22.251C94.562,85.826,73.314,64.327,49.311,54.573L83.062,182.082h43.755l65.26-160.256H148.066L107.572,131.332Zm116.756,50.99L250.312,21.831H208.82l-26,160.492ZM337.567,19.076c-41,0-69.739,21.76-69.995,52.992-.257,23.014,20.5,35.753,36.244,43.515,16.256,7.746,21.5,12.994,21.5,19.988,0,10.752-12.995,15.508-24.745,15.508-16.747,0-25.748-2.007-39-8.254l-5.5-2.749-5.755,35.993c9.749,4.5,27.5,8.51,46.249,8.51,43.5.256,71.762-21.5,72.253-54.743,0-18.258-11.244-32-35.005-43.515-14.49-7.234-23.235-12.5-23.235-19.988,0-6.743,7.49-13.757,23.746-13.757,13.5-.235,23.491,2.514,31,6.016l3.753,1.986,5.74-34.749a103.134,103.134,0,0,0-37.248-6.754Zm111.509,2.755c-10,0-17.51,3.005-21.76,13.5l-61.5,146.99h43.5c7.014-19.738,8.765-24,8.765-24h52.992s1.26,5.5,4.992,24h38.508L481.076,21.831h-32ZM429.814,125.337s3.5-9.257,16.512-44.754c-.256.256,3.5-9.257,5.5-15.253l2.99,13.757c7.746,38.252,9.513,46.249,9.513,46.249Z" transform="translate(-2.571 -19.076)"/>
</svg>
