<svg xmlns="http://www.w3.org/2000/svg" width="45" height="53.017" viewBox="0 0 45 53.017">
  <defs>
    <style>
      .cls-1, .cls-2 {
        fill: #fff;
      }

      .cls-1 {
        font-size: 14px;
        font-family: Roboto-Regular, Roboto;
        letter-spacing: -0.02em;
      }
    </style>
  </defs>
  <g id="Grupo_75" data-name="Grupo 75" transform="translate(-801 -2556.983)">
    <text id="Ajustes" class="cls-1" transform="translate(801 2606)"><tspan x="0" y="0">Ajustes</tspan></text>
    <g id="configuraciones" transform="translate(804 2556.983)">
      <g id="Grupo_26" data-name="Grupo 26" transform="translate(0 12.672)">
        <g id="Grupo_25" data-name="Grupo 25">
          <path id="Trazado_86" data-name="Trazado 86" class="cls-2" d="M23.444,169.5h-.7a.624.624,0,0,1-.587-.409c-.077-.2-.16-.4-.25-.6a.625.625,0,0,1,.127-.707l.5-.5a1.905,1.905,0,0,0,0-2.686l-1.791-1.791a1.905,1.905,0,0,0-2.687,0l-.5.5a.627.627,0,0,1-.707.127c-.2-.089-.395-.172-.6-.253a.623.623,0,0,1-.411-.588v-.7a1.9,1.9,0,0,0-1.9-1.9H11.4a1.9,1.9,0,0,0-1.9,1.9v.7a.624.624,0,0,1-.409.587c-.2.077-.4.16-.6.25a.627.627,0,0,1-.707-.127l-.5-.5a1.905,1.905,0,0,0-2.686,0l-1.791,1.8a1.905,1.905,0,0,0,0,2.686l.5.5a.625.625,0,0,1,.127.707c-.089.2-.172.395-.25.6a.623.623,0,0,1-.591.409H1.9A1.9,1.9,0,0,0,0,171.4v2.534a1.9,1.9,0,0,0,1.9,1.9h.7a.624.624,0,0,1,.587.409c.077.2.16.4.25.6a.625.625,0,0,1-.127.707l-.5.5a1.905,1.905,0,0,0,0,2.686L4.6,182.528a1.905,1.905,0,0,0,2.687,0l.5-.5a.627.627,0,0,1,.707-.127c.2.089.395.172.6.253a.623.623,0,0,1,.414.588v.7a1.9,1.9,0,0,0,1.9,1.9h2.534a1.9,1.9,0,0,0,1.9-1.9v-.7a.624.624,0,0,1,.409-.587c.2-.077.4-.16.6-.25a.627.627,0,0,1,.707.127l.5.5a1.906,1.906,0,0,0,2.686,0l1.791-1.791a1.905,1.905,0,0,0,0-2.687l-.5-.5a.625.625,0,0,1-.127-.707c.089-.2.172-.395.253-.6a.623.623,0,0,1,.588-.411h.7a1.9,1.9,0,0,0,1.9-1.9V171.4A1.9,1.9,0,0,0,23.444,169.5Zm.634,4.435a.634.634,0,0,1-.634.634h-.7a1.907,1.907,0,0,0-1.774,1.225q-.1.266-.218.524a1.906,1.906,0,0,0,.38,2.126l.5.5a.634.634,0,0,1,0,.9h0l-1.791,1.791a.634.634,0,0,1-.9,0l-.5-.5a1.9,1.9,0,0,0-2.126-.38c-.172.078-.347.151-.523.218a1.907,1.907,0,0,0-1.225,1.773v.7a.634.634,0,0,1-.634.634H11.4a.634.634,0,0,1-.634-.634v-.7a1.907,1.907,0,0,0-1.225-1.774q-.266-.1-.524-.218a1.907,1.907,0,0,0-2.126.38l-.5.5a.634.634,0,0,1-.9,0h0l-1.791-1.789a.634.634,0,0,1,0-.9l.5-.5a1.906,1.906,0,0,0,.38-2.126c-.078-.172-.151-.347-.218-.523A1.907,1.907,0,0,0,2.6,174.573H1.9a.634.634,0,0,1-.634-.634V171.4a.634.634,0,0,1,.634-.634h.7a1.907,1.907,0,0,0,1.774-1.225q.1-.266.218-.524a1.907,1.907,0,0,0-.38-2.126l-.5-.5a.634.634,0,0,1,0-.9h0L5.5,163.712a.634.634,0,0,1,.9,0l.5.5a1.9,1.9,0,0,0,2.126.38c.172-.078.347-.151.523-.218a1.906,1.906,0,0,0,1.227-1.773v-.7a.634.634,0,0,1,.634-.634h2.534a.634.634,0,0,1,.634.634v.7a1.907,1.907,0,0,0,1.225,1.774q.266.1.524.218a1.9,1.9,0,0,0,2.126-.38l.5-.5a.637.637,0,0,1,.9,0l1.791,1.791a.634.634,0,0,1,0,.9l-.5.5a1.907,1.907,0,0,0-.38,2.126c.078.172.151.347.218.523a1.907,1.907,0,0,0,1.773,1.225h.7a.634.634,0,0,1,.634.634v2.534Z" transform="translate(0 -160)"/>
        </g>
      </g>
      <g id="Grupo_28" data-name="Grupo 28" transform="translate(6.966 19.642)">
        <g id="Grupo_27" data-name="Grupo 27">
          <path id="Trazado_87" data-name="Trazado 87" class="cls-2" d="M99.354,253.449c-.006-.152-.017-.3-.035-.454s-.044-.323-.078-.481c-.022-.1-.051-.205-.079-.308q-.053-.2-.12-.386c-.031-.088-.063-.176-.1-.262a5.641,5.641,0,0,0-.279-.593c-.008-.015-.013-.03-.022-.045a5.619,5.619,0,0,0-.57-.831c-.018-.023-.039-.044-.058-.067-.087-.1-.177-.2-.272-.3-.049-.051-.1-.1-.153-.149s-.127-.117-.19-.173-.155-.131-.235-.194l-.1-.077a5.662,5.662,0,0,0-3.4-1.13c-.063,0-.127.009-.19.012-.135,0-.271.011-.407.025-.072.008-.144.016-.215.026a5.813,5.813,0,0,0-.614.115,5.706,5.706,0,0,0,0,11.05.145.145,0,0,1,.032.006,6.045,6.045,0,0,0,.664.127c.148.018.3.022.444.029.1.005.19.02.293.02.181,0,.368-.012.559-.031a.614.614,0,0,0,.063-.008c.154-.017.31-.04.469-.072.063-.012.122-.028.183-.042.112-.026.222-.053.336-.087.089-.027.175-.058.262-.088s.177-.063.267-.1.165-.073.247-.112c.106-.049.212-.1.317-.154h0a7.5,7.5,0,0,0,1.624-1.173,1.994,1.994,0,0,0,.34-.416,6.764,6.764,0,0,0,.954-2.6c.018-.122.034-.245.043-.369s.015-.229.018-.343c0-.036.005-.07.005-.106C99.367,253.618,99.358,253.535,99.354,253.449Zm-1.263.415c0,.053,0,.105-.008.157-.011.153-.031.307-.057.461a4.445,4.445,0,0,1-2.227,3.1c-.079.041-.156.08-.233.115l-.053.025a4.576,4.576,0,0,1-1.156.35l-.085.013c-.079.011-.157.021-.234.028-.1.009-.2.014-.309.016H93.6a4.452,4.452,0,0,1-.449-.028l-.076-.009a4.681,4.681,0,0,1-.518-.1,4.435,4.435,0,0,1,0-8.592h0a4.589,4.589,0,0,1,1.113-.139,4.379,4.379,0,0,1,.542.037c.048.006.1.015.143.022.137.022.272.049.406.083l.131.034a4.474,4.474,0,0,1,.966.407c.049.029.1.058.144.088.1.063.2.127.293.2.051.037.1.074.153.114a4.573,4.573,0,0,1,.357.317c.045.046.086.1.13.143.073.079.144.16.212.246.047.059.092.12.136.181.063.091.127.186.184.283l.1.158a4.344,4.344,0,0,1,.218.464c.025.063.047.127.07.19.041.117.077.234.108.354.016.063.034.12.047.181a4.466,4.466,0,0,1,.08.519c0,.046,0,.093.007.139C98.094,253.571,98.1,253.717,98.091,253.864Z" transform="translate(-87.959 -248)"/>
        </g>
      </g>
      <g id="Grupo_30" data-name="Grupo 30" transform="translate(6.911)">
        <g id="Grupo_29" data-name="Grupo 29">
          <path id="Trazado_88" data-name="Trazado 88" class="cls-2" d="M116.466,13.306h-1.993a.618.618,0,0,1-.591-.416,13.2,13.2,0,0,0-.712-1.718.62.62,0,0,1,.122-.715l1.413-1.415a1.9,1.9,0,0,0,0-2.687l-2.694-2.69a1.9,1.9,0,0,0-2.687,0l-1.412,1.412a.62.62,0,0,1-.715.122,13.164,13.164,0,0,0-1.718-.715.618.618,0,0,1-.418-.591V1.9a1.9,1.9,0,0,0-1.9-1.9h-3.8a1.9,1.9,0,0,0-1.9,1.9V3.894a.618.618,0,0,1-.416.591,13.2,13.2,0,0,0-1.718.715.619.619,0,0,1-.715-.122L93.194,3.664a1.9,1.9,0,0,0-2.687,0L87.818,6.353a1.9,1.9,0,0,0,0,2.688L89.9,11.122a.634.634,0,0,0,.9-.895L88.714,8.147a.634.634,0,0,1,0-.9L91.4,4.562a.634.634,0,0,1,.9,0l1.415,1.413a1.884,1.884,0,0,0,2.177.357,11.988,11.988,0,0,1,1.553-.646,1.885,1.885,0,0,0,1.281-1.793V1.9a.634.634,0,0,1,.634-.634h3.8a.634.634,0,0,1,.634.634V3.894a1.884,1.884,0,0,0,1.281,1.792,11.95,11.95,0,0,1,1.554.646,1.888,1.888,0,0,0,2.176-.358l1.415-1.412a.634.634,0,0,1,.9,0l2.689,2.69a.634.634,0,0,1,0,.9l-1.413,1.415a1.886,1.886,0,0,0-.357,2.177,11.987,11.987,0,0,1,.646,1.553,1.884,1.884,0,0,0,1.793,1.281h1.993a.634.634,0,0,1,.634.634v3.8a.634.634,0,0,1-.634.634h-1.993a1.884,1.884,0,0,0-1.792,1.281,11.94,11.94,0,0,1-.646,1.554,1.886,1.886,0,0,0,.358,2.176l1.413,1.415a.634.634,0,0,1,0,.9l-2.69,2.689a.634.634,0,0,1-.9,0l-2.082-2.078a.634.634,0,1,0-.91.882l.016.016,2.081,2.078a1.9,1.9,0,0,0,2.687,0l2.689-2.688a1.9,1.9,0,0,0,0-2.688L113.29,23.76a.621.621,0,0,1-.122-.715,13.165,13.165,0,0,0,.715-1.718.618.618,0,0,1,.591-.418h1.993a1.9,1.9,0,0,0,1.9-1.9v-3.8A1.9,1.9,0,0,0,116.466,13.306Z" transform="translate(-87.261)"/>
        </g>
      </g>
      <g id="Grupo_32" data-name="Grupo 32" transform="translate(14.907 8.874)">
        <g id="Grupo_31" data-name="Grupo 31">
          <path id="Trazado_89" data-name="Trazado 89" class="cls-2" d="M200.045,114.458a8.245,8.245,0,0,0-11.648,0,.634.634,0,0,0,.9.9,6.97,6.97,0,1,1,9.922,9.79l-.066.066a.634.634,0,0,0,.88.911l.016-.016A8.245,8.245,0,0,0,200.045,114.458Z" transform="translate(-188.219 -112.049)"/>
        </g>
      </g>
    </g>
  </g>
</svg>
