<svg xmlns="http://www.w3.org/2000/svg" width="63" height="50.017" viewBox="0 0 63 50.017">
  <defs>
    <style>
      .cls-1, .cls-2 {
        fill: #fff;
      }

      .cls-1 {
        fill-rule: evenodd;
      }

      .cls-2 {
        font-size: 14px;
        font-family: Roboto-Regular, Roboto;
        letter-spacing: -0.02em;
      }
    </style>
  </defs>
  <g id="Grupo_72" data-name="Grupo 72" transform="translate(-546 -2559.983)">
    <g id="Grupo_71" data-name="Grupo 71" transform="translate(461.373 1968.851)">
      <path id="Trazado_18" data-name="Trazado 18" class="cls-1" d="M77.486,139.232l2.041-.212.151,3.846-2.223-.091.027-3.543Zm14.305-3.776c-.112-1.8,1.4-2.556,2.268-3.785,1.108-1.56,1-2.32,3.613-2.32l6.035.118c.824,1.335.466,4.452.233,6.017l-12.152-.03ZM76.32,143.4c7.1,1.063,6.962-2.011,10.632-.082,1.914,1.005,2.68,2.489,3.313,4.839l21.555.039c1.469-7.392,10.974-7.244,12.031.015,5.136-.058,4.86.845,4.915-5.76a31.553,31.553,0,0,0-3.582-2.332c-2.308-1.405-2.114-1.278-5.3-1.254-4.085.033-8.6.164-12.643-.03-.382-2.689.006-6.526-.076-9.291-.082-2.75.936-2.032-10.263-2.032-1.874,0-2.053.124-3.107,1.229-11.05,11.607-7.035,4.67-14.681,8.291-2.462,1.166-3.6,1.454-2.789,6.362Z" transform="translate(13.563 470.737)"/>
      <path id="Trazado_19" data-name="Trazado 19" class="cls-1" d="M181.31,120.39l9.954.042c.379-2.959-.36-.911-.911-2.934l6.493-8.936-.488,6c-.333.86-1.317,1.12-1.154,3.2.3,3.876,5.054,4.515,5.76-.46-3.376.306-.569,1.629-3.625,1.623-1.69-2.607.13-1.756,1.036-4.712.548-1.793-.176,1.772.16-.624.206-1.472-.615-1.211-.475-5.2.1-2.847,1-1.847.709-5-3.513-1.26-4.47.639-5.9,2.374A20.767,20.767,0,0,1,190.949,108a18.119,18.119,0,0,0-2.25,2.25c-3.177,3.8-7.507,7-7.386,10.142Z" transform="translate(-61.056 488.151)"/>
      <path id="Trazado_20" data-name="Trazado 20" class="cls-1" d="M203.667,187.8c-4.618,1.408-5.454-2.638-3.791-4.106C201.8,182,205.9,183.522,203.667,187.8Zm-3.425-6.947c-6.635,2.138-3.319,12.131,3.389,9.6C209.8,188.134,206.553,178.825,200.242,180.857Z" transform="translate(-71.583 433.282)"/>
      <path id="Trazado_21" data-name="Trazado 21" class="cls-1" d="M91.5,183.154c3.931-1.632,4.981,4.018,2.262,5.081a2.727,2.727,0,0,1-3.788-1.42C89.261,184.631,90.209,183.69,91.5,183.154Zm-.433-2.326c-6.347,2.174-3.2,11.792,3.083,9.69C100.09,188.532,97.289,178.7,91.066,180.828Z" transform="translate(6.894 433.312)"/>
      <path id="Trazado_22" data-name="Trazado 22" class="cls-1" d="M76.043,184.016l-5.193-.006c.036,2.162.545,3.876,2.586,4.1C75.217,188.31,75.689,185.591,76.043,184.016Z" transform="translate(19.016 430.984)"/>
      <path id="Trazado_23" data-name="Trazado 23" class="cls-1" d="M152.668,117.534l-.058,1.508c1.384.848,2.725.518,4.688.518l-.015-2.026-3.267-.382c-1.223.151.551-.17-.706.13Z" transform="translate(-39.698 478.33)"/>
    </g>
    <text id="Asistencia" class="cls-2" transform="translate(546 2606)"><tspan x="0" y="0">Asistencia</tspan></text>
  </g>
</svg>
