<svg xmlns="http://www.w3.org/2000/svg" width="55" height="50.017" viewBox="0 0 55 50.017">
  <defs>
    <style>
      .cls-1, .cls-2 {
        fill: #fff;
      }

      .cls-1 {
        font-size: 14px;
        font-family: Roboto-Regular, Roboto;
        letter-spacing: -0.02em;
      }
    </style>
  </defs>
  <g id="Grupo_74" data-name="Grupo 74" transform="translate(-729 -2559.983)">
    <text id="Servicios" class="cls-1" transform="translate(729 2606)"><tspan x="0" y="0">Servicios</tspan></text>
    <g id="reparacion-de-autos" transform="translate(738.546 2559.983)">
      <g id="Grupo_69" data-name="Grupo 69" transform="translate(0.367)">
        <path id="Trazado_138" data-name="Trazado 138" class="cls-2" d="M36.132,15.04c-.213-1.877-5.266,0-5.266,0l-.3,2.67a3.764,3.764,0,0,0-.34-.177l-1.276-5.569a5.152,5.152,0,0,0-5.386-4.5H16.071a6.1,6.1,0,0,1-.209.906h8.209a3.737,3.737,0,0,1,3.689,2.9l1.371,5.5c-.086,0-.172-.011-.259-.011H12.978l0,5.36h9.846v1.2H12.983v.35h9.745v1.2H12.984l0,4.5H23.5v2.852c0,1.159,1.434,2.1,3.2,2.1s3.2-.94,3.2-2.1V29.042a3.641,3.641,0,0,0,2.562-3.271v-5.1a3.4,3.4,0,0,0-1.623-2.791l5.293-.286A7.18,7.18,0,0,0,36.132,15.04Zm-6.063,9.739H24.292V22.032h5.777v2.747Z" transform="translate(-2.519 -1.273)"/>
        <rect id="Rect치ngulo_22" data-name="Rect치ngulo 22" class="cls-2" width="0.147" height="1.201" transform="translate(10.318 22.394)"/>
        <rect id="Rect치ngulo_23" data-name="Rect치ngulo 23" class="cls-2" width="0.046" height="1.198" transform="translate(10.418 20.847)"/>
        <path id="Trazado_139" data-name="Trazado 139" class="cls-2" d="M12.782,5.381A6.206,6.206,0,0,0,9.66,0V4.97L6.574,6.751,3.485,4.964V0a6.2,6.2,0,0,0,.285,10.917V31.386a2.929,2.929,0,1,0,5.857,0l-.012-20.6A6.205,6.205,0,0,0,12.782,5.381Zm-5.437,27.3a1.118,1.118,0,1,1,0-1.583A1.12,1.12,0,0,1,7.345,32.683Z" transform="translate(-0.367)"/>
      </g>
    </g>
  </g>
</svg>
