<svg xmlns="http://www.w3.org/2000/svg" width="57.857" height="32" viewBox="0 0 57.857 32">
  <g id="Grupo_123" data-name="Grupo 123" transform="translate(-1408.74 -5122.882)">
    <path id="Trazado_258" data-name="Trazado 258" d="M77.625,138.868l2.241-.205.166,3.727-2.44-.088.03-3.434Zm15.7-3.66c-.123-1.74,1.533-2.477,2.49-3.669,1.217-1.512,1.094-2.248,3.966-2.248l6.626.114c.9,1.294.512,4.314.256,5.832l-13.341-.029Zm-16.984,7.7c7.8,1.03,7.643-1.949,11.672-.079,2.1.974,2.942,2.413,3.637,4.69l23.663.038c1.612-7.164,12.048-7.02,13.208.015,5.638-.056,5.336.819,5.4-5.582a35.421,35.421,0,0,0-3.933-2.26c-2.533-1.362-2.32-1.239-5.821-1.215-4.485.032-9.438.158-13.879-.029-.419-2.606.007-6.325-.083-9s1.027-1.969-11.267-1.969c-2.058,0-2.254.12-3.411,1.192C83.4,139.954,87.8,133.23,79.41,136.74c-2.7,1.13-3.953,1.409-3.062,6.166Z" transform="translate(1332.676 5002.27)" fill="#04487e" fill-rule="evenodd"/>
    <path id="Trazado_259" data-name="Trazado 259" d="M181.31,119.854l9.647.041c.367-2.867-.349-.883-.883-2.844l6.293-8.661-.473,5.811c-.323.834-1.277,1.086-1.118,3.105.293,3.757,4.9,4.376,5.582-.446-3.272.3-.552,1.579-3.513,1.573-1.638-2.527.126-1.7,1-4.567.531-1.738-.17,1.717.156-.6.2-1.426-.6-1.174-.461-5.036.094-2.759.971-1.79.687-4.849-3.4-1.221-4.332.619-5.714,2.3a20.131,20.131,0,0,1-1.864,2.169,17.563,17.563,0,0,0-2.181,2.181c-3.079,3.683-7.276,6.789-7.158,9.829Z" transform="translate(1263.891 5019.901)" fill="#04487e" fill-rule="evenodd"/>
    <path id="Trazado_260" data-name="Trazado 260" d="M203.45,187.581c-4.476,1.365-5.286-2.556-3.675-3.98C201.645,181.952,205.619,183.431,203.45,187.581Zm-3.319-6.733c-6.431,2.072-3.217,11.757,3.284,9.307C209.393,187.9,206.247,178.879,200.131,180.848Z" transform="translate(1253.217 4964.333)" fill="#04487e" fill-rule="evenodd"/>
    <path id="Trazado_261" data-name="Trazado 261" d="M91.379,183.073c3.81-1.582,4.828,3.895,2.192,4.925a2.643,2.643,0,0,1-3.672-1.377C89.21,184.5,90.129,183.592,91.379,183.073Zm-.42-2.254c-6.152,2.107-3.1,11.429,2.988,9.392C99.705,188.285,96.99,178.752,90.959,180.819Z" transform="translate(1325.856 4964.362)" fill="#04487e" fill-rule="evenodd"/>
    <path id="Trazado_262" data-name="Trazado 262" d="M75.883,184.016l-5.033-.006c.035,2.1.528,3.757,2.506,3.977C75.082,188.178,75.54,185.542,75.883,184.016Z" transform="translate(1338.121 4961.999)" fill="#04487e" fill-rule="evenodd"/>
    <path id="Trazado_263" data-name="Trazado 263" d="M152.666,117.522l-.056,1.462c1.341.822,2.641.5,4.543.5l-.015-1.963-3.167-.37c-1.186.147.534-.164-.684.126Z" transform="translate(1281.984 5009.945)" fill="#04487e" fill-rule="evenodd"/>
  </g>
</svg>
